Qubee-Sheek-Bakrii-Saphaloo.ufo
<glyph name="exclam" format="2">
  <advance width="502"/>
  <unicode hex="0021"/>
  <outline>
    <contour>
      <point x="352.187" y="1007.13" type="line"/>
      <point x="305.405" y="322.176" type="line"/>
      <point x="203.898" y="322.176" type="line"/>
      <point x="155.351" y="1007.13" type="line"/>
      <point x="155.351" y="1294" type="line"/>
      <point x="352.187" y="1294" type="line"/>
    </contour>
    <contour>
      <point x="345.126" y="0" type="line"/>
      <point x="162.412" y="0" type="line"/>
      <point x="162.412" y="180.948" type="line"/>
      <point x="345.126" y="180.948" type="line"/>
    </contour>
  </outline>
</glyph>
<glyph name="quotedbl" format="2">
  <advance width="642"/>
  <unicode hex="0022"/>
  <outline>
    <contour>
      <point x="556.967" y="1083.04" type="line"/>
      <point x="515.482" y="835.01" type="line"/>
      <point x="419.27" y="835.01" type="line"/>
      <point x="376.019" y="1083.04" type="line"/>
      <point x="376.019" y="1294" type="line"/>
      <point x="556.967" y="1294" type="line"/>
    </contour>
    <contour>
      <point x="263.92" y="1083.04" type="line"/>
      <point x="224.199" y="835.01" type="line"/>
      <point x="126.222" y="835.01" type="line"/>
      <point x="82.9714" y="1083.04" type="line"/>
      <point x="82.9714" y="1294" type="line"/>
      <point x="263.92" y="1294" type="line"/>
    </contour>
  </outline>
</glyph>
<glyph name="numbersign" format="2">
  <advance width="1005"/>
  <unicode hex="0023"/>
  <outline>
    <contour>
      <point x="981.533" y="353.952" type="line"/>
      <point x="710.553" y="353.952" type="line"/>
      <point x="634.643" y="-22.0668" type="line"/>
      <point x="500.476" y="-22.0668" type="line"/>
      <point x="576.386" y="353.952" type="line"/>
      <point x="300.109" y="353.952" type="line"/>
      <point x="224.199" y="-22.0668" type="line"/>
      <point x="90.0327" y="-22.0668" type="line"/>
      <point x="167.708" y="353.952" type="line"/>
      <point x="17.6535" y="353.952" type="line"/>
      <point x="17.6535" y="486.353" type="line"/>
      <point x="193.306" y="486.353" type="line"/>
      <point x="260.389" y="805.881" type="line"/>
      <point x="17.6535" y="805.881" type="line"/>
      <point x="17.6535" y="938.282" type="line"/>
      <point x="285.986" y="938.282" type="line"/>
      <point x="363.662" y="1316.07" type="line"/>
      <point x="495.18" y="1316.07" type="line"/>
      <point x="417.505" y="938.282" type="line"/>
      <point x="695.547" y="938.282" type="line"/>
      <point x="774.105" y="1316.07" type="line"/>
      <point x="905.624" y="1316.07" type="line"/>
      <point x="829.714" y="938.282" type="line"/>
      <point x="981.533" y="938.282" type="line"/>
      <point x="981.533" y="805.881" type="line"/>
      <point x="802.351" y="805.881" type="line"/>
      <point x="737.915" y="486.353" type="line"/>
      <point x="981.533" y="486.353" type="line"/>
    </contour>
    <contour>
      <point x="670.832" y="805.881" type="line"/>
      <point x="391.907" y="805.881" type="line"/>
      <point x="327.472" y="486.353" type="line"/>
      <point x="603.749" y="486.353" type="line"/>
    </contour>
  </outline>
</glyph>
<glyph name="ampersand" format="2">
  <advance width="1206"/>
  <unicode hex="0026"/>
  <outline>
    <contour>
      <point x="1164.25" y="96.2115" type="line"/>
      <point x="1057.44" y="-30.8936" type="line"/>
      <point x="962.115" y="32.6589"/>
      <point x="858.842" y="151.82" type="qcurve"/>
      <point x="701.726" y="-22.0669"/>
      <point x="488.119" y="-22.0669" type="qcurve" smooth="yes"/>
      <point x="287.752" y="-22.0669"/>
      <point x="172.121" y="112.1" type="qcurve" smooth="yes"/>
      <point x="77.6753" y="220.668"/>
      <point x="77.6753" y="355.718" type="qcurve" smooth="yes"/>
      <point x="77.6753" y="596.688"/>
      <point x="384.846" y="743.211" type="qcurve"/>
      <point x="240.087" y="910.92"/>
      <point x="240.087" y="1026.55" type="qcurve" smooth="yes"/>
      <point x="240.087" y="1153.65"/>
      <point x="339.829" y="1236.63" type="qcurve" smooth="yes"/>
      <point x="431.628" y="1316.07"/>
      <point x="562.263" y="1316.07" type="qcurve" smooth="yes"/>
      <point x="684.955" y="1316.07"/>
      <point x="862.372" y="1162.48"/>
      <point x="862.372" y="1039.79" type="qcurve" smooth="yes"/>
      <point x="862.372" y="855.311"/>
      <point x="617.872" y="724.675" type="qcurve"/>
      <point x="850.015" y="428.097" type="line"/>
      <point x="889.735" y="505.772"/>
      <point x="910.92" y="609.045" type="qcurve"/>
      <point x="1077.74" y="572.855" type="line"/>
      <point x="1033.61" y="405.147"/>
      <point x="962.115" y="294.813" type="qcurve"/>
      <point x="1052.15" y="177.417"/>
      <point x="1164.25" y="96.2115" type="qcurve"/>
    </contour>
    <contour>
      <point x="699.961" y="1036.26" type="line"/>
      <point x="699.961" y="1100.69"/>
      <point x="617.872" y="1185.43"/>
      <point x="553.437" y="1185.43" type="qcurve" smooth="yes"/>
      <point x="489.884" y="1185.43"/>
      <point x="403.382" y="1104.23"/>
      <point x="403.382" y="1043.32" type="qcurve" smooth="yes"/>
      <point x="403.382" y="981.533"/>
      <point x="464.287" y="909.154" type="qcurve" smooth="yes"/>
      <point x="534.9" y="827.948" type="line"/>
      <point x="616.106" y="874.73"/>
      <point x="648.765" y="909.154" type="qcurve" smooth="yes"/>
      <point x="699.961" y="963.88"/>
      <point x="699.961" y="1036.26" type="qcurve"/>
    </contour>
    <contour>
      <point x="759.1" y="278.042" type="line"/>
      <point x="467.817" y="639.939" type="line"/>
      <point x="249.797" y="507.538"/>
      <point x="249.797" y="367.192" type="qcurve" smooth="yes"/>
      <point x="249.797" y="267.45"/>
      <point x="390.142" y="117.396"/>
      <point x="489.884" y="117.396" type="qcurve" smooth="yes"/>
      <point x="565.794" y="117.396"/>
      <point x="715.849" y="211.842"/>
      <point x="759.1" y="278.042" type="qcurve"/>
    </contour>
  </outline>
</glyph>
<glyph name="quotesingle" format="2">
  <advance width="345"/>
  <unicode hex="0027"/>
  <outline>
    <contour>
      <point x="260.389" y="1077.74" type="line"/>
      <point x="218.903" y="835.01" type="line"/>
      <point x="119.161" y="835.01" type="line"/>
      <point x="79.4407" y="1077.74" type="line"/>
      <point x="79.4407" y="1294" type="line"/>
      <point x="260.389" y="1294" type="line"/>
    </contour>
  </outline>
</glyph>
<glyph name="asterisk" format="2">
  <advance width="703"/>
  <unicode hex="002A"/>
  <outline>
    <contour>
      <point x="639.939" y="1055.68" type="line"/>
      <point x="527.839" y="1019.49"/>
      <point x="419.27" y="1007.13" type="qcurve"/>
      <point x="473.996" y="959.467"/>
      <point x="571.09" y="840.306" type="qcurve"/>
      <point x="466.052" y="764.396" type="line"/>
      <point x="413.974" y="835.01"/>
      <point x="345.126" y="954.171" type="qcurve"/>
      <point x="279.808" y="829.714"/>
      <point x="229.495" y="764.396" type="qcurve"/>
      <point x="126.222" y="840.306" type="line"/>
      <point x="227.73" y="967.411"/>
      <point x="272.746" y="1007.13" type="qcurve"/>
      <point x="158.881" y="1028.32"/>
      <point x="55.6085" y="1055.68" type="qcurve"/>
      <point x="97.9768" y="1181.9" type="line"/>
      <point x="236.557" y="1131.59"/>
      <point x="301.875" y="1095.4" type="qcurve"/>
      <point x="284.221" y="1256.05"/>
      <point x="284.221" y="1316.07" type="qcurve"/>
      <point x="412.209" y="1316.07" type="line"/>
      <point x="408.678" y="1229.56"/>
      <point x="390.142" y="1097.16" type="qcurve"/>
      <point x="482.823" y="1142.18"/>
      <point x="600.218" y="1181.9" type="qcurve"/>
    </contour>
  </outline>
</glyph>
<glyph name="comma" format="2">
  <advance width="502"/>
  <unicode hex="002C"/>
  <outline>
    <contour>
      <point x="341.595" y="0" type="line" smooth="yes"/>
      <point x="341.595" y="-191.54"/>
      <point x="193.306" y="-256.858" type="qcurve"/>
      <point x="150.055" y="-188.01" type="line"/>
      <point x="246.266" y="-146.524"/>
      <point x="251.562" y="0" type="qcurve"/>
      <point x="160.647" y="0" type="line"/>
      <point x="160.647" y="180.948" type="line"/>
      <point x="341.595" y="180.948" type="line"/>
    </contour>
  </outline>
</glyph>
<glyph name="hyphen" format="2">
  <advance width="602"/>
  <unicode hex="002D"/>
  <outline>
    <contour>
      <point x="545.493" y="388.377" type="line"/>
      <point x="58.2565" y="388.377" type="line"/>
      <point x="58.2565" y="548.141" type="line"/>
      <point x="545.493" y="548.141" type="line"/>
    </contour>
  </outline>
</glyph>
<glyph name="period" format="2">
  <advance width="502"/>
  <unicode hex="002E"/>
  <outline>
    <contour>
      <point x="345.126" y="0" type="line"/>
      <point x="164.177" y="0" type="line"/>
      <point x="164.177" y="180.948" type="line"/>
      <point x="345.126" y="180.948" type="line"/>
    </contour>
  </outline>
</glyph>
<glyph name="five" format="2">
  <advance width="1005"/>
  <unicode hex="0035"/>
  <outline>
    <contour>
      <point x="932.986" y="439.572" type="line" smooth="yes"/>
      <point x="932.986" y="263.92"/>
      <point x="829.714" y="135.932" type="qcurve" smooth="yes"/>
      <point x="705.257" y="-22.0668"/>
      <point x="489.884" y="-22.0668" type="qcurve" smooth="yes"/>
      <point x="319.528" y="-22.0668"/>
      <point x="91.7981" y="170.356"/>
      <point x="75.9099" y="339.829" type="qcurve"/>
      <point x="241.853" y="352.187" type="line"/>
      <point x="258.623" y="243.618"/>
      <point x="317.763" y="179.183" type="qcurve" smooth="yes"/>
      <point x="384.846" y="108.569"/>
      <point x="489.884" y="108.569" type="qcurve" smooth="yes"/>
      <point x="617.872" y="108.569"/>
      <point x="693.782" y="205.663" type="qcurve" smooth="yes"/>
      <point x="764.396" y="294.813"/>
      <point x="764.396" y="424.566" type="qcurve" smooth="yes"/>
      <point x="764.396" y="555.202"/>
      <point x="617.872" y="717.614"/>
      <point x="488.119" y="717.614" type="qcurve" smooth="yes"/>
      <point x="332.768" y="717.614"/>
      <point x="253.327" y="593.157" type="qcurve"/>
      <point x="103.273" y="610.81" type="line"/>
      <point x="227.73" y="1276.35" type="line"/>
      <point x="871.199" y="1276.35" type="line"/>
      <point x="871.199" y="1124.53" type="line"/>
      <point x="355.718" y="1124.53" type="line"/>
      <point x="285.986" y="777.636" type="line"/>
      <point x="403.382" y="858.842"/>
      <point x="529.604" y="858.842" type="qcurve" smooth="yes"/>
      <point x="707.022" y="858.842"/>
      <point x="932.986" y="616.106"/>
      <point x="932.986" y="439.572" type="qcurve" smooth="yes"/>
    </contour>
  </outline>
</glyph>
<glyph name="six" format="2">
  <advance width="1005"/>
  <unicode hex="0036"/>
  <outline>
    <contour>
      <point x="921.512" y="419.27" type="line" smooth="yes"/>
      <point x="921.512" y="301.874"/>
      <point x="872.965" y="200.367" type="qcurve" smooth="yes"/>
      <point x="820.887" y="90.0327"/>
      <point x="634.643" y="-22.0669"/>
      <point x="517.247" y="-22.0669" type="qcurve" smooth="yes"/>
      <point x="269.216" y="-22.0669"/>
      <point x="157.116" y="179.183" type="qcurve" smooth="yes"/>
      <point x="68.8486" y="336.299"/>
      <point x="68.8486" y="605.514" type="qcurve" smooth="yes"/>
      <point x="68.8486" y="1300.18"/>
      <point x="531.37" y="1300.18" type="qcurve" smooth="yes"/>
      <point x="684.955" y="1300.18"/>
      <point x="880.026" y="1128.06"/>
      <point x="900.327" y="978.003" type="qcurve"/>
      <point x="741.446" y="965.645" type="line"/>
      <point x="719.379" y="1059.21"/>
      <point x="681.424" y="1100.69" type="qcurve" smooth="yes"/>
      <point x="617.872" y="1167.78"/>
      <point x="522.543" y="1167.78" type="qcurve" smooth="yes"/>
      <point x="353.952" y="1167.78"/>
      <point x="270.981" y="967.411" type="qcurve" smooth="yes"/>
      <point x="227.73" y="862.372"/>
      <point x="225.965" y="667.302" type="qcurve"/>
      <point x="339.83" y="838.54"/>
      <point x="540.197" y="838.54" type="qcurve" smooth="yes"/>
      <point x="710.553" y="838.54"/>
      <point x="819.122" y="714.083" type="qcurve" smooth="yes"/>
      <point x="921.512" y="594.922"/>
      <point x="921.512" y="419.27" type="qcurve" smooth="yes"/>
    </contour>
    <contour>
      <point x="759.1" y="410.443" type="line" smooth="yes"/>
      <point x="759.1" y="533.135"/>
      <point x="695.547" y="612.576" type="qcurve" smooth="yes"/>
      <point x="627.581" y="699.96"/>
      <point x="507.538" y="699.96" type="qcurve" smooth="yes"/>
      <point x="391.907" y="699.96"/>
      <point x="251.562" y="536.666"/>
      <point x="251.562" y="419.27" type="qcurve" smooth="yes"/>
      <point x="251.562" y="231.261"/>
      <point x="383.081" y="148.289" type="qcurve" smooth="yes"/>
      <point x="446.633" y="108.569"/>
      <point x="515.482" y="108.569" type="qcurve" smooth="yes"/>
      <point x="631.112" y="108.569"/>
      <point x="699.961" y="203.898" type="qcurve" smooth="yes"/>
      <point x="759.1" y="289.517"/>
      <point x="759.1" y="410.443" type="qcurve" smooth="yes"/>
    </contour>
  </outline>
</glyph>
<glyph name="colon" format="2">
  <advance width="502"/>
  <unicode hex="003A"/>
  <outline>
    <contour>
      <point x="343.36" y="755.569" type="line"/>
      <point x="162.412" y="755.569" type="line"/>
      <point x="162.412" y="938.282" type="line"/>
      <point x="343.36" y="938.282" type="line"/>
    </contour>
    <contour>
      <point x="343.36" y="0" type="line"/>
      <point x="162.412" y="0" type="line"/>
      <point x="162.412" y="180.948" type="line"/>
      <point x="343.36" y="180.948" type="line"/>
    </contour>
  </outline>
</glyph>
<glyph name="equal" format="2">
  <advance width="1056"/>
  <unicode hex="003D"/>
  <outline>
    <contour>
      <point x="954.171" y="760.865" type="line"/>
      <point x="101.508" y="760.865" type="line"/>
      <point x="101.508" y="909.154" type="line"/>
      <point x="954.171" y="909.154" type="line"/>
    </contour>
    <contour>
      <point x="954.171" y="368.958" type="line"/>
      <point x="101.508" y="368.958" type="line"/>
      <point x="101.508" y="517.247" type="line"/>
      <point x="954.171" y="517.247" type="line"/>
    </contour>
  </outline>
</glyph>
<glyph name="greater" format="2">
  <advance width="1056"/>
  <unicode hex="003E"/>
  <outline>
    <contour>
      <point x="955.936" y="565.794" type="line"/>
      <point x="99.7421" y="198.602" type="line"/>
      <point x="99.7421" y="358.366" type="line"/>
      <point x="777.636" y="639.939" type="line"/>
      <point x="99.7421" y="917.981" type="line"/>
      <point x="99.7421" y="1075.98" type="line"/>
      <point x="955.936" y="714.083" type="line"/>
    </contour>
  </outline>
</glyph>
<glyph name="at" format="2">
  <advance width="1835"/>
  <unicode hex="0040"/>
  <outline>
    <contour>
      <point x="1769.76" y="15.8881" type="line"/>
      <point x="1715.92" y="-93.5634"/>
      <point x="1592.34" y="-189.775" type="qcurve" smooth="yes"/>
      <point x="1483.77" y="-276.277"/>
      <point x="1355.79" y="-323.941" type="qcurve" smooth="yes"/>
      <point x="1203.97" y="-379.55"/>
      <point x="990.36" y="-379.55" type="qcurve" smooth="yes"/>
      <point x="579.917" y="-379.55"/>
      <point x="346.891" y="-179.183" type="qcurve" smooth="yes"/>
      <point x="97.9768" y="37.955"/>
      <point x="97.9768" y="413.974" type="qcurve" smooth="yes"/>
      <point x="97.9768" y="629.347"/>
      <point x="186.244" y="824.418" type="qcurve" smooth="yes"/>
      <point x="408.678" y="1317.83"/>
      <point x="972.707" y="1317.83" type="qcurve" smooth="yes"/>
      <point x="1189.84" y="1317.83"/>
      <point x="1357.55" y="1233.1" type="qcurve" smooth="yes"/>
      <point x="1540.27" y="1140.41"/>
      <point x="1641.77" y="962.115" type="qcurve" smooth="yes"/>
      <point x="1726.51" y="810.295"/>
      <point x="1726.51" y="629.347" type="qcurve" smooth="yes"/>
      <point x="1726.51" y="374.254"/>
      <point x="1545.56" y="175.652" type="qcurve" smooth="yes"/>
      <point x="1384.92" y="-3.53068"/>
      <point x="1195.14" y="-3.53068" type="qcurve" smooth="yes"/>
      <point x="1079.51" y="-3.53068"/>
      <point x="1041.56" y="68.8486" type="qcurve" smooth="yes"/>
      <point x="1030.08" y="90.0328"/>
      <point x="1024.78" y="144.759" type="qcurve"/>
      <point x="898.562" y="-1.76533"/>
      <point x="753.804" y="-1.76533" type="qcurve" smooth="yes"/>
      <point x="571.09" y="-1.76533"/>
      <point x="481.057" y="184.479" type="qcurve" smooth="yes"/>
      <point x="434.276" y="279.808"/>
      <point x="434.276" y="393.673" type="qcurve" smooth="yes"/>
      <point x="434.276" y="531.37"/>
      <point x="502.241" y="669.067" type="qcurve" smooth="yes"/>
      <point x="574.621" y="813.825"/>
      <point x="791.759" y="955.936"/>
      <point x="893.266" y="955.936" type="qcurve" smooth="yes"/>
      <point x="1059.21" y="955.936"/>
      <point x="1158.95" y="793.524" type="qcurve"/>
      <point x="1189.84" y="931.221" type="line"/>
      <point x="1346.96" y="931.221" type="line"/>
      <point x="1219.86" y="339.829" type="line" smooth="yes"/>
      <point x="1193.38" y="215.372"/>
      <point x="1193.38" y="202.132" type="qcurve" smooth="yes"/>
      <point x="1193.38" y="177.417"/>
      <point x="1231.33" y="144.759"/>
      <point x="1254.28" y="144.759" type="qcurve" smooth="yes"/>
      <point x="1301.94" y="144.759"/>
      <point x="1377.85" y="196.836" type="qcurve" smooth="yes"/>
      <point x="1478.48" y="269.216"/>
      <point x="1595.87" y="505.772"/>
      <point x="1595.87" y="632.877" type="qcurve" smooth="yes"/>
      <point x="1595.87" y="788.228"/>
      <point x="1436.99" y="1039.79"/>
      <point x="1295.77" y="1112.17" type="qcurve" smooth="yes"/>
      <point x="1145.71" y="1189.84"/>
      <point x="965.645" y="1189.84" type="qcurve" smooth="yes"/>
      <point x="757.334" y="1189.84"/>
      <point x="589.626" y="1093.63" type="qcurve" smooth="yes"/>
      <point x="415.739" y="995.656"/>
      <point x="227.73" y="634.643"/>
      <point x="227.73" y="428.097" type="qcurve" smooth="yes"/>
      <point x="227.73" y="218.903"/>
      <point x="315.997" y="67.0832" type="qcurve" smooth="yes"/>
      <point x="410.443" y="-97.9769"/>
      <point x="594.922" y="-175.652" type="qcurve" smooth="yes"/>
      <point x="771.457" y="-249.797"/>
      <point x="988.595" y="-249.797" type="qcurve" smooth="yes"/>
      <point x="1178.37" y="-249.797"/>
      <point x="1333.72" y="-189.775" type="qcurve" smooth="yes"/>
      <point x="1512.9" y="-120.926"/>
      <point x="1610.88" y="15.8881" type="qcurve"/>
    </contour>
    <contour>
      <point x="1107.76" y="572.855" type="line" smooth="yes"/>
      <point x="1107.76" y="676.128"/>
      <point x="1059.21" y="746.742" type="qcurve" smooth="yes"/>
      <point x="1003.6" y="826.183"/>
      <point x="903.858" y="826.183" type="qcurve" smooth="yes"/>
      <point x="789.993" y="826.183"/>
      <point x="701.726" y="705.257" type="qcurve" smooth="yes"/>
      <point x="598.453" y="564.029"/>
      <point x="598.453" y="383.08" type="qcurve" smooth="yes"/>
      <point x="598.453" y="285.986"/>
      <point x="641.704" y="213.607" type="qcurve" smooth="yes"/>
      <point x="693.782" y="127.988"/>
      <point x="786.463" y="127.988" type="qcurve" smooth="yes"/>
      <point x="895.031" y="127.988"/>
      <point x="995.656" y="246.266" type="qcurve" smooth="yes"/>
      <point x="1107.76" y="377.784"/>
      <point x="1107.76" y="572.855" type="qcurve" smooth="yes"/>
    </contour>
  </outline>
</glyph>
<glyph name="A" format="2">
  <advance width="1206"/>
  <unicode hex="0041"/>
  <outline>
    <contour>
      <point x="1207.5" y="0" type="line"/>
      <point x="1014.19" y="0" type="line"/>
      <point x="862.373" y="391.907" type="line"/>
      <point x="322.176" y="391.907" type="line"/>
      <point x="179.183" y="0" type="line"/>
      <point x="-1.76532" y="0" type="line"/>
      <point x="493.415" y="1294" type="line"/>
      <point x="677.894" y="1294" type="line"/>
    </contour>
    <contour>
      <point x="810.295" y="531.37" type="line"/>
      <point x="674.363" y="889.735" type="line" smooth="yes"/>
      <point x="610.81" y="1055.68"/>
      <point x="581.682" y="1158.95" type="qcurve"/>
      <point x="556.967" y="1028.32"/>
      <point x="513.716" y="910.92" type="qcurve" smooth="yes"/>
      <point x="370.723" y="531.37" type="line"/>
    </contour>
  </outline>
</glyph>
<glyph name="B" format="2">
  <advance width="1206"/>
  <unicode hex="0042"/>
  <outline>
    <contour>
      <point x="1109.52" y="376.019" type="line" smooth="yes"/>
      <point x="1109.52" y="186.244"/>
      <point x="976.237" y="84.7367" type="qcurve" smooth="yes"/>
      <point x="862.373" y="0"/>
      <point x="625.816" y="0" type="qcurve" smooth="yes"/>
      <point x="132.401" y="0" type="line"/>
      <point x="132.401" y="1294" type="line"/>
      <point x="617.872" y="1294" type="line" smooth="yes"/>
      <point x="896.797" y="1294"/>
      <point x="995.656" y="1133.35" type="qcurve" smooth="yes"/>
      <point x="1046.85" y="1052.15"/>
      <point x="1046.85" y="963.88" type="qcurve" smooth="yes"/>
      <point x="1046.85" y="777.636"/>
      <point x="865.903" y="688.486" type="qcurve"/>
      <point x="979.768" y="654.061"/>
      <point x="1109.52" y="491.649"/>
      <point x="1109.52" y="376.019" type="qcurve" smooth="yes"/>
    </contour>
    <contour>
      <point x="878.261" y="941.813" type="line" smooth="yes"/>
      <point x="878.261" y="1086.57"/>
      <point x="759.1" y="1122.76" type="qcurve" smooth="yes"/>
      <point x="701.726" y="1140.41"/>
      <point x="562.263" y="1140.41" type="qcurve" smooth="yes"/>
      <point x="303.64" y="1140.41" type="line"/>
      <point x="303.64" y="750.273" type="line"/>
      <point x="584.33" y="750.273" type="line" smooth="yes"/>
      <point x="695.547" y="750.273"/>
      <point x="746.742" y="764.396" type="qcurve" smooth="yes"/>
      <point x="878.261" y="804.116"/>
      <point x="878.261" y="941.813" type="qcurve" smooth="yes"/>
    </contour>
    <contour>
      <point x="932.986" y="376.019" type="line" smooth="yes"/>
      <point x="932.986" y="529.604"/>
      <point x="791.759" y="576.386" type="qcurve" smooth="yes"/>
      <point x="726.441" y="598.453"/>
      <point x="601.984" y="598.453" type="qcurve" smooth="yes"/>
      <point x="303.64" y="598.453" type="line"/>
      <point x="303.64" y="151.82" type="line"/>
      <point x="625.816" y="151.82" type="line" smooth="yes"/>
      <point x="708.787" y="151.82"/>
      <point x="743.211" y="158.881" type="qcurve" smooth="yes"/>
      <point x="860.607" y="180.948"/>
      <point x="905.623" y="265.685" type="qcurve"/>
      <point x="932.986" y="312.467"/>
      <point x="932.986" y="376.019" type="qcurve" smooth="yes"/>
    </contour>
  </outline>
</glyph>
<glyph name="C" format="2">
  <advance width="1305"/>
  <unicode hex="0043"/>
  <outline>
    <contour>
      <point x="1234.86" y="410.443" type="line"/>
      <point x="1181.9" y="205.663"/>
      <point x="907.389" y="-22.0668"/>
      <point x="698.195" y="-22.0668" type="qcurve" smooth="yes"/>
      <point x="298.344" y="-22.0668"/>
      <point x="158.881" y="308.936" type="qcurve" smooth="yes"/>
      <point x="90.0328" y="472.231"/>
      <point x="90.0328" y="655.827" type="qcurve" smooth="yes"/>
      <point x="90.0328" y="1075.98"/>
      <point x="386.611" y="1238.39" type="qcurve" smooth="yes"/>
      <point x="529.604" y="1316.07"/>
      <point x="701.726" y="1316.07" type="qcurve" smooth="yes"/>
      <point x="893.266" y="1316.07"/>
      <point x="1158.95" y="1121"/>
      <point x="1211.03" y="940.048" type="qcurve"/>
      <point x="1043.32" y="900.328" type="line"/>
      <point x="957.701" y="1169.54"/>
      <point x="698.195" y="1169.54" type="qcurve" smooth="yes"/>
      <point x="556.967" y="1169.54"/>
      <point x="457.225" y="1104.23" type="qcurve" smooth="yes"/>
      <point x="350.422" y="1036.26"/>
      <point x="307.171" y="905.624" type="qcurve" smooth="yes"/>
      <point x="265.685" y="786.463"/>
      <point x="265.685" y="657.592" type="qcurve" smooth="yes"/>
      <point x="265.685" y="303.64"/>
      <point x="464.287" y="186.244" type="qcurve" smooth="yes"/>
      <point x="565.794" y="124.457"/>
      <point x="683.19" y="124.457" type="qcurve" smooth="yes"/>
      <point x="992.126" y="124.457"/>
      <point x="1062.74" y="453.694" type="qcurve"/>
    </contour>
  </outline>
</glyph>
<glyph name="D" format="2">
  <advance width="1305"/>
  <unicode hex="0044"/>
  <outline>
    <contour>
      <point x="1209.26" y="654.061" type="line" smooth="yes"/>
      <point x="1209.26" y="374.254"/>
      <point x="1086.57" y="203.898" type="qcurve" smooth="yes"/>
      <point x="985.064" y="63.5526"/>
      <point x="813.825" y="22.0669" type="qcurve" smooth="yes"/>
      <point x="722.91" y="0"/>
      <point x="605.514" y="0" type="qcurve" smooth="yes"/>
      <point x="139.463" y="0" type="line"/>
      <point x="139.463" y="1294" type="line"/>
      <point x="586.096" y="1294" type="line" smooth="yes"/>
      <point x="736.15" y="1294"/>
      <point x="815.591" y="1276.35" type="qcurve" smooth="yes"/>
      <point x="1060.97" y="1218.09"/>
      <point x="1158.95" y="962.115" type="qcurve" smooth="yes"/>
      <point x="1209.26" y="827.948"/>
      <point x="1209.26" y="654.061" type="qcurve" smooth="yes"/>
    </contour>
    <contour>
      <point x="1031.85" y="655.827" type="line" smooth="yes"/>
      <point x="1031.85" y="1026.55"/>
      <point x="804.116" y="1115.7" type="qcurve" smooth="yes"/>
      <point x="736.15" y="1140.41"/>
      <point x="581.682" y="1140.41" type="qcurve" smooth="yes"/>
      <point x="310.701" y="1140.41" type="line"/>
      <point x="310.701" y="151.82" type="line"/>
      <point x="587.861" y="151.82" type="line" smooth="yes"/>
      <point x="813.825" y="151.82"/>
      <point x="903.858" y="243.618" type="qcurve" smooth="yes"/>
      <point x="1031.85" y="372.488"/>
      <point x="1031.85" y="655.827" type="qcurve" smooth="yes"/>
    </contour>
  </outline>
</glyph>
<glyph name="E" format="2">
  <advance width="1206"/>
  <unicode hex="0045"/>
  <outline>
    <contour>
      <point x="1107.76" y="0" type="line"/>
      <point x="142.993" y="0" type="line"/>
      <point x="142.993" y="1294" type="line"/>
      <point x="1079.51" y="1294" type="line"/>
      <point x="1079.51" y="1140.41" type="line"/>
      <point x="314.232" y="1140.41" type="line"/>
      <point x="314.232" y="744.977" type="line"/>
      <point x="1030.08" y="744.977" type="line"/>
      <point x="1030.08" y="593.157" type="line"/>
      <point x="314.232" y="593.157" type="line"/>
      <point x="314.232" y="151.82" type="line"/>
      <point x="1107.76" y="151.82" type="line"/>
    </contour>
  </outline>
</glyph>
<glyph name="H" format="2">
  <advance width="1305"/>
  <unicode hex="0048"/>
  <outline>
    <contour>
      <point x="1160.72" y="0" type="line"/>
      <point x="988.595" y="0" type="line"/>
      <point x="988.595" y="609.045" type="line"/>
      <point x="315.997" y="609.045" type="line"/>
      <point x="315.997" y="0" type="line"/>
      <point x="144.759" y="0" type="line"/>
      <point x="144.759" y="1294" type="line"/>
      <point x="315.997" y="1294" type="line"/>
      <point x="315.997" y="762.63" type="line"/>
      <point x="988.595" y="762.63" type="line"/>
      <point x="988.595" y="1294" type="line"/>
      <point x="1160.72" y="1294" type="line"/>
    </contour>
  </outline>
</glyph>
<glyph name="I" format="2">
  <advance width="502"/>
  <unicode hex="0049"/>
  <outline>
    <contour>
      <point x="339.829" y="0" type="line"/>
      <point x="167.708" y="0" type="line"/>
      <point x="167.708" y="1294" type="line"/>
      <point x="339.829" y="1294" type="line"/>
    </contour>
  </outline>
</glyph>
<glyph name="L" format="2">
  <advance width="1005"/>
  <unicode hex="004C"/>
  <outline>
    <contour>
      <point x="941.813" y="0" type="line"/>
      <point x="132.401" y="0" type="line"/>
      <point x="132.401" y="1294" type="line"/>
      <point x="303.64" y="1294" type="line"/>
      <point x="303.64" y="151.82" type="line"/>
      <point x="941.813" y="151.82" type="line"/>
    </contour>
  </outline>
</glyph>
<glyph name="M" format="2">
  <advance width="1506"/>
  <unicode hex="004D"/>
  <outline>
    <contour>
      <point x="1368.14" y="0" type="line"/>
      <point x="1203.97" y="0" type="line"/>
      <point x="1203.97" y="1083.04" type="line"/>
      <point x="827.948" y="0" type="line"/>
      <point x="674.363" y="0" type="line"/>
      <point x="300.109" y="1100.69" type="line"/>
      <point x="300.109" y="0" type="line"/>
      <point x="134.166" y="0" type="line"/>
      <point x="134.166" y="1294" type="line"/>
      <point x="391.907" y="1294" type="line"/>
      <point x="698.195" y="377.784" type="line" smooth="yes"/>
      <point x="736.15" y="263.919"/>
      <point x="759.1" y="186.244" type="qcurve"/>
      <point x="784.697" y="265.685"/>
      <point x="827.948" y="393.673" type="qcurve" smooth="yes"/>
      <point x="1138.65" y="1294" type="line"/>
      <point x="1368.14" y="1294" type="line"/>
    </contour>
  </outline>
</glyph>
<glyph name="O" format="2">
  <advance width="1406"/>
  <unicode hex="004F"/>
  <outline>
    <contour>
      <point x="1324.89" y="645.235" type="line" smooth="yes"/>
      <point x="1324.89" y="457.225"/>
      <point x="1252.51" y="307.171" type="qcurve" smooth="yes"/>
      <point x="1173.07" y="141.228"/>
      <point x="1019.49" y="58.2565" type="qcurve" smooth="yes"/>
      <point x="874.73" y="-22.0669"/>
      <point x="707.022" y="-22.0669" type="qcurve" smooth="yes"/>
      <point x="527.839" y="-22.0669"/>
      <point x="238.322" y="150.055"/>
      <point x="160.647" y="307.171" type="qcurve" smooth="yes"/>
      <point x="86.5021" y="458.99"/>
      <point x="86.5021" y="631.112" type="qcurve" smooth="yes"/>
      <point x="86.5021" y="931.221"/>
      <point x="243.618" y="1117.47" type="qcurve" smooth="yes"/>
      <point x="412.209" y="1317.83"/>
      <point x="707.022" y="1317.83" type="qcurve" smooth="yes"/>
      <point x="883.557" y="1317.83"/>
      <point x="1173.07" y="1147.48"/>
      <point x="1324.89" y="838.54"/>
      <point x="1324.89" y="645.235" type="qcurve" smooth="yes"/>
    </contour>
    <contour>
      <point x="1147.48" y="645.235" type="line" smooth="yes"/>
      <point x="1147.48" y="972.707"/>
      <point x="938.282" y="1104.23" type="qcurve" smooth="yes"/>
      <point x="835.01" y="1169.54"/>
      <point x="708.787" y="1169.54" type="qcurve" smooth="yes"/>
      <point x="479.292" y="1169.54"/>
      <point x="365.427" y="1007.13" type="qcurve" smooth="yes"/>
      <point x="263.92" y="865.903"/>
      <point x="263.92" y="627.581" type="qcurve" smooth="yes"/>
      <point x="263.92" y="413.974"/>
      <point x="376.019" y="274.512" type="qcurve" smooth="yes"/>
      <point x="496.945" y="124.457"/>
      <point x="705.257" y="124.457" type="qcurve" smooth="yes"/>
      <point x="921.512" y="124.457"/>
      <point x="1041.56" y="279.808" type="qcurve" smooth="yes"/>
      <point x="1147.48" y="422.801"/>
      <point x="1147.48" y="645.235" type="qcurve" smooth="yes"/>
    </contour>
  </outline>
</glyph>
<glyph name="P" format="2">
  <advance width="1206"/>
  <unicode hex="0050"/>
  <outline>
    <contour>
      <point x="1128.06" y="919.746" type="line" smooth="yes"/>
      <point x="1128.06" y="526.074"/>
      <point x="641.704" y="526.074" type="qcurve" smooth="yes"/>
      <point x="310.701" y="526.074" type="line"/>
      <point x="310.701" y="0" type="line"/>
      <point x="139.463" y="0" type="line"/>
      <point x="139.463" y="1294" type="line"/>
      <point x="627.581" y="1294" type="line" smooth="yes"/>
      <point x="753.804" y="1294"/>
      <point x="824.418" y="1281.64" type="qcurve" smooth="yes"/>
      <point x="1012.43" y="1248.98"/>
      <point x="1088.34" y="1095.4" type="qcurve" smooth="yes"/>
      <point x="1128.06" y="1015.96"/>
      <point x="1128.06" y="919.746" type="qcurve" smooth="yes"/>
    </contour>
    <contour>
      <point x="950.64" y="914.45" type="line" smooth="yes"/>
      <point x="950.64" y="990.36"/>
      <point x="872.965" y="1109.52"/>
      <point x="800.585" y="1129.82" type="qcurve" smooth="yes"/>
      <point x="759.1" y="1140.41"/>
      <point x="641.704" y="1140.41" type="qcurve" smooth="yes"/>
      <point x="310.701" y="1140.41" type="line"/>
      <point x="310.701" y="677.894" type="line"/>
      <point x="645.235" y="677.894" type="line" smooth="yes"/>
      <point x="950.64" y="677.894"/>
      <point x="950.64" y="914.45" type="qcurve" smooth="yes"/>
    </contour>
  </outline>
</glyph>
<glyph name="Q" format="2">
  <advance width="1406"/>
  <unicode hex="0051"/>
  <outline>
    <contour>
      <point x="1339.9" y="17.6535" type="line"/>
      <point x="1288.7" y="-101.508" type="line"/>
      <point x="1150.12" y="-50.3124"/>
      <point x="1012.43" y="58.2565" type="qcurve"/>
      <point x="867.669" y="-22.0668"/>
      <point x="693.782" y="-22.0668" type="qcurve" smooth="yes"/>
      <point x="519.012" y="-22.0668"/>
      <point x="233.026" y="146.524"/>
      <point x="77.6753" y="453.694"/>
      <point x="77.6753" y="647" type="qcurve" smooth="yes"/>
      <point x="77.6753" y="831.479"/>
      <point x="148.289" y="983.299" type="qcurve" smooth="yes"/>
      <point x="227.73" y="1150.12"/>
      <point x="520.778" y="1317.83"/>
      <point x="698.195" y="1317.83" type="qcurve" smooth="yes"/>
      <point x="874.73" y="1317.83"/>
      <point x="1162.48" y="1150.12"/>
      <point x="1316.07" y="840.306"/>
      <point x="1316.07" y="647" type="qcurve" smooth="yes"/>
      <point x="1316.07" y="327.472"/>
      <point x="1121" y="139.462" type="qcurve"/>
      <point x="1240.16" y="55.6084"/>
      <point x="1339.9" y="17.6535" type="qcurve"/>
    </contour>
    <contour>
      <point x="1138.65" y="647" type="line" smooth="yes"/>
      <point x="1138.65" y="972.707"/>
      <point x="929.456" y="1104.23" type="qcurve" smooth="yes"/>
      <point x="826.183" y="1169.54"/>
      <point x="698.195" y="1169.54" type="qcurve" smooth="yes"/>
      <point x="477.527" y="1169.54"/>
      <point x="360.131" y="1014.19" type="qcurve" smooth="yes"/>
      <point x="255.093" y="874.73"/>
      <point x="255.093" y="647" type="qcurve" smooth="yes"/>
      <point x="255.093" y="421.035"/>
      <point x="361.896" y="279.808" type="qcurve" smooth="yes"/>
      <point x="479.292" y="124.457"/>
      <point x="698.195" y="124.457" type="qcurve" smooth="yes"/>
      <point x="789.993" y="124.457"/>
      <point x="871.199" y="158.881" type="qcurve"/>
      <point x="789.993" y="211.842"/>
      <point x="701.726" y="233.026" type="qcurve"/>
      <point x="743.211" y="358.366" type="line"/>
      <point x="891.501" y="315.997"/>
      <point x="986.829" y="233.026" type="qcurve"/>
      <point x="1138.65" y="372.488"/>
      <point x="1138.65" y="647" type="qcurve" smooth="yes"/>
    </contour>
  </outline>
</glyph>
<glyph name="T" format="2">
  <advance width="1104"/>
  <unicode hex="0054"/>
  <outline>
    <contour>
      <point x="1068.04" y="1140.41" type="line"/>
      <point x="639.939" y="1140.41" type="line"/>
      <point x="639.939" y="0" type="line"/>
      <point x="467.817" y="0" type="line"/>
      <point x="467.817" y="1140.41" type="line"/>
      <point x="41.4857" y="1140.41" type="line"/>
      <point x="41.4857" y="1294" type="line"/>
      <point x="1068.04" y="1294" type="line"/>
    </contour>
  </outline>
</glyph>
<glyph name="W" format="2">
  <advance width="1706"/>
  <unicode hex="0057"/>
  <outline>
    <contour>
      <point x="1686.79" y="1294" type="line"/>
      <point x="1330.19" y="0" type="line"/>
      <point x="1166.01" y="0" type="line"/>
      <point x="893.266" y="985.064" type="line" smooth="yes"/>
      <point x="858.842" y="1113.93"/>
      <point x="853.546" y="1136.88" type="qcurve"/>
      <point x="833.244" y="1052.15"/>
      <point x="815.591" y="985.064" type="qcurve" smooth="yes"/>
      <point x="540.197" y="0" type="line"/>
      <point x="365.427" y="0" type="line"/>
      <point x="22.0669" y="1294" type="line"/>
      <point x="196.836" y="1294" type="line"/>
      <point x="393.673" y="446.633" type="line" smooth="yes"/>
      <point x="428.097" y="298.344"/>
      <point x="450.164" y="180.948" type="qcurve"/>
      <point x="507.538" y="419.27" type="line"/>
      <point x="753.804" y="1294" type="line"/>
      <point x="959.467" y="1294" type="line"/>
      <point x="1145.71" y="639.939" type="line" smooth="yes"/>
      <point x="1216.32" y="390.142"/>
      <point x="1245.45" y="180.948" type="qcurve"/>
      <point x="1267.52" y="281.573"/>
      <point x="1310.77" y="462.521" type="qcurve" smooth="yes"/>
      <point x="1512.9" y="1294" type="line"/>
    </contour>
  </outline>
</glyph>
<glyph name="bracketleft" format="2">
  <advance width="502"/>
  <unicode hex="005B"/>
  <outline>
    <contour>
      <point x="473.996" y="-360.131" type="line"/>
      <point x="122.692" y="-360.131" type="line"/>
      <point x="122.692" y="1294" type="line"/>
      <point x="473.996" y="1294" type="line"/>
      <point x="473.996" y="1162.48" type="line"/>
      <point x="281.573" y="1162.48" type="line"/>
      <point x="281.573" y="-227.73" type="line"/>
      <point x="473.996" y="-227.73" type="line"/>
    </contour>
  </outline>
</glyph>
<glyph name="backslash" format="2">
  <advance width="502"/>
  <unicode hex="005C"/>
  <outline>
    <contour>
      <point x="502.242" y="-22.0669" type="line"/>
      <point x="376.019" y="-22.0669" type="line"/>
      <point x="0" y="1316.07" type="line"/>
      <point x="127.988" y="1316.07" type="line"/>
    </contour>
  </outline>
</glyph>
<glyph name="underscore" format="2">
  <advance width="1005"/>
  <unicode hex="005F"/>
  <outline>
    <contour>
      <point x="1024.78" y="-360.131" type="line"/>
      <point x="-27.3629" y="-360.131" type="line"/>
      <point x="-27.3629" y="-243.618" type="line"/>
      <point x="1024.78" y="-243.618" type="line"/>
    </contour>
  </outline>
</glyph>
<glyph name="d" format="2">
  <advance width="1005"/>
  <unicode hex="0064"/>
  <outline>
    <contour>
      <point x="874.73" y="0" type="line"/>
      <point x="726.441" y="0" type="line"/>
      <point x="726.441" y="117.396" type="line"/>
      <point x="638.173" y="-22.0668"/>
      <point x="464.287" y="-22.0668" type="qcurve" smooth="yes"/>
      <point x="348.656" y="-22.0668"/>
      <point x="162.412" y="105.038"/>
      <point x="61.7872" y="323.941"/>
      <point x="61.7872" y="467.817" type="qcurve" smooth="yes"/>
      <point x="61.7872" y="775.87"/>
      <point x="249.797" y="898.562" type="qcurve" smooth="yes"/>
      <point x="341.595" y="957.701"/>
      <point x="457.225" y="957.701" type="qcurve" smooth="yes"/>
      <point x="624.05" y="957.701"/>
      <point x="715.849" y="829.714" type="qcurve"/>
      <point x="715.849" y="1294" type="line"/>
      <point x="874.73" y="1294" type="line"/>
    </contour>
    <contour>
      <point x="729.971" y="453.694" type="line" smooth="yes"/>
      <point x="729.971" y="605.514"/>
      <point x="677.894" y="703.491" type="qcurve" smooth="yes"/>
      <point x="610.81" y="827.948"/>
      <point x="473.996" y="827.948" type="qcurve" smooth="yes"/>
      <point x="339.829" y="827.948"/>
      <point x="274.512" y="707.022" type="qcurve" smooth="yes"/>
      <point x="225.965" y="614.341"/>
      <point x="225.965" y="467.817" type="qcurve" smooth="yes"/>
      <point x="225.965" y="325.707"/>
      <point x="279.808" y="229.495" type="qcurve" smooth="yes"/>
      <point x="348.656" y="110.334"/>
      <point x="481.057" y="110.334" type="qcurve" smooth="yes"/>
      <point x="610.81" y="110.334"/>
      <point x="676.128" y="222.434" type="qcurve" smooth="yes"/>
      <point x="729.971" y="314.232"/>
      <point x="729.971" y="453.694" type="qcurve" smooth="yes"/>
    </contour>
  </outline>
</glyph>
<glyph name="f" format="2">
  <advance width="502"/>
  <unicode hex="0066"/>
  <outline>
    <contour>
      <point x="565.794" y="1300.18" type="line"/>
      <point x="540.196" y="1162.48" type="line"/>
      <point x="491.649" y="1169.54"/>
      <point x="448.398" y="1169.54" type="qcurve" smooth="yes"/>
      <point x="370.723" y="1169.54"/>
      <point x="314.232" y="1102.46"/>
      <point x="314.232" y="1023.02" type="qcurve" smooth="yes"/>
      <point x="314.232" y="938.282" type="line"/>
      <point x="496.945" y="938.282" type="line"/>
      <point x="496.945" y="813.825" type="line"/>
      <point x="314.232" y="813.825" type="line"/>
      <point x="314.232" y="0" type="line"/>
      <point x="157.116" y="0" type="line"/>
      <point x="157.116" y="813.825" type="line"/>
      <point x="15.8881" y="813.825" type="line"/>
      <point x="15.8881" y="938.282" type="line"/>
      <point x="157.116" y="938.282" type="line"/>
      <point x="157.116" y="1038.02" type="line" smooth="yes"/>
      <point x="157.116" y="1126.29"/>
      <point x="172.121" y="1171.31" type="qcurve" smooth="yes"/>
      <point x="193.306" y="1236.63"/>
      <point x="312.467" y="1316.07"/>
      <point x="415.739" y="1316.07" type="qcurve" smooth="yes"/>
      <point x="484.588" y="1316.07"/>
      <point x="565.794" y="1300.18" type="qcurve"/>
    </contour>
  </outline>
</glyph>
<glyph name="g" format="2">
  <advance width="1005"/>
  <unicode hex="0067"/>
  <outline>
    <contour>
      <point x="883.557" y="126.222" type="line" smooth="yes"/>
      <point x="883.557" y="-48.5471"/>
      <point x="858.842" y="-132.401" type="qcurve" smooth="yes"/>
      <point x="819.122" y="-262.154"/>
      <point x="698.195" y="-327.472" type="qcurve" smooth="yes"/>
      <point x="601.984" y="-379.55"/>
      <point x="460.756" y="-379.55" type="qcurve" smooth="yes"/>
      <point x="296.578" y="-379.55"/>
      <point x="200.367" y="-312.467" type="qcurve" smooth="yes"/>
      <point x="86.5021" y="-233.026"/>
      <point x="90.0328" y="-77.6753" type="qcurve"/>
      <point x="243.618" y="-101.508" type="line"/>
      <point x="263.92" y="-249.797"/>
      <point x="458.991" y="-249.797" type="qcurve" smooth="yes"/>
      <point x="667.302" y="-249.797"/>
      <point x="712.318" y="-81.206" type="qcurve"/>
      <point x="722.91" y="-34.4243"/>
      <point x="722.91" y="122.692" type="qcurve"/>
      <point x="617.872" y="0"/>
      <point x="462.521" y="0" type="qcurve" smooth="yes"/>
      <point x="270.981" y="0"/>
      <point x="158.881" y="144.759" type="qcurve" smooth="yes"/>
      <point x="58.2565" y="274.512"/>
      <point x="58.2565" y="473.996" type="qcurve" smooth="yes"/>
      <point x="58.2565" y="769.692"/>
      <point x="248.031" y="896.797" type="qcurve" smooth="yes"/>
      <point x="339.83" y="957.701"/>
      <point x="464.287" y="957.701" type="qcurve" smooth="yes"/>
      <point x="631.112" y="957.701"/>
      <point x="737.915" y="824.418" type="qcurve"/>
      <point x="737.915" y="938.282" type="line"/>
      <point x="883.557" y="938.282" type="line"/>
    </contour>
    <contour>
      <point x="736.15" y="481.057" type="line" smooth="yes"/>
      <point x="736.15" y="619.637"/>
      <point x="677.894" y="714.083" type="qcurve" smooth="yes"/>
      <point x="607.28" y="827.948"/>
      <point x="475.761" y="827.948" type="qcurve" smooth="yes"/>
      <point x="345.126" y="827.948"/>
      <point x="278.042" y="715.849" type="qcurve" smooth="yes"/>
      <point x="222.434" y="624.051"/>
      <point x="222.434" y="486.353" type="qcurve" smooth="yes"/>
      <point x="222.434" y="338.064"/>
      <point x="274.512" y="246.266" type="qcurve" smooth="yes"/>
      <point x="341.595" y="132.401"/>
      <point x="479.292" y="132.401" type="qcurve" smooth="yes"/>
      <point x="614.341" y="132.401"/>
      <point x="681.424" y="243.618" type="qcurve" smooth="yes"/>
      <point x="736.15" y="334.533"/>
      <point x="736.15" y="481.057" type="qcurve" smooth="yes"/>
    </contour>
  </outline>
</glyph>
<glyph name="h" format="2">
  <advance width="1005"/>
  <unicode hex="0068"/>
  <outline>
    <contour>
      <point x="881.791" y="0" type="line"/>
      <point x="722.91" y="0" type="line"/>
      <point x="722.91" y="594.922" type="line" smooth="yes"/>
      <point x="722.91" y="822.652"/>
      <point x="526.074" y="822.652" type="qcurve" smooth="yes"/>
      <point x="455.46" y="822.652"/>
      <point x="331.003" y="748.508"/>
      <point x="278.042" y="624.051"/>
      <point x="278.042" y="513.716" type="qcurve" smooth="yes"/>
      <point x="278.042" y="0" type="line"/>
      <point x="119.161" y="0" type="line"/>
      <point x="119.161" y="1294" type="line"/>
      <point x="278.042" y="1294" type="line"/>
      <point x="278.042" y="829.713" type="line"/>
      <point x="388.377" y="957.701"/>
      <point x="558.733" y="957.701" type="qcurve" smooth="yes"/>
      <point x="779.401" y="957.701"/>
      <point x="850.015" y="804.116" type="qcurve" smooth="yes"/>
      <point x="881.791" y="731.737"/>
      <point x="881.791" y="594.922" type="qcurve" smooth="yes"/>
    </contour>
  </outline>
</glyph>
<glyph name="i" format="2">
  <advance width="402"/>
  <unicode hex="0069"/>
  <outline>
    <contour>
      <point x="278.042" y="1112.17" type="line"/>
      <point x="119.161" y="1112.17" type="line"/>
      <point x="119.161" y="1294" type="line"/>
      <point x="278.042" y="1294" type="line"/>
    </contour>
    <contour>
      <point x="278.042" y="0" type="line"/>
      <point x="119.161" y="0" type="line"/>
      <point x="119.161" y="938.282" type="line"/>
      <point x="278.042" y="938.282" type="line"/>
    </contour>
  </outline>
</glyph>
<glyph name="n" format="2">
  <advance width="1005"/>
  <unicode hex="006E"/>
  <outline>
    <contour>
      <point x="880.026" y="0" type="line"/>
      <point x="721.145" y="0" type="line"/>
      <point x="721.145" y="569.325" type="line" smooth="yes"/>
      <point x="721.145" y="741.446"/>
      <point x="638.173" y="791.759" type="qcurve" smooth="yes"/>
      <point x="591.392" y="820.887"/>
      <point x="527.839" y="820.887" type="qcurve" smooth="yes"/>
      <point x="278.042" y="820.887"/>
      <point x="278.042" y="511.951" type="qcurve" smooth="yes"/>
      <point x="278.042" y="0" type="line"/>
      <point x="119.161" y="0" type="line"/>
      <point x="119.161" y="938.282" type="line"/>
      <point x="262.154" y="938.282" type="line"/>
      <point x="262.154" y="804.116" type="line"/>
      <point x="365.427" y="957.701"/>
      <point x="560.498" y="957.701" type="qcurve" smooth="yes"/>
      <point x="743.212" y="957.701"/>
      <point x="822.652" y="848.25" type="qcurve" smooth="yes"/>
      <point x="858.842" y="798.82"/>
      <point x="871.199" y="729.971" type="qcurve" smooth="yes"/>
      <point x="880.026" y="686.72"/>
      <point x="880.026" y="576.386" type="qcurve" smooth="yes"/>
    </contour>
  </outline>
</glyph>
<glyph name="o" format="2">
  <advance width="1005"/>
  <unicode hex="006F"/>
  <outline>
    <contour>
      <point x="938.282" y="482.823" type="line" smooth="yes"/>
      <point x="938.282" y="153.585"/>
      <point x="726.441" y="36.1897" type="qcurve" smooth="yes"/>
      <point x="622.285" y="-22.0668"/>
      <point x="498.711" y="-22.0668" type="qcurve" smooth="yes"/>
      <point x="285.986" y="-22.0668"/>
      <point x="167.708" y="119.161" type="qcurve" smooth="yes"/>
      <point x="60.0218" y="249.797"/>
      <point x="60.0218" y="467.817" type="qcurve" smooth="yes"/>
      <point x="60.0218" y="686.72"/>
      <point x="170.356" y="819.121" type="qcurve" smooth="yes"/>
      <point x="285.986" y="957.701"/>
      <point x="498.711" y="957.701" type="qcurve" smooth="yes"/>
      <point x="707.022" y="957.701"/>
      <point x="826.183" y="822.652" type="qcurve" smooth="yes"/>
      <point x="938.282" y="692.016"/>
      <point x="938.282" y="482.823" type="qcurve" smooth="yes"/>
    </contour>
    <contour>
      <point x="775.87" y="473.996" type="line" smooth="yes"/>
      <point x="775.87" y="619.637"/>
      <point x="712.318" y="715.849" type="qcurve" smooth="yes"/>
      <point x="638.173" y="827.948"/>
      <point x="498.711" y="827.948" type="qcurve" smooth="yes"/>
      <point x="358.366" y="827.948"/>
      <point x="284.221" y="714.083" type="qcurve" smooth="yes"/>
      <point x="224.199" y="619.637"/>
      <point x="224.199" y="467.817" type="qcurve" smooth="yes"/>
      <point x="224.199" y="317.763"/>
      <point x="284.221" y="222.434" type="qcurve"/>
      <point x="358.366" y="110.334"/>
      <point x="498.711" y="110.334" type="qcurve" smooth="yes"/>
      <point x="643.469" y="110.334"/>
      <point x="715.849" y="225.965" type="qcurve" smooth="yes"/>
      <point x="775.87" y="322.176"/>
      <point x="775.87" y="473.996" type="qcurve" smooth="yes"/>
    </contour>
  </outline>
</glyph>
<glyph name="r" format="2">
  <advance width="602"/>
  <unicode hex="0072"/>
  <outline>
    <contour>
      <point x="627.581" y="907.389" type="line"/>
      <point x="571.09" y="759.1" type="line"/>
      <point x="513.716" y="793.524"/>
      <point x="455.46" y="793.524" type="qcurve" smooth="yes"/>
      <point x="339.83" y="793.524"/>
      <point x="301.875" y="676.128" type="qcurve"/>
      <point x="276.277" y="591.392"/>
      <point x="276.277" y="489.884" type="qcurve" smooth="yes"/>
      <point x="276.277" y="0" type="line"/>
      <point x="117.396" y="0" type="line"/>
      <point x="117.396" y="938.282" type="line"/>
      <point x="260.389" y="938.282" type="line"/>
      <point x="260.389" y="795.289" type="line"/>
      <point x="350.422" y="957.701"/>
      <point x="462.521" y="957.701" type="qcurve" smooth="yes"/>
      <point x="543.727" y="957.701"/>
      <point x="627.581" y="907.389" type="qcurve"/>
    </contour>
  </outline>
</glyph>
<glyph name="s" format="2">
  <advance width="904"/>
  <unicode hex="0073"/>
  <outline>
    <contour>
      <point x="833.244" y="274.512" type="line" smooth="yes"/>
      <point x="833.244" y="96.2115"/>
      <point x="654.061" y="17.6535" type="qcurve" smooth="yes"/>
      <point x="565.794" y="-22.0668"/>
      <point x="455.46" y="-22.0668" type="qcurve" smooth="yes"/>
      <point x="108.569" y="-22.0668"/>
      <point x="55.6085" y="279.808" type="qcurve"/>
      <point x="213.607" y="303.64" type="line"/>
      <point x="240.087" y="110.334"/>
      <point x="455.46" y="110.334" type="qcurve" smooth="yes"/>
      <point x="540.196" y="110.334"/>
      <point x="598.453" y="141.228" type="qcurve" smooth="yes"/>
      <point x="670.832" y="180.948"/>
      <point x="670.832" y="258.624" type="qcurve" smooth="yes"/>
      <point x="670.832" y="312.467"/>
      <point x="624.051" y="343.36" type="qcurve"/>
      <point x="593.157" y="365.427"/>
      <point x="460.756" y="398.086" type="qcurve" smooth="yes"/>
      <point x="314.232" y="434.276"/>
      <point x="272.746" y="450.164" type="qcurve" smooth="yes"/>
      <point x="158.881" y="493.415"/>
      <point x="117.396" y="562.263" type="qcurve" smooth="yes"/>
      <point x="81.206" y="619.637"/>
      <point x="81.206" y="688.486" type="qcurve" smooth="yes"/>
      <point x="81.206" y="815.591"/>
      <point x="188.01" y="893.266" type="qcurve" smooth="yes"/>
      <point x="278.042" y="957.701"/>
      <point x="426.332" y="957.701" type="qcurve" smooth="yes"/>
      <point x="657.592" y="957.701"/>
      <point x="744.977" y="840.306" type="qcurve" smooth="yes"/>
      <point x="784.697" y="786.463"/>
      <point x="798.82" y="695.547" type="qcurve"/>
      <point x="643.469" y="674.363" type="line"/>
      <point x="622.285" y="827.948"/>
      <point x="439.572" y="827.948" type="qcurve" smooth="yes"/>
      <point x="234.791" y="827.948"/>
      <point x="234.791" y="707.022" type="qcurve" smooth="yes"/>
      <point x="234.791" y="639.939"/>
      <point x="315.997" y="609.045" type="qcurve"/>
      <point x="338.064" y="600.218"/>
      <point x="455.46" y="567.559" type="qcurve" smooth="yes"/>
      <point x="612.576" y="526.074"/>
      <point x="641.704" y="515.482" type="qcurve" smooth="yes"/>
      <point x="752.038" y="473.996"/>
      <point x="795.289" y="412.209" type="qcurve" smooth="yes"/>
      <point x="833.244" y="355.718"/>
      <point x="833.244" y="274.512" type="qcurve" smooth="yes"/>
    </contour>
  </outline>
</glyph>
<glyph name="t" format="2">
  <advance width="502"/>
  <unicode hex="0074"/>
  <outline>
    <contour>
      <point x="489.884" y="1.7653" type="line"/>
      <point x="421.035" y="-12.3575"/>
      <point x="368.958" y="-12.3575" type="qcurve" smooth="yes"/>
      <point x="211.842" y="-12.3575"/>
      <point x="167.708" y="86.502" type="qcurve" smooth="yes"/>
      <point x="148.289" y="132.401"/>
      <point x="148.289" y="274.512" type="qcurve" smooth="yes"/>
      <point x="148.289" y="813.825" type="line"/>
      <point x="32.6589" y="813.825" type="line"/>
      <point x="32.6589" y="938.282" type="line"/>
      <point x="148.289" y="938.282" type="line"/>
      <point x="148.289" y="1169.54" type="line"/>
      <point x="305.405" y="1265.75" type="line"/>
      <point x="305.405" y="938.282" type="line"/>
      <point x="466.052" y="938.282" type="line"/>
      <point x="466.052" y="813.825" type="line"/>
      <point x="305.405" y="813.825" type="line"/>
      <point x="305.405" y="265.685" type="line" smooth="yes"/>
      <point x="305.405" y="196.836"/>
      <point x="317.763" y="172.121" type="qcurve" smooth="yes"/>
      <point x="336.299" y="135.932"/>
      <point x="396.321" y="135.932" type="qcurve" smooth="yes"/>
      <point x="422.801" y="135.932"/>
      <point x="466.052" y="142.993" type="qcurve"/>
    </contour>
  </outline>
</glyph>
<glyph name="w" format="2">
  <advance width="1305"/>
  <unicode hex="0077"/>
  <outline>
    <contour>
      <point x="1290.47" y="938.282" type="line"/>
      <point x="998.304" y="0" type="line"/>
      <point x="833.244" y="0" type="line"/>
      <point x="683.19" y="562.263" type="line"/>
      <point x="647" y="721.145" type="line"/>
      <point x="457.225" y="0" type="line"/>
      <point x="293.048" y="0" type="line"/>
      <point x="5.29601" y="938.282" type="line"/>
      <point x="170.356" y="938.282" type="line"/>
      <point x="374.254" y="195.071" type="line"/>
      <point x="383.08" y="233.026"/>
      <point x="422.801" y="388.377" type="qcurve"/>
      <point x="571.09" y="938.282" type="line"/>
      <point x="736.15" y="938.282" type="line"/>
      <point x="921.512" y="215.372" type="line"/>
      <point x="1136.88" y="938.282" type="line"/>
    </contour>
  </outline>
</glyph>
<glyph name="x" format="2">
  <advance width="904"/>
  <unicode hex="0078"/>
  <outline>
    <contour>
      <point x="891.501" y="0" type="line"/>
      <point x="695.547" y="0" type="line"/>
      <point x="451.929" y="370.723" type="line"/>
      <point x="205.663" y="0" type="line"/>
      <point x="12.3574" y="0" type="line"/>
      <point x="355.718" y="488.119" type="line"/>
      <point x="37.955" y="938.282" type="line"/>
      <point x="236.557" y="938.282" type="line"/>
      <point x="381.315" y="717.614" type="line" smooth="yes"/>
      <point x="417.505" y="662.005"/>
      <point x="446.633" y="612.576" type="qcurve"/>
      <point x="477.527" y="657.592"/>
      <point x="519.012" y="715.849" type="qcurve" smooth="yes"/>
      <point x="676.128" y="938.282" type="line"/>
      <point x="865.903" y="938.282" type="line"/>
      <point x="541.962" y="495.18" type="line"/>
    </contour>
  </outline>
</glyph>
<glyph name="z" format="2">
  <advance width="904"/>
  <unicode hex="007A"/>
  <outline>
    <contour>
      <point x="865.903" y="0" type="line"/>
      <point x="36.1896" y="0" type="line"/>
      <point x="36.1896" y="127.988" type="line"/>
      <point x="632.877" y="813.825" type="line"/>
      <point x="529.604" y="807.647"/>
      <point x="451.929" y="807.647" type="qcurve" smooth="yes"/>
      <point x="70.6139" y="807.647" type="line"/>
      <point x="70.6139" y="938.282" type="line"/>
      <point x="836.775" y="938.282" type="line"/>
      <point x="836.775" y="831.479" type="line"/>
      <point x="231.261" y="127.988" type="line"/>
      <point x="338.064" y="137.697"/>
      <point x="431.628" y="137.697" type="qcurve" smooth="yes"/>
      <point x="865.903" y="137.697" type="line"/>
    </contour>
  </outline>
</glyph>
<glyph name="braceleft" format="2">
  <advance width="604"/>
  <unicode hex="007B"/>
  <outline>
    <contour>
      <point x="562.263" y="-379.55" type="line"/>
      <point x="511.951" y="-379.55" type="line" smooth="yes"/>
      <point x="426.332" y="-379.55"/>
      <point x="386.611" y="-367.192" type="qcurve"/>
      <point x="267.45" y="-323.941"/>
      <point x="243.618" y="-186.244" type="qcurve"/>
      <point x="238.322" y="-142.993"/>
      <point x="238.322" y="139.462"/>
      <point x="227.73" y="208.311" type="qcurve" smooth="yes"/>
      <point x="211.842" y="317.763"/>
      <point x="160.647" y="360.131" type="qcurve"/>
      <point x="117.396" y="393.673"/>
      <point x="50.3125" y="396.321" type="qcurve"/>
      <point x="50.3125" y="540.196" type="line"/>
      <point x="188.01" y="543.727"/>
      <point x="218.903" y="672.598" type="qcurve"/>
      <point x="231.261" y="733.502"/>
      <point x="233.026" y="880.026" type="qcurve"/>
      <point x="233.026" y="947.109"/>
      <point x="238.322" y="1075.98" type="qcurve"/>
      <point x="258.623" y="1267.52"/>
      <point x="403.382" y="1307.24" type="qcurve" smooth="yes"/>
      <point x="434.276" y="1316.07"/>
      <point x="511.951" y="1316.07" type="qcurve" smooth="yes"/>
      <point x="562.263" y="1316.07" type="line"/>
      <point x="562.263" y="1176.6" type="line"/>
      <point x="533.135" y="1176.6" type="line" smooth="yes"/>
      <point x="436.041" y="1176.6"/>
      <point x="406.913" y="1135.12" type="qcurve"/>
      <point x="381.315" y="1100.69"/>
      <point x="381.315" y="995.656" type="qcurve" smooth="yes"/>
      <point x="381.315" y="762.63"/>
      <point x="372.488" y="705.256" type="qcurve" smooth="yes"/>
      <point x="358.366" y="612.576"/>
      <point x="279.808" y="507.537"/>
      <point x="196.836" y="467.817" type="qcurve"/>
      <point x="314.232" y="419.27"/>
      <point x="353.952" y="305.405" type="qcurve" smooth="yes"/>
      <point x="381.315" y="225.964"/>
      <point x="381.315" y="70.6139" type="qcurve" smooth="yes"/>
      <point x="381.315" y="-103.273"/>
      <point x="384.846" y="-134.166" type="qcurve" smooth="yes"/>
      <point x="393.673" y="-200.367"/>
      <point x="429.862" y="-224.199" type="qcurve"/>
      <point x="460.756" y="-241.853"/>
      <point x="533.135" y="-241.853" type="qcurve" smooth="yes"/>
      <point x="562.263" y="-241.853" type="line"/>
    </contour>
  </outline>
</glyph>
<glyph name="asciitilde" format="2">
  <advance width="1056"/>
  <unicode hex="007E"/>
  <outline>
    <contour>
      <point x="979.768" y="594.922" type="line"/>
      <point x="872.965" y="493.415"/>
      <point x="736.15" y="493.415" type="qcurve" smooth="yes"/>
      <point x="641.704" y="493.415"/>
      <point x="481.057" y="565.794" type="qcurve" smooth="yes"/>
      <point x="376.019" y="610.81"/>
      <point x="307.171" y="610.81" type="qcurve" smooth="yes"/>
      <point x="200.367" y="610.81"/>
      <point x="75.91" y="491.649" type="qcurve"/>
      <point x="75.91" y="672.598" type="line"/>
      <point x="170.356" y="779.401"/>
      <point x="322.176" y="779.401" type="qcurve" smooth="yes"/>
      <point x="417.505" y="779.401"/>
      <point x="600.218" y="701.726" type="qcurve" smooth="yes"/>
      <point x="698.195" y="660.24"/>
      <point x="752.038" y="660.24" type="qcurve" smooth="yes"/>
      <point x="869.434" y="660.24"/>
      <point x="979.768" y="781.167" type="qcurve"/>
    </contour>
  </outline>
</glyph>
<glyph name="quoteright" format="2">
  <advance width="316"/>
  <unicode hex="2019"/>
  <outline>
    <contour>
      <point x="260.389" y="1077.74" type="line"/>
      <point x="233.026" y="988.595"/>
      <point x="146.524" y="903.858"/>
      <point x="72.3793" y="835.01" type="curve"/>
      <point x="19.4188" y="835.01" type="line"/>
      <point x="38.8377" y="915.333"/>
      <point x="68.8486" y="995.656"/>
      <point x="79.4407" y="1077.74" type="curve" smooth="yes"/>
      <point x="88.2674" y="1148.36"/>
      <point x="97.0941" y="1222.5"/>
      <point x="79.4407" y="1294" type="curve"/>
      <point x="260.389" y="1294" type="line"/>
      <point x="278.042" y="1222.5"/>
      <point x="281.573" y="1145.71"/>
      <point x="260.389" y="1077.74" type="curve"/>
    </contour>
  </outline>
</glyph>
<glyph name="uniE007" format="2">
  <advance width="1748"/>
  <unicode hex="E007"/>
  <outline>
    <contour>
      <point x="1747.69" y="598.453" type="line"/>
      <point x="1747.69" y="505.772"/>
      <point x="1619.71" y="410.443"/>
      <point x="1523.5" y="410.443" type="qcurve" smooth="yes"/>
      <point x="1435.23" y="410.443"/>
      <point x="1343.43" y="479.292" type="qcurve"/>
      <point x="1314.3" y="439.572"/>
      <point x="1267.52" y="355.718" type="qcurve" smooth="yes"/>
      <point x="1240.16" y="308.936"/>
      <point x="1196.91" y="308.936" type="qcurve" smooth="yes"/>
      <point x="1162.48" y="308.936"/>
      <point x="1109.52" y="355.718"/>
      <point x="1109.52" y="388.377" type="qcurve" smooth="yes"/>
      <point x="1109.52" y="421.035"/>
      <point x="1169.54" y="517.247" type="qcurve"/>
      <point x="1045.09" y="517.247" type="line"/>
      <point x="1068.04" y="446.633"/>
      <point x="1068.04" y="361.896" type="qcurve" smooth="yes"/>
      <point x="1068.04" y="189.775"/>
      <point x="974.472" y="61.7872" type="qcurve" smooth="yes"/>
      <point x="871.199" y="-81.206"/>
      <point x="707.022" y="-81.206" type="qcurve" smooth="yes"/>
      <point x="558.733" y="-81.206"/>
      <point x="467.817" y="25.5975" type="qcurve" smooth="yes"/>
      <point x="383.081" y="124.457"/>
      <point x="383.081" y="274.512" type="qcurve" smooth="yes"/>
      <point x="383.081" y="399.851"/>
      <point x="475.761" y="496.945" type="qcurve" smooth="yes"/>
      <point x="553.437" y="579.917"/>
      <point x="681.424" y="632.877" type="qcurve"/>
      <point x="636.408" y="641.704"/>
      <point x="584.33" y="641.704" type="qcurve" smooth="yes"/>
      <point x="500.476" y="641.704"/>
      <point x="500.476" y="722.91" type="qcurve" smooth="yes"/>
      <point x="500.476" y="804.116"/>
      <point x="584.33" y="804.116" type="qcurve" smooth="yes"/>
      <point x="791.759" y="804.116"/>
      <point x="878.261" y="921.512" type="qcurve" smooth="yes"/>
      <point x="905.624" y="959.467"/>
      <point x="905.624" y="995.656" type="qcurve" smooth="yes"/>
      <point x="905.624" y="1030.08"/>
      <point x="878.261" y="1068.04" type="qcurve" smooth="yes"/>
      <point x="791.759" y="1185.43"/>
      <point x="584.33" y="1185.43" type="qcurve" smooth="yes"/>
      <point x="428.097" y="1185.43"/>
      <point x="312.467" y="1109.52" type="qcurve" smooth="yes"/>
      <point x="285.986" y="1091.87"/>
      <point x="262.154" y="1091.87" type="qcurve" smooth="yes"/>
      <point x="229.495" y="1091.87"/>
      <point x="180.948" y="1143.95"/>
      <point x="180.948" y="1176.6" type="qcurve" smooth="yes"/>
      <point x="180.948" y="1212.79"/>
      <point x="213.607" y="1240.16" type="qcurve" smooth="yes"/>
      <point x="276.277" y="1292.23"/>
      <point x="390.142" y="1321.36" type="qcurve" smooth="yes"/>
      <point x="489.884" y="1348.73"/>
      <point x="584.33" y="1348.73" type="qcurve" smooth="yes"/>
      <point x="760.865" y="1348.73"/>
      <point x="902.093" y="1262.22" type="qcurve" smooth="yes"/>
      <point x="1068.04" y="1160.72"/>
      <point x="1068.04" y="995.656" type="qcurve" smooth="yes"/>
      <point x="1068.04" y="822.652"/>
      <point x="887.97" y="719.379" type="qcurve"/>
      <point x="916.216" y="701.726"/>
      <point x="940.048" y="679.659" type="qcurve"/>
      <point x="1169.54" y="679.659" type="line"/>
      <point x="1109.52" y="774.105"/>
      <point x="1109.52" y="805.881" type="qcurve" smooth="yes"/>
      <point x="1109.52" y="840.306"/>
      <point x="1162.48" y="887.97"/>
      <point x="1196.91" y="887.97" type="qcurve" smooth="yes"/>
      <point x="1240.16" y="887.97"/>
      <point x="1267.52" y="840.306" type="qcurve" smooth="yes"/>
      <point x="1314.3" y="755.569"/>
      <point x="1343.43" y="715.849" type="qcurve"/>
      <point x="1435.23" y="786.463"/>
      <point x="1523.5" y="786.463" type="qcurve" smooth="yes"/>
      <point x="1619.71" y="786.463"/>
      <point x="1681.49" y="741.446" type="qcurve"/>
      <point x="1747.69" y="690.251"/>
      <point x="1747.69" y="598.453" type="qcurve"/>
    </contour>
    <contour>
      <point x="1585.28" y="598.453" type="line"/>
      <point x="1585.28" y="605.514"/>
      <point x="1583.52" y="609.045" type="qcurve"/>
      <point x="1565.86" y="624.051"/>
      <point x="1523.5" y="624.051" type="qcurve" smooth="yes"/>
      <point x="1493.48" y="624.051"/>
      <point x="1457.29" y="598.453" type="qcurve"/>
      <point x="1493.48" y="572.855"/>
      <point x="1523.5" y="572.855" type="qcurve" smooth="yes"/>
      <point x="1565.86" y="572.855"/>
      <point x="1581.75" y="584.33" type="qcurve"/>
      <point x="1585.28" y="589.626"/>
      <point x="1585.28" y="598.453" type="qcurve"/>
    </contour>
    <contour>
      <point x="905.624" y="361.896" type="line"/>
      <point x="905.624" y="450.164"/>
      <point x="865.903" y="513.716" type="qcurve"/>
      <point x="757.334" y="498.711"/>
      <point x="662.005" y="441.337" type="qcurve" smooth="yes"/>
      <point x="545.493" y="368.958"/>
      <point x="545.493" y="274.512" type="qcurve" smooth="yes"/>
      <point x="545.493" y="193.306"/>
      <point x="584.33" y="141.228" type="qcurve" smooth="yes"/>
      <point x="627.581" y="81.206"/>
      <point x="707.022" y="81.206" type="qcurve" smooth="yes"/>
      <point x="800.585" y="81.206"/>
      <point x="857.076" y="179.183" type="qcurve" smooth="yes"/>
      <point x="905.624" y="260.389"/>
      <point x="905.624" y="361.896" type="qcurve"/>
    </contour>
  </outline>
</glyph>
<glyph name="uniE00E" format="2">
  <advance width="1495"/>
  <unicode hex="E00E"/>
  <outline>
    <contour>
      <point x="1495.25" y="695.547" type="line"/>
      <point x="1495.25" y="609.045"/>
      <point x="1391.98" y="466.052"/>
      <point x="1312.54" y="436.041" type="qcurve"/>
      <point x="1294" y="428.097"/>
      <point x="1278.11" y="428.097" type="qcurve" smooth="yes"/>
      <point x="1245.45" y="428.097"/>
      <point x="1200.44" y="481.057"/>
      <point x="1200.44" y="513.716" type="qcurve" smooth="yes"/>
      <point x="1200.44" y="555.202"/>
      <point x="1263.99" y="594.922"/>
      <point x="1294" y="614.341" type="qcurve"/>
      <point x="972.707" y="614.341" type="line"/>
      <point x="955.936" y="589.626"/>
      <point x="932.986" y="571.09" type="qcurve"/>
      <point x="1046.85" y="475.761"/>
      <point x="1046.85" y="289.517" type="qcurve" smooth="yes"/>
      <point x="1046.85" y="146.524"/>
      <point x="979.768" y="41.4857" type="qcurve" smooth="yes"/>
      <point x="903.858" y="-81.206"/>
      <point x="769.692" y="-81.206" type="qcurve" smooth="yes"/>
      <point x="654.061" y="-81.206"/>
      <point x="591.392" y="15.8881" type="qcurve" smooth="yes"/>
      <point x="534.9" y="99.7422"/>
      <point x="534.9" y="220.668" type="qcurve" smooth="yes"/>
      <point x="534.9" y="396.321"/>
      <point x="692.016" y="496.945" type="qcurve"/>
      <point x="674.363" y="496.945"/>
      <point x="655.827" y="496.945" type="qcurve" smooth="yes"/>
      <point x="619.637" y="496.945"/>
      <point x="571.09" y="541.962"/>
      <point x="571.09" y="578.151" type="qcurve" smooth="yes"/>
      <point x="571.09" y="614.341"/>
      <point x="619.637" y="660.24"/>
      <point x="655.827" y="660.24" type="qcurve" smooth="yes"/>
      <point x="766.161" y="660.24"/>
      <point x="826.183" y="695.547" type="qcurve"/>
      <point x="766.161" y="731.737"/>
      <point x="655.827" y="731.737" type="qcurve" smooth="yes"/>
      <point x="619.637" y="731.737"/>
      <point x="571.09" y="777.636"/>
      <point x="571.09" y="813.825" type="qcurve" smooth="yes"/>
      <point x="571.09" y="850.015"/>
      <point x="619.637" y="895.031"/>
      <point x="655.827" y="895.031" type="qcurve" smooth="yes"/>
      <point x="743.212" y="895.031"/>
      <point x="815.591" y="929.456" type="qcurve" smooth="yes"/>
      <point x="903.858" y="972.707"/>
      <point x="903.858" y="1050.38" type="qcurve" smooth="yes"/>
      <point x="903.858" y="1068.04"/>
      <point x="880.026" y="1093.63" type="qcurve" smooth="yes"/>
      <point x="793.524" y="1185.43"/>
      <point x="584.33" y="1185.43" type="qcurve" smooth="yes"/>
      <point x="428.097" y="1185.43"/>
      <point x="305.405" y="1124.53" type="qcurve"/>
      <point x="278.042" y="1109.52"/>
      <point x="262.154" y="1109.52" type="qcurve" smooth="yes"/>
      <point x="227.73" y="1109.52"/>
      <point x="180.948" y="1162.48"/>
      <point x="180.948" y="1196.91" type="qcurve" smooth="yes"/>
      <point x="180.948" y="1272.82"/>
      <point x="350.422" y="1316.07" type="qcurve" smooth="yes"/>
      <point x="472.231" y="1348.73"/>
      <point x="584.33" y="1348.73" type="qcurve" smooth="yes"/>
      <point x="753.804" y="1348.73"/>
      <point x="891.501" y="1281.64" type="qcurve" smooth="yes"/>
      <point x="1066.27" y="1198.67"/>
      <point x="1066.27" y="1050.38" type="qcurve" smooth="yes"/>
      <point x="1066.27" y="889.735"/>
      <point x="947.109" y="807.647" type="qcurve"/>
      <point x="962.115" y="793.524"/>
      <point x="974.472" y="777.636" type="qcurve"/>
      <point x="1294" y="777.636" type="line"/>
      <point x="1263.99" y="795.289"/>
      <point x="1200.44" y="836.775"/>
      <point x="1200.44" y="876.495" type="qcurve" smooth="yes"/>
      <point x="1200.44" y="910.92"/>
      <point x="1245.45" y="962.115"/>
      <point x="1278.11" y="962.115" type="qcurve" smooth="yes"/>
      <point x="1294" y="962.115"/>
      <point x="1312.54" y="954.171" type="qcurve"/>
      <point x="1391.98" y="924.16"/>
      <point x="1495.25" y="781.166"/>
      <point x="1495.25" y="695.547" type="qcurve"/>
    </contour>
    <contour>
      <point x="883.557" y="289.517" type="line"/>
      <point x="883.557" y="348.656"/>
      <point x="865.903" y="391.907" type="qcurve"/>
      <point x="798.82" y="376.019"/>
      <point x="750.273" y="332.768" type="qcurve" smooth="yes"/>
      <point x="698.195" y="284.221"/>
      <point x="698.195" y="220.668" type="qcurve" smooth="yes"/>
      <point x="698.195" y="81.206"/>
      <point x="769.692" y="81.206" type="qcurve" smooth="yes"/>
      <point x="827.948" y="81.206"/>
      <point x="858.842" y="160.647" type="qcurve"/>
      <point x="883.557" y="218.903"/>
      <point x="883.557" y="289.517" type="qcurve"/>
    </contour>
  </outline>
</glyph>
<glyph name="uniE00F" format="2">
  <advance width="1171"/>
  <unicode hex="E00F"/>
  <outline>
    <contour>
      <point x="1171.31" y="1050.38" type="line"/>
      <point x="1171.31" y="889.735"/>
      <point x="1050.38" y="807.647" type="qcurve"/>
      <point x="1104.23" y="759.1"/>
      <point x="1104.23" y="695.547" type="qcurve" smooth="yes"/>
      <point x="1104.23" y="624.051"/>
      <point x="1038.02" y="571.09" type="qcurve"/>
      <point x="1151.89" y="475.761"/>
      <point x="1151.89" y="289.517" type="qcurve" smooth="yes"/>
      <point x="1151.89" y="146.524"/>
      <point x="1084.81" y="41.4857" type="qcurve" smooth="yes"/>
      <point x="1008.9" y="-81.206"/>
      <point x="872.965" y="-81.206" type="qcurve" smooth="yes"/>
      <point x="781.166" y="-81.206"/>
      <point x="719.379" y="-14.1228" type="qcurve" smooth="yes"/>
      <point x="665.536" y="43.251"/>
      <point x="647" y="139.462" type="qcurve"/>
      <point x="379.55" y="139.462" type="line"/>
      <point x="410.443" y="119.161"/>
      <point x="475.761" y="79.4407"/>
      <point x="475.761" y="37.955" type="qcurve" smooth="yes"/>
      <point x="475.761" y="5.29604"/>
      <point x="429.862" y="-46.7817"/>
      <point x="396.321" y="-46.7817" type="qcurve" smooth="yes"/>
      <point x="381.315" y="-46.7817"/>
      <point x="363.662" y="-39.7203" type="qcurve" smooth="yes"/>
      <point x="281.573" y="-7.06139"/>
      <point x="180.948" y="134.166"/>
      <point x="180.948" y="220.668" type="qcurve" smooth="yes"/>
      <point x="180.948" y="305.405"/>
      <point x="281.573" y="448.398"/>
      <point x="363.662" y="479.292" type="qcurve" smooth="yes"/>
      <point x="381.315" y="486.353"/>
      <point x="396.321" y="486.353" type="qcurve" smooth="yes"/>
      <point x="429.862" y="486.353"/>
      <point x="475.761" y="436.041"/>
      <point x="475.761" y="401.617" type="qcurve" smooth="yes"/>
      <point x="475.761" y="361.896"/>
      <point x="410.443" y="319.528"/>
      <point x="379.55" y="301.875" type="qcurve"/>
      <point x="648.765" y="301.875" type="line"/>
      <point x="681.424" y="422.801"/>
      <point x="797.055" y="496.945" type="qcurve"/>
      <point x="779.401" y="496.945"/>
      <point x="760.865" y="496.945" type="qcurve" smooth="yes"/>
      <point x="724.675" y="496.945"/>
      <point x="676.128" y="541.962"/>
      <point x="676.128" y="578.151" type="qcurve" smooth="yes"/>
      <point x="676.128" y="614.341"/>
      <point x="724.675" y="660.24"/>
      <point x="760.865" y="660.24" type="qcurve" smooth="yes"/>
      <point x="871.199" y="660.24"/>
      <point x="931.221" y="695.547" type="qcurve"/>
      <point x="871.199" y="731.737"/>
      <point x="760.865" y="731.737" type="qcurve" smooth="yes"/>
      <point x="724.675" y="731.737"/>
      <point x="676.128" y="777.636"/>
      <point x="676.128" y="813.825" type="qcurve" smooth="yes"/>
      <point x="676.128" y="850.015"/>
      <point x="724.675" y="895.031"/>
      <point x="760.865" y="895.031" type="qcurve" smooth="yes"/>
      <point x="848.25" y="895.031"/>
      <point x="917.981" y="929.456" type="qcurve" smooth="yes"/>
      <point x="1008.9" y="972.707"/>
      <point x="1008.9" y="1050.38" type="qcurve" smooth="yes"/>
      <point x="1008.9" y="1068.04"/>
      <point x="985.064" y="1093.63" type="qcurve" smooth="yes"/>
      <point x="898.562" y="1185.43"/>
      <point x="688.486" y="1185.43" type="qcurve" smooth="yes"/>
      <point x="533.135" y="1185.43"/>
      <point x="410.443" y="1124.53" type="qcurve"/>
      <point x="383.081" y="1109.52"/>
      <point x="367.192" y="1109.52" type="qcurve" smooth="yes"/>
      <point x="332.768" y="1109.52"/>
      <point x="285.986" y="1162.48"/>
      <point x="285.986" y="1196.91" type="qcurve" smooth="yes"/>
      <point x="285.986" y="1272.82"/>
      <point x="453.694" y="1316.07" type="qcurve" smooth="yes"/>
      <point x="576.386" y="1348.73"/>
      <point x="688.486" y="1348.73" type="qcurve" smooth="yes"/>
      <point x="857.076" y="1348.73"/>
      <point x="995.656" y="1281.64" type="qcurve" smooth="yes"/>
      <point x="1171.31" y="1198.67"/>
      <point x="1171.31" y="1050.38" type="qcurve"/>
    </contour>
    <contour>
      <point x="988.595" y="289.517" type="line"/>
      <point x="988.595" y="348.656"/>
      <point x="970.941" y="391.907" type="qcurve"/>
      <point x="903.858" y="376.019"/>
      <point x="855.311" y="332.768" type="qcurve" smooth="yes"/>
      <point x="800.585" y="284.221"/>
      <point x="800.585" y="220.668" type="qcurve" smooth="yes"/>
      <point x="800.585" y="81.206"/>
      <point x="872.965" y="81.206" type="qcurve" smooth="yes"/>
      <point x="932.986" y="81.206"/>
      <point x="963.88" y="160.647" type="qcurve"/>
      <point x="988.595" y="218.903"/>
      <point x="988.595" y="289.517" type="qcurve"/>
    </contour>
  </outline>
</glyph>
<glyph name="uniE013" format="2">
  <advance width="1754"/>
  <unicode hex="E013"/>
  <outline>
    <contour>
      <point x="1753.87" y="695.547" type="line"/>
      <point x="1753.87" y="601.984"/>
      <point x="1686.79" y="553.437" type="qcurve"/>
      <point x="1626.77" y="507.538"/>
      <point x="1529.67" y="507.538" type="qcurve" smooth="yes"/>
      <point x="1440.52" y="507.538"/>
      <point x="1348.73" y="578.151" type="qcurve"/>
      <point x="1310.77" y="526.074"/>
      <point x="1271.05" y="453.694" type="qcurve"/>
      <point x="1247.22" y="406.913"/>
      <point x="1200.44" y="406.913" type="qcurve" smooth="yes"/>
      <point x="1167.78" y="406.913"/>
      <point x="1115.7" y="453.694"/>
      <point x="1115.7" y="486.353" type="qcurve" smooth="yes"/>
      <point x="1115.7" y="519.012"/>
      <point x="1174.84" y="614.341" type="qcurve"/>
      <point x="974.472" y="614.341" type="line"/>
      <point x="955.936" y="591.392"/>
      <point x="932.986" y="571.09" type="qcurve"/>
      <point x="1046.85" y="475.761"/>
      <point x="1046.85" y="289.517" type="qcurve" smooth="yes"/>
      <point x="1046.85" y="146.524"/>
      <point x="979.768" y="41.4857" type="qcurve" smooth="yes"/>
      <point x="903.858" y="-81.206"/>
      <point x="769.692" y="-81.206" type="qcurve" smooth="yes"/>
      <point x="654.061" y="-81.206"/>
      <point x="591.392" y="15.8881" type="qcurve" smooth="yes"/>
      <point x="534.9" y="99.7422"/>
      <point x="534.9" y="220.668" type="qcurve" smooth="yes"/>
      <point x="534.9" y="396.321"/>
      <point x="692.016" y="496.945" type="qcurve"/>
      <point x="674.363" y="496.945"/>
      <point x="655.827" y="496.945" type="qcurve" smooth="yes"/>
      <point x="619.637" y="496.945"/>
      <point x="571.09" y="541.962"/>
      <point x="571.09" y="578.151" type="qcurve" smooth="yes"/>
      <point x="571.09" y="614.341"/>
      <point x="619.637" y="660.24"/>
      <point x="655.827" y="660.24" type="qcurve" smooth="yes"/>
      <point x="766.161" y="660.24"/>
      <point x="826.183" y="695.547" type="qcurve"/>
      <point x="766.161" y="731.737"/>
      <point x="655.827" y="731.737" type="qcurve" smooth="yes"/>
      <point x="619.637" y="731.737"/>
      <point x="571.09" y="777.636"/>
      <point x="571.09" y="813.825" type="qcurve" smooth="yes"/>
      <point x="571.09" y="850.015"/>
      <point x="619.637" y="895.031"/>
      <point x="655.827" y="895.031" type="qcurve" smooth="yes"/>
      <point x="743.212" y="895.031"/>
      <point x="815.591" y="929.456" type="qcurve" smooth="yes"/>
      <point x="903.858" y="972.707"/>
      <point x="903.858" y="1050.38" type="qcurve" smooth="yes"/>
      <point x="903.858" y="1068.04"/>
      <point x="880.026" y="1093.63" type="qcurve" smooth="yes"/>
      <point x="793.524" y="1185.43"/>
      <point x="584.33" y="1185.43" type="qcurve" smooth="yes"/>
      <point x="428.097" y="1185.43"/>
      <point x="305.405" y="1124.53" type="qcurve"/>
      <point x="278.042" y="1109.52"/>
      <point x="262.154" y="1109.52" type="qcurve" smooth="yes"/>
      <point x="227.73" y="1109.52"/>
      <point x="180.948" y="1162.48"/>
      <point x="180.948" y="1196.91" type="qcurve" smooth="yes"/>
      <point x="180.948" y="1272.82"/>
      <point x="350.422" y="1316.07" type="qcurve" smooth="yes"/>
      <point x="472.231" y="1348.73"/>
      <point x="584.33" y="1348.73" type="qcurve" smooth="yes"/>
      <point x="753.804" y="1348.73"/>
      <point x="891.501" y="1281.64" type="qcurve" smooth="yes"/>
      <point x="1066.27" y="1198.67"/>
      <point x="1066.27" y="1050.38" type="qcurve" smooth="yes"/>
      <point x="1066.27" y="889.735"/>
      <point x="947.109" y="807.647" type="qcurve"/>
      <point x="962.115" y="793.524"/>
      <point x="972.707" y="777.636" type="qcurve"/>
      <point x="1174.84" y="777.636" type="line"/>
      <point x="1115.7" y="871.199"/>
      <point x="1115.7" y="905.624" type="qcurve" smooth="yes"/>
      <point x="1115.7" y="938.282"/>
      <point x="1167.78" y="985.064"/>
      <point x="1200.44" y="985.064" type="qcurve" smooth="yes"/>
      <point x="1247.22" y="985.064"/>
      <point x="1271.05" y="938.282" type="qcurve"/>
      <point x="1310.77" y="864.138"/>
      <point x="1348.73" y="813.825" type="qcurve"/>
      <point x="1440.52" y="883.557"/>
      <point x="1529.67" y="883.557" type="qcurve" smooth="yes"/>
      <point x="1626.77" y="883.557"/>
      <point x="1686.79" y="838.54" type="qcurve" smooth="yes"/>
      <point x="1753.87" y="788.228"/>
      <point x="1753.87" y="695.547" type="qcurve"/>
    </contour>
    <contour>
      <point x="1590.58" y="695.547" type="line"/>
      <point x="1590.58" y="703.491"/>
      <point x="1587.05" y="710.553" type="qcurve"/>
      <point x="1571.16" y="721.145"/>
      <point x="1529.67" y="721.145" type="qcurve" smooth="yes"/>
      <point x="1498.78" y="721.145"/>
      <point x="1462.59" y="695.547" type="qcurve"/>
      <point x="1498.78" y="670.832"/>
      <point x="1529.67" y="670.832" type="qcurve" smooth="yes"/>
      <point x="1569.39" y="670.832"/>
      <point x="1588.81" y="683.19" type="qcurve"/>
      <point x="1590.58" y="686.72"/>
      <point x="1590.58" y="695.547" type="qcurve"/>
    </contour>
    <contour>
      <point x="883.557" y="289.517" type="line"/>
      <point x="883.557" y="348.656"/>
      <point x="865.903" y="391.907" type="qcurve"/>
      <point x="798.82" y="376.019"/>
      <point x="750.273" y="332.768" type="qcurve" smooth="yes"/>
      <point x="698.195" y="284.221"/>
      <point x="698.195" y="220.668" type="qcurve" smooth="yes"/>
      <point x="698.195" y="81.206"/>
      <point x="769.692" y="81.206" type="qcurve" smooth="yes"/>
      <point x="827.948" y="81.206"/>
      <point x="858.842" y="160.647" type="qcurve"/>
      <point x="883.557" y="218.903"/>
      <point x="883.557" y="289.517" type="qcurve"/>
    </contour>
  </outline>
</glyph>
<glyph name="uniE014" format="2">
  <advance width="1211"/>
  <unicode hex="E014"/>
  <outline>
    <contour>
      <point x="1211.03" y="1050.38" type="line"/>
      <point x="1211.03" y="889.735"/>
      <point x="1090.1" y="807.647" type="qcurve"/>
      <point x="1143.95" y="759.1"/>
      <point x="1143.95" y="695.547" type="qcurve" smooth="yes"/>
      <point x="1143.95" y="624.051"/>
      <point x="1077.74" y="571.09" type="qcurve"/>
      <point x="1189.84" y="475.761"/>
      <point x="1189.84" y="289.517" type="qcurve" smooth="yes"/>
      <point x="1189.84" y="146.524"/>
      <point x="1124.53" y="41.4857" type="qcurve" smooth="yes"/>
      <point x="1046.85" y="-81.206"/>
      <point x="912.685" y="-81.206" type="qcurve" smooth="yes"/>
      <point x="737.915" y="-81.206"/>
      <point x="688.486" y="122.692" type="qcurve"/>
      <point x="650.531" y="122.692" type="line"/>
      <point x="631.112" y="32.6589"/>
      <point x="488.119" y="-81.206"/>
      <point x="396.321" y="-81.206" type="qcurve" smooth="yes"/>
      <point x="274.512" y="-81.206"/>
      <point x="202.132" y="3.5307" type="qcurve"/>
      <point x="180.948" y="30.8936"/>
      <point x="180.948" y="58.2565" type="qcurve" smooth="yes"/>
      <point x="180.948" y="91.7981"/>
      <point x="231.261" y="141.228"/>
      <point x="263.92" y="141.228" type="qcurve" smooth="yes"/>
      <point x="293.048" y="141.228"/>
      <point x="360.131" y="81.206"/>
      <point x="396.321" y="81.206" type="qcurve" smooth="yes"/>
      <point x="436.041" y="81.206"/>
      <point x="493.415" y="139.462"/>
      <point x="493.415" y="179.183" type="qcurve" smooth="yes"/>
      <point x="493.415" y="218.903"/>
      <point x="436.041" y="276.277"/>
      <point x="396.321" y="276.277" type="qcurve" smooth="yes"/>
      <point x="314.232" y="276.277"/>
      <point x="314.232" y="358.366" type="qcurve" smooth="yes"/>
      <point x="314.232" y="439.572"/>
      <point x="396.321" y="439.572" type="qcurve" smooth="yes"/>
      <point x="473.996" y="439.572"/>
      <point x="601.984" y="353.952"/>
      <point x="632.877" y="285.986" type="qcurve"/>
      <point x="684.955" y="285.986" type="line"/>
      <point x="712.318" y="417.505"/>
      <point x="836.775" y="496.945" type="qcurve"/>
      <point x="819.121" y="496.945"/>
      <point x="800.585" y="496.945" type="qcurve" smooth="yes"/>
      <point x="764.396" y="496.945"/>
      <point x="715.849" y="541.962"/>
      <point x="715.849" y="578.151" type="qcurve" smooth="yes"/>
      <point x="715.849" y="614.341"/>
      <point x="764.396" y="660.24"/>
      <point x="800.585" y="660.24" type="qcurve" smooth="yes"/>
      <point x="910.92" y="660.24"/>
      <point x="970.941" y="695.547" type="qcurve"/>
      <point x="909.154" y="731.737"/>
      <point x="800.585" y="731.737" type="qcurve" smooth="yes"/>
      <point x="764.396" y="731.737"/>
      <point x="715.849" y="777.636"/>
      <point x="715.849" y="813.825" type="qcurve" smooth="yes"/>
      <point x="715.849" y="850.015"/>
      <point x="764.396" y="895.031"/>
      <point x="800.585" y="895.031" type="qcurve" smooth="yes"/>
      <point x="886.205" y="895.031"/>
      <point x="957.701" y="929.456" type="qcurve" smooth="yes"/>
      <point x="1048.62" y="972.707"/>
      <point x="1048.62" y="1050.38" type="qcurve" smooth="yes"/>
      <point x="1048.62" y="1068.04"/>
      <point x="1023.02" y="1093.63" type="qcurve" smooth="yes"/>
      <point x="934.752" y="1185.43"/>
      <point x="728.206" y="1185.43" type="qcurve" smooth="yes"/>
      <point x="571.09" y="1185.43"/>
      <point x="450.164" y="1124.53" type="qcurve"/>
      <point x="422.801" y="1109.52"/>
      <point x="405.147" y="1109.52" type="qcurve" smooth="yes"/>
      <point x="372.488" y="1109.52"/>
      <point x="323.941" y="1162.48"/>
      <point x="323.941" y="1196.91" type="qcurve" smooth="yes"/>
      <point x="323.941" y="1272.82"/>
      <point x="493.415" y="1316.07" type="qcurve" smooth="yes"/>
      <point x="616.106" y="1348.73"/>
      <point x="728.206" y="1348.73" type="qcurve" smooth="yes"/>
      <point x="896.797" y="1348.73"/>
      <point x="1036.26" y="1281.64" type="qcurve" smooth="yes"/>
      <point x="1211.03" y="1198.67"/>
      <point x="1211.03" y="1050.38" type="qcurve"/>
    </contour>
    <contour>
      <point x="1026.55" y="289.517" type="line"/>
      <point x="1026.55" y="348.656"/>
      <point x="1008.9" y="391.907" type="qcurve"/>
      <point x="941.813" y="376.019"/>
      <point x="895.031" y="332.768" type="qcurve" smooth="yes"/>
      <point x="840.306" y="284.221"/>
      <point x="840.306" y="220.668" type="qcurve" smooth="yes"/>
      <point x="840.306" y="81.206"/>
      <point x="912.685" y="81.206" type="qcurve" smooth="yes"/>
      <point x="970.941" y="81.206"/>
      <point x="1003.6" y="160.647" type="qcurve" smooth="yes"/>
      <point x="1026.55" y="218.903"/>
      <point x="1026.55" y="289.517" type="qcurve"/>
    </contour>
  </outline>
</glyph>
<glyph name="uniE01B" format="2">
  <advance width="1418"/>
  <unicode hex="E01B"/>
  <outline>
    <contour>
      <point x="1417.57" y="82.9714" type="line"/>
      <point x="1417.57" y="43.251"/>
      <point x="1376.09" y="15.8881" type="qcurve" smooth="yes"/>
      <point x="1227.8" y="-81.206"/>
      <point x="972.707" y="-81.206" type="qcurve" smooth="yes"/>
      <point x="845.602" y="-81.206"/>
      <point x="739.681" y="-50.3124" type="qcurve" smooth="yes"/>
      <point x="596.688" y="-8.82674"/>
      <point x="549.906" y="74.1446" type="qcurve"/>
      <point x="379.55" y="74.1446" type="line"/>
      <point x="410.443" y="55.6085"/>
      <point x="475.761" y="14.1228"/>
      <point x="475.761" y="-25.5975" type="qcurve" smooth="yes"/>
      <point x="475.761" y="-60.0218"/>
      <point x="429.862" y="-110.334"/>
      <point x="396.321" y="-110.334" type="qcurve" smooth="yes"/>
      <point x="379.55" y="-110.334"/>
      <point x="363.662" y="-103.273" type="qcurve"/>
      <point x="281.573" y="-72.3793"/>
      <point x="180.948" y="70.6139"/>
      <point x="180.948" y="155.351" type="qcurve" smooth="yes"/>
      <point x="180.948" y="241.853"/>
      <point x="281.573" y="383.081"/>
      <point x="363.662" y="415.739" type="qcurve"/>
      <point x="379.55" y="422.801"/>
      <point x="396.321" y="422.801" type="qcurve" smooth="yes"/>
      <point x="429.862" y="422.801"/>
      <point x="475.761" y="370.723"/>
      <point x="475.761" y="338.064" type="qcurve" smooth="yes"/>
      <point x="475.761" y="296.578"/>
      <point x="410.443" y="256.858"/>
      <point x="379.55" y="236.557" type="qcurve"/>
      <point x="558.733" y="236.557" type="line"/>
      <point x="610.81" y="301.875"/>
      <point x="800.585" y="365.427" type="qcurve" smooth="yes"/>
      <point x="1036.26" y="444.868"/>
      <point x="1104.23" y="486.353" type="qcurve" smooth="yes"/>
      <point x="1252.51" y="576.386"/>
      <point x="1252.51" y="722.91" type="qcurve" smooth="yes"/>
      <point x="1252.51" y="824.418" type="line"/>
      <point x="692.016" y="824.418" type="line"/>
      <point x="692.016" y="719.379"/>
      <point x="690.251" y="707.022" type="qcurve"/>
      <point x="676.128" y="641.704"/>
      <point x="610.81" y="641.704" type="qcurve" smooth="yes"/>
      <point x="529.604" y="641.704"/>
      <point x="529.604" y="722.91" type="qcurve" smooth="yes"/>
      <point x="529.604" y="905.624" type="line" smooth="yes"/>
      <point x="529.604" y="1081.28"/>
      <point x="797.055" y="1348.73"/>
      <point x="974.472" y="1348.73" type="qcurve" smooth="yes"/>
      <point x="1150.12" y="1348.73"/>
      <point x="1415.81" y="1081.28"/>
      <point x="1415.81" y="905.624" type="qcurve" smooth="yes"/>
      <point x="1415.81" y="722.91" type="line" smooth="yes"/>
      <point x="1415.81" y="576.386"/>
      <point x="1312.54" y="453.694" type="qcurve" smooth="yes"/>
      <point x="1218.09" y="341.595"/>
      <point x="1074.21" y="285.986" type="qcurve"/>
      <point x="1064.5" y="281.573"/>
      <point x="881.791" y="225.965" type="qcurve" smooth="yes"/>
      <point x="766.161" y="191.54"/>
      <point x="699.96" y="144.759" type="qcurve"/>
      <point x="726.441" y="113.865"/>
      <point x="829.714" y="96.2115" type="qcurve" smooth="yes"/>
      <point x="909.154" y="81.206"/>
      <point x="972.707" y="81.206" type="qcurve" smooth="yes"/>
      <point x="1150.12" y="81.206"/>
      <point x="1294" y="157.116" type="qcurve"/>
      <point x="1317.83" y="167.708"/>
      <point x="1335.49" y="167.708" type="qcurve" smooth="yes"/>
      <point x="1369.91" y="167.708"/>
      <point x="1417.57" y="117.396"/>
      <point x="1417.57" y="82.9714" type="qcurve"/>
    </contour>
    <contour>
      <point x="1240.16" y="986.83" type="line"/>
      <point x="1211.03" y="1069.8"/>
      <point x="1060.97" y="1185.43"/>
      <point x="974.472" y="1185.43" type="qcurve" smooth="yes"/>
      <point x="887.97" y="1185.43"/>
      <point x="736.15" y="1069.8"/>
      <point x="707.022" y="986.83" type="qcurve"/>
    </contour>
  </outline>
</glyph>
<glyph name="uniE020" format="2">
  <advance width="1488"/>
  <unicode hex="E020"/>
  <outline>
    <contour>
      <point x="1489.95" y="82.9714" type="line"/>
      <point x="1489.95" y="43.251"/>
      <point x="1447.59" y="15.8881" type="qcurve" smooth="yes"/>
      <point x="1431.7" y="5.29604"/>
      <point x="1390.21" y="-14.1228" type="qcurve" smooth="yes"/>
      <point x="1247.22" y="-81.206"/>
      <point x="1045.09" y="-81.206" type="qcurve" smooth="yes"/>
      <point x="924.16" y="-81.206"/>
      <point x="820.887" y="-52.0778" type="qcurve"/>
      <point x="679.659" y="-15.8881"/>
      <point x="629.347" y="63.5525" type="qcurve"/>
      <point x="556.967" y="-81.206"/>
      <point x="396.321" y="-81.206" type="qcurve" smooth="yes"/>
      <point x="276.277" y="-81.206"/>
      <point x="202.132" y="3.5307" type="qcurve"/>
      <point x="180.948" y="30.8936"/>
      <point x="180.948" y="58.2565" type="qcurve" smooth="yes"/>
      <point x="180.948" y="91.7981"/>
      <point x="231.261" y="141.228"/>
      <point x="263.92" y="141.228" type="qcurve" smooth="yes"/>
      <point x="293.048" y="141.228"/>
      <point x="360.131" y="81.206"/>
      <point x="396.321" y="81.206" type="qcurve" smooth="yes"/>
      <point x="436.041" y="81.206"/>
      <point x="493.415" y="139.462"/>
      <point x="493.415" y="179.183" type="qcurve" smooth="yes"/>
      <point x="493.415" y="218.903"/>
      <point x="436.041" y="276.277"/>
      <point x="396.321" y="276.277" type="qcurve" smooth="yes"/>
      <point x="314.232" y="276.277"/>
      <point x="314.232" y="358.366" type="qcurve" smooth="yes"/>
      <point x="314.232" y="439.572"/>
      <point x="396.321" y="439.572" type="qcurve" smooth="yes"/>
      <point x="482.823" y="439.572"/>
      <point x="619.637" y="334.533"/>
      <point x="645.235" y="253.327" type="qcurve"/>
      <point x="701.726" y="307.171"/>
      <point x="891.501" y="370.723" type="qcurve" smooth="yes"/>
      <point x="1107.76" y="443.102"/>
      <point x="1183.67" y="491.649" type="qcurve" smooth="yes"/>
      <point x="1324.89" y="579.917"/>
      <point x="1324.89" y="722.91" type="qcurve" smooth="yes"/>
      <point x="1324.89" y="824.418" type="line"/>
      <point x="764.396" y="824.418" type="line"/>
      <point x="764.396" y="722.91" type="line" smooth="yes"/>
      <point x="764.396" y="641.704"/>
      <point x="683.19" y="641.704" type="qcurve" smooth="yes"/>
      <point x="601.984" y="641.704"/>
      <point x="601.984" y="722.91" type="qcurve" smooth="yes"/>
      <point x="601.984" y="905.624" type="line" smooth="yes"/>
      <point x="601.984" y="1081.28"/>
      <point x="869.434" y="1348.73"/>
      <point x="1046.85" y="1348.73" type="qcurve" smooth="yes"/>
      <point x="1221.62" y="1348.73"/>
      <point x="1488.19" y="1081.28"/>
      <point x="1488.19" y="905.624" type="qcurve" smooth="yes"/>
      <point x="1488.19" y="722.91" type="line" smooth="yes"/>
      <point x="1488.19" y="576.386"/>
      <point x="1384.92" y="453.694" type="qcurve" smooth="yes"/>
      <point x="1290.47" y="341.595"/>
      <point x="1145.71" y="285.986" type="qcurve"/>
      <point x="1135.12" y="281.573"/>
      <point x="954.171" y="225.965" type="qcurve" smooth="yes"/>
      <point x="838.54" y="191.54"/>
      <point x="771.457" y="144.759" type="qcurve"/>
      <point x="800.585" y="113.865"/>
      <point x="900.327" y="96.2115" type="qcurve" smooth="yes"/>
      <point x="979.768" y="81.206"/>
      <point x="1045.09" y="81.206" type="qcurve" smooth="yes"/>
      <point x="1221.62" y="81.206"/>
      <point x="1364.61" y="157.116" type="qcurve"/>
      <point x="1388.45" y="167.708"/>
      <point x="1407.87" y="167.708" type="qcurve" smooth="yes"/>
      <point x="1440.52" y="167.708"/>
      <point x="1489.95" y="117.396"/>
      <point x="1489.95" y="82.9714" type="qcurve"/>
    </contour>
    <contour>
      <point x="1310.77" y="986.83" type="line"/>
      <point x="1281.64" y="1069.8"/>
      <point x="1133.35" y="1185.43"/>
      <point x="1046.85" y="1185.43" type="qcurve" smooth="yes"/>
      <point x="957.701" y="1185.43"/>
      <point x="807.647" y="1069.8"/>
      <point x="779.401" y="986.83" type="qcurve"/>
    </contour>
  </outline>
</glyph>
<glyph name="uniE022" format="2">
  <advance width="1656"/>
  <unicode hex="E022"/>
  <outline>
    <contour>
      <point x="1655.9" y="1041.56" type="line"/>
      <point x="1655.9" y="921.512"/>
      <point x="1505.84" y="726.441"/>
      <point x="1391.98" y="684.955" type="qcurve"/>
      <point x="1373.44" y="679.659"/>
      <point x="1359.32" y="679.659" type="qcurve" smooth="yes"/>
      <point x="1324.89" y="679.659"/>
      <point x="1279.88" y="729.971"/>
      <point x="1279.88" y="764.396" type="qcurve" smooth="yes"/>
      <point x="1279.88" y="813.825"/>
      <point x="1331.96" y="836.775" type="qcurve" smooth="yes"/>
      <point x="1493.48" y="910.92"/>
      <point x="1493.48" y="1041.56" type="qcurve" smooth="yes"/>
      <point x="1493.48" y="1131.59"/>
      <point x="1409.63" y="1164.25" type="qcurve" smooth="yes"/>
      <point x="1357.55" y="1185.43"/>
      <point x="1247.22" y="1185.43" type="qcurve" smooth="yes"/>
      <point x="1221.62" y="1185.43"/>
      <point x="1193.38" y="1169.54" type="qcurve"/>
      <point x="1158.95" y="1153.65"/>
      <point x="1158.95" y="1129.82" type="qcurve" smooth="yes"/>
      <point x="1158.95" y="1084.81"/>
      <point x="1245.45" y="1084.81" type="qcurve" smooth="yes"/>
      <point x="1326.66" y="1084.81"/>
      <point x="1326.66" y="1003.6" type="qcurve" smooth="yes"/>
      <point x="1326.66" y="921.512"/>
      <point x="1245.45" y="921.512" type="qcurve" smooth="yes"/>
      <point x="1126.29" y="921.512"/>
      <point x="1059.21" y="979.768" type="qcurve"/>
      <point x="1066.27" y="941.813"/>
      <point x="1066.27" y="905.624" type="qcurve" smooth="yes"/>
      <point x="1066.27" y="722.91" type="line" smooth="yes"/>
      <point x="1066.27" y="576.386"/>
      <point x="963.88" y="453.694" type="qcurve" smooth="yes"/>
      <point x="869.434" y="341.595"/>
      <point x="724.675" y="285.986" type="qcurve"/>
      <point x="714.083" y="281.573"/>
      <point x="533.135" y="225.965" type="qcurve" smooth="yes"/>
      <point x="417.505" y="191.54"/>
      <point x="350.422" y="144.759" type="qcurve"/>
      <point x="379.55" y="113.865"/>
      <point x="479.292" y="96.2115" type="qcurve" smooth="yes"/>
      <point x="558.733" y="81.206"/>
      <point x="624.051" y="81.206" type="qcurve" smooth="yes"/>
      <point x="800.585" y="81.206"/>
      <point x="943.579" y="157.116" type="qcurve"/>
      <point x="967.411" y="167.708"/>
      <point x="986.83" y="167.708" type="qcurve" smooth="yes"/>
      <point x="1019.49" y="167.708"/>
      <point x="1068.04" y="117.396"/>
      <point x="1068.04" y="82.9714" type="qcurve" smooth="yes"/>
      <point x="1068.04" y="43.251"/>
      <point x="1026.55" y="15.8881" type="qcurve" smooth="yes"/>
      <point x="1010.66" y="5.29604"/>
      <point x="969.176" y="-14.1228" type="qcurve" smooth="yes"/>
      <point x="826.183" y="-81.206"/>
      <point x="624.051" y="-81.206" type="qcurve" smooth="yes"/>
      <point x="464.287" y="-81.206"/>
      <point x="346.891" y="-36.1896" type="qcurve" smooth="yes"/>
      <point x="180.948" y="25.5975"/>
      <point x="180.948" y="155.351" type="qcurve" smooth="yes"/>
      <point x="180.948" y="262.154"/>
      <point x="368.958" y="334.533" type="qcurve" smooth="yes"/>
      <point x="541.962" y="399.851"/>
      <point x="715.849" y="466.052" type="qcurve"/>
      <point x="903.858" y="562.263"/>
      <point x="903.858" y="722.91" type="qcurve" smooth="yes"/>
      <point x="903.858" y="824.418" type="line"/>
      <point x="343.36" y="824.418" type="line"/>
      <point x="343.36" y="722.91" type="line" smooth="yes"/>
      <point x="343.36" y="641.704"/>
      <point x="262.154" y="641.704" type="qcurve" smooth="yes"/>
      <point x="180.948" y="641.704"/>
      <point x="180.948" y="722.91" type="qcurve" smooth="yes"/>
      <point x="180.948" y="905.624" type="line" smooth="yes"/>
      <point x="180.948" y="1081.28"/>
      <point x="448.398" y="1348.73"/>
      <point x="625.816" y="1348.73" type="qcurve" smooth="yes"/>
      <point x="736.15" y="1348.73"/>
      <point x="838.54" y="1288.7" type="qcurve" smooth="yes"/>
      <point x="936.517" y="1233.1"/>
      <point x="998.304" y="1135.12" type="qcurve"/>
      <point x="1000.07" y="1227.8"/>
      <point x="1079.51" y="1288.7" type="qcurve"/>
      <point x="1153.65" y="1348.73"/>
      <point x="1247.22" y="1348.73" type="qcurve" smooth="yes"/>
      <point x="1655.9" y="1348.73"/>
      <point x="1655.9" y="1041.56" type="qcurve"/>
    </contour>
    <contour>
      <point x="889.735" y="986.83" type="line"/>
      <point x="860.607" y="1069.8"/>
      <point x="712.318" y="1185.43"/>
      <point x="625.816" y="1185.43" type="qcurve" smooth="yes"/>
      <point x="536.666" y="1185.43"/>
      <point x="386.611" y="1069.8"/>
      <point x="358.366" y="986.83" type="qcurve"/>
    </contour>
  </outline>
</glyph>
<glyph name="uniE025" format="2">
  <advance width="1247"/>
  <unicode hex="E025"/>
  <outline>
    <contour>
      <point x="1245.45" y="82.9714" type="line"/>
      <point x="1245.45" y="43.251"/>
      <point x="1203.97" y="15.8881" type="qcurve" smooth="yes"/>
      <point x="1060.97" y="-81.206"/>
      <point x="802.351" y="-81.206" type="qcurve" smooth="yes"/>
      <point x="643.469" y="-81.206"/>
      <point x="526.074" y="-36.1896" type="qcurve" smooth="yes"/>
      <point x="360.131" y="25.5975"/>
      <point x="360.131" y="155.351" type="qcurve" smooth="yes"/>
      <point x="360.131" y="229.495"/>
      <point x="458.99" y="293.048" type="qcurve" smooth="yes"/>
      <point x="531.37" y="338.064"/>
      <point x="665.536" y="381.315" type="qcurve" smooth="yes"/>
      <point x="755.569" y="410.443"/>
      <point x="845.602" y="437.806" type="qcurve"/>
      <point x="903.858" y="457.225"/>
      <point x="969.176" y="472.231" type="qcurve"/>
      <point x="929.456" y="510.186"/>
      <point x="851.78" y="586.096" type="qcurve" smooth="yes"/>
      <point x="813.825" y="624.051"/>
      <point x="813.825" y="657.592" type="qcurve" smooth="yes"/>
      <point x="813.825" y="726.441"/>
      <point x="905.624" y="726.441" type="qcurve" smooth="yes"/>
      <point x="1083.04" y="726.441" type="line"/>
      <point x="1083.04" y="824.418" type="line"/>
      <point x="522.543" y="824.418" type="line"/>
      <point x="522.543" y="813.825"/>
      <point x="522.543" y="789.993" type="qcurve"/>
      <point x="524.308" y="769.692"/>
      <point x="524.308" y="757.334" type="qcurve" smooth="yes"/>
      <point x="524.308" y="632.877"/>
      <point x="457.225" y="551.671" type="qcurve" smooth="yes"/>
      <point x="384.846" y="462.521"/>
      <point x="262.154" y="462.521" type="qcurve" smooth="yes"/>
      <point x="180.948" y="462.521"/>
      <point x="180.948" y="543.727" type="qcurve" smooth="yes"/>
      <point x="180.948" y="625.816"/>
      <point x="262.154" y="625.816" type="qcurve" smooth="yes"/>
      <point x="301.875" y="625.816"/>
      <point x="360.131" y="683.19"/>
      <point x="360.131" y="722.91" type="qcurve" smooth="yes"/>
      <point x="360.131" y="762.63"/>
      <point x="301.875" y="820.887"/>
      <point x="262.154" y="820.887" type="qcurve" smooth="yes"/>
      <point x="180.948" y="820.887"/>
      <point x="180.948" y="902.093" type="qcurve" smooth="yes"/>
      <point x="180.948" y="983.299"/>
      <point x="262.154" y="983.299" type="qcurve" smooth="yes"/>
      <point x="314.232" y="983.299"/>
      <point x="363.662" y="962.115" type="qcurve"/>
      <point x="386.611" y="1122.76"/>
      <point x="643.469" y="1348.73"/>
      <point x="802.351" y="1348.73" type="qcurve" smooth="yes"/>
      <point x="979.768" y="1348.73"/>
      <point x="1245.45" y="1081.28"/>
      <point x="1245.45" y="905.624" type="qcurve" smooth="yes"/>
      <point x="1245.45" y="645.235" type="line" smooth="yes"/>
      <point x="1245.45" y="589.626"/>
      <point x="1196.91" y="572.855" type="qcurve"/>
      <point x="1173.07" y="564.029"/>
      <point x="1102.46" y="564.029" type="qcurve"/>
      <point x="1162.48" y="493.415"/>
      <point x="1162.48" y="437.806" type="qcurve" smooth="yes"/>
      <point x="1162.48" y="350.422"/>
      <point x="1014.19" y="314.232" type="qcurve" smooth="yes"/>
      <point x="645.235" y="225.965"/>
      <point x="529.604" y="144.759" type="qcurve"/>
      <point x="598.453" y="81.206"/>
      <point x="802.351" y="81.206" type="qcurve" smooth="yes"/>
      <point x="970.941" y="81.206"/>
      <point x="1122.76" y="157.116" type="qcurve"/>
      <point x="1147.48" y="167.708"/>
      <point x="1166.01" y="167.708" type="qcurve" smooth="yes"/>
      <point x="1198.67" y="167.708"/>
      <point x="1245.45" y="117.396"/>
      <point x="1245.45" y="82.9714" type="qcurve"/>
    </contour>
    <contour>
      <point x="1068.04" y="986.83" type="line"/>
      <point x="1041.56" y="1069.8"/>
      <point x="891.501" y="1185.43"/>
      <point x="804.116" y="1185.43" type="qcurve" smooth="yes"/>
      <point x="715.849" y="1185.43"/>
      <point x="564.029" y="1069.8"/>
      <point x="534.9" y="986.83" type="qcurve"/>
    </contour>
  </outline>
</glyph>
<glyph name="uniE027" format="2">
  <advance width="1416"/>
  <unicode hex="E027"/>
  <outline>
    <contour>
      <point x="1417.57" y="82.9714" type="line"/>
      <point x="1417.57" y="43.251"/>
      <point x="1376.09" y="15.8881" type="qcurve" smooth="yes"/>
      <point x="1229.56" y="-81.206"/>
      <point x="972.707" y="-81.206" type="qcurve" smooth="yes"/>
      <point x="835.01" y="-81.206"/>
      <point x="722.91" y="-45.0164" type="qcurve" smooth="yes"/>
      <point x="569.325" y="1.76535"/>
      <point x="538.431" y="103.273" type="qcurve"/>
      <point x="379.55" y="103.273" type="line"/>
      <point x="410.443" y="82.9714"/>
      <point x="475.761" y="43.251"/>
      <point x="475.761" y="1.76535" type="qcurve" smooth="yes"/>
      <point x="475.761" y="-30.8936"/>
      <point x="429.862" y="-82.9714"/>
      <point x="396.321" y="-82.9714" type="qcurve" smooth="yes"/>
      <point x="381.315" y="-82.9714"/>
      <point x="363.662" y="-75.91" type="qcurve" smooth="yes"/>
      <point x="281.573" y="-45.0164"/>
      <point x="180.948" y="99.7422"/>
      <point x="180.948" y="184.479" type="qcurve" smooth="yes"/>
      <point x="180.948" y="269.216"/>
      <point x="281.573" y="413.974"/>
      <point x="363.662" y="444.868" type="qcurve"/>
      <point x="381.315" y="450.164"/>
      <point x="396.321" y="450.164" type="qcurve" smooth="yes"/>
      <point x="429.862" y="450.164"/>
      <point x="475.761" y="399.851"/>
      <point x="475.761" y="365.427" type="qcurve" smooth="yes"/>
      <point x="475.761" y="325.707"/>
      <point x="410.443" y="284.221"/>
      <point x="379.55" y="265.685" type="qcurve"/>
      <point x="591.392" y="265.685" type="line"/>
      <point x="660.24" y="322.176"/>
      <point x="795.289" y="368.958" type="qcurve"/>
      <point x="905.624" y="403.382"/>
      <point x="1015.96" y="437.806" type="qcurve"/>
      <point x="1071.57" y="457.225"/>
      <point x="1138.65" y="472.231" type="qcurve"/>
      <point x="1098.93" y="510.186"/>
      <point x="1021.25" y="586.096" type="qcurve" smooth="yes"/>
      <point x="983.299" y="624.051"/>
      <point x="983.299" y="657.592" type="qcurve" smooth="yes"/>
      <point x="983.299" y="726.441"/>
      <point x="1075.98" y="726.441" type="qcurve" smooth="yes"/>
      <point x="1252.51" y="726.441" type="line"/>
      <point x="1252.51" y="824.418" type="line"/>
      <point x="692.016" y="824.418" type="line"/>
      <point x="692.016" y="813.825"/>
      <point x="693.782" y="789.993" type="qcurve"/>
      <point x="693.782" y="769.692"/>
      <point x="693.782" y="757.334" type="qcurve" smooth="yes"/>
      <point x="693.782" y="641.704"/>
      <point x="610.81" y="641.704" type="qcurve" smooth="yes"/>
      <point x="529.604" y="641.704"/>
      <point x="529.604" y="722.91" type="qcurve" smooth="yes"/>
      <point x="529.604" y="905.624" type="line" smooth="yes"/>
      <point x="529.604" y="1081.28"/>
      <point x="797.055" y="1348.73"/>
      <point x="974.472" y="1348.73" type="qcurve" smooth="yes"/>
      <point x="1150.12" y="1348.73"/>
      <point x="1415.81" y="1081.28"/>
      <point x="1415.81" y="905.624" type="qcurve" smooth="yes"/>
      <point x="1415.81" y="645.235" type="line" smooth="yes"/>
      <point x="1415.81" y="589.626"/>
      <point x="1366.38" y="572.855" type="qcurve"/>
      <point x="1343.43" y="564.029"/>
      <point x="1272.82" y="564.029" type="qcurve"/>
      <point x="1331.96" y="493.415"/>
      <point x="1331.96" y="437.806" type="qcurve" smooth="yes"/>
      <point x="1331.96" y="350.422"/>
      <point x="1185.43" y="314.232" type="qcurve" smooth="yes"/>
      <point x="815.591" y="225.965"/>
      <point x="699.96" y="144.759" type="qcurve"/>
      <point x="767.926" y="81.206"/>
      <point x="972.707" y="81.206" type="qcurve" smooth="yes"/>
      <point x="1140.41" y="81.206"/>
      <point x="1294" y="157.116" type="qcurve"/>
      <point x="1317.83" y="167.708"/>
      <point x="1335.49" y="167.708" type="qcurve" smooth="yes"/>
      <point x="1368.14" y="167.708"/>
      <point x="1417.57" y="117.396"/>
      <point x="1417.57" y="82.9714" type="qcurve"/>
    </contour>
    <contour>
      <point x="1240.16" y="986.83" type="line"/>
      <point x="1211.03" y="1069.8"/>
      <point x="1060.97" y="1185.43"/>
      <point x="974.472" y="1185.43" type="qcurve" smooth="yes"/>
      <point x="886.205" y="1185.43"/>
      <point x="736.15" y="1069.8"/>
      <point x="707.022" y="986.83" type="qcurve"/>
    </contour>
  </outline>
</glyph>
<glyph name="uniE028" format="2">
  <advance width="1446"/>
  <unicode hex="E028"/>
  <outline>
    <contour>
      <point x="1445.82" y="58.2565" type="line"/>
      <point x="1445.82" y="29.1282"/>
      <point x="1424.64" y="3.5307" type="qcurve" smooth="yes"/>
      <point x="1350.49" y="-82.9714"/>
      <point x="1231.33" y="-82.9714" type="qcurve" smooth="yes"/>
      <point x="1104.23" y="-82.9714"/>
      <point x="1026.55" y="15.8881" type="qcurve"/>
      <point x="876.495" y="-81.206"/>
      <point x="624.051" y="-81.206" type="qcurve" smooth="yes"/>
      <point x="466.052" y="-81.206"/>
      <point x="346.891" y="-36.1896" type="qcurve" smooth="yes"/>
      <point x="180.948" y="25.5975"/>
      <point x="180.948" y="155.351" type="qcurve" smooth="yes"/>
      <point x="180.948" y="229.495"/>
      <point x="279.808" y="293.048" type="qcurve" smooth="yes"/>
      <point x="352.187" y="338.064"/>
      <point x="486.353" y="381.315" type="qcurve" smooth="yes"/>
      <point x="576.386" y="410.443"/>
      <point x="667.302" y="437.806" type="qcurve"/>
      <point x="724.675" y="457.225"/>
      <point x="789.993" y="472.231" type="qcurve"/>
      <point x="750.273" y="510.186"/>
      <point x="672.598" y="586.096" type="qcurve" smooth="yes"/>
      <point x="634.643" y="624.051"/>
      <point x="634.643" y="657.592" type="qcurve" smooth="yes"/>
      <point x="634.643" y="726.441"/>
      <point x="726.441" y="726.441" type="qcurve" smooth="yes"/>
      <point x="903.858" y="726.441" type="line"/>
      <point x="903.858" y="824.418" type="line"/>
      <point x="343.36" y="824.418" type="line"/>
      <point x="343.36" y="813.825"/>
      <point x="343.36" y="789.993" type="qcurve"/>
      <point x="345.126" y="769.692"/>
      <point x="345.126" y="757.334" type="qcurve" smooth="yes"/>
      <point x="345.126" y="641.704"/>
      <point x="262.154" y="641.704" type="qcurve" smooth="yes"/>
      <point x="180.948" y="641.704"/>
      <point x="180.948" y="722.91" type="qcurve" smooth="yes"/>
      <point x="180.948" y="905.624" type="line" smooth="yes"/>
      <point x="180.948" y="1081.28"/>
      <point x="448.398" y="1348.73"/>
      <point x="625.816" y="1348.73" type="qcurve" smooth="yes"/>
      <point x="800.585" y="1348.73"/>
      <point x="1066.27" y="1081.28"/>
      <point x="1066.27" y="905.624" type="qcurve" smooth="yes"/>
      <point x="1066.27" y="645.235" type="line" smooth="yes"/>
      <point x="1066.27" y="589.626"/>
      <point x="1017.72" y="572.855" type="qcurve"/>
      <point x="993.891" y="564.029"/>
      <point x="924.16" y="564.029" type="qcurve"/>
      <point x="983.299" y="493.415"/>
      <point x="983.299" y="437.806" type="qcurve" smooth="yes"/>
      <point x="983.299" y="350.422"/>
      <point x="835.01" y="314.232" type="qcurve" smooth="yes"/>
      <point x="466.052" y="225.965"/>
      <point x="350.422" y="144.759" type="qcurve"/>
      <point x="419.27" y="81.206"/>
      <point x="624.051" y="81.206" type="qcurve" smooth="yes"/>
      <point x="795.289" y="81.206"/>
      <point x="943.579" y="157.116" type="qcurve"/>
      <point x="959.467" y="164.177"/>
      <point x="970.941" y="165.943" type="qcurve"/>
      <point x="970.941" y="182.714" type="line"/>
      <point x="969.176" y="287.752"/>
      <point x="1124.53" y="437.806"/>
      <point x="1231.33" y="437.806" type="qcurve" smooth="yes"/>
      <point x="1312.54" y="437.806"/>
      <point x="1312.54" y="355.718" type="qcurve" smooth="yes"/>
      <point x="1312.54" y="274.512"/>
      <point x="1231.33" y="274.512" type="qcurve" smooth="yes"/>
      <point x="1191.61" y="274.512"/>
      <point x="1133.35" y="217.138"/>
      <point x="1133.35" y="177.417" type="qcurve" smooth="yes"/>
      <point x="1133.35" y="137.697"/>
      <point x="1191.61" y="79.4407"/>
      <point x="1231.33" y="79.4407" type="qcurve" smooth="yes"/>
      <point x="1267.52" y="79.4407"/>
      <point x="1333.72" y="141.228"/>
      <point x="1362.85" y="141.228" type="qcurve" smooth="yes"/>
      <point x="1395.51" y="141.228"/>
      <point x="1445.82" y="90.0327"/>
      <point x="1445.82" y="58.2565" type="qcurve"/>
    </contour>
    <contour>
      <point x="891.501" y="986.83" type="line"/>
      <point x="862.372" y="1069.8"/>
      <point x="712.318" y="1185.43"/>
      <point x="625.816" y="1185.43" type="qcurve" smooth="yes"/>
      <point x="536.666" y="1185.43"/>
      <point x="384.846" y="1069.8"/>
      <point x="358.366" y="986.83" type="qcurve"/>
    </contour>
  </outline>
</glyph>
<glyph name="uniE029" format="2">
  <advance width="1490"/>
  <unicode hex="E029"/>
  <outline>
    <contour>
      <point x="1489.95" y="969.176" type="line"/>
      <point x="1489.95" y="940.048"/>
      <point x="1467.89" y="912.685" type="qcurve"/>
      <point x="1395.51" y="827.948"/>
      <point x="1274.58" y="827.948" type="qcurve" smooth="yes"/>
      <point x="1143.95" y="827.948"/>
      <point x="1064.5" y="932.986" type="qcurve"/>
      <point x="1066.27" y="917.981"/>
      <point x="1066.27" y="905.624" type="qcurve" smooth="yes"/>
      <point x="1066.27" y="645.235" type="line" smooth="yes"/>
      <point x="1066.27" y="589.626"/>
      <point x="1017.72" y="572.855" type="qcurve"/>
      <point x="993.891" y="564.029"/>
      <point x="924.16" y="564.029" type="qcurve"/>
      <point x="983.299" y="493.415"/>
      <point x="983.299" y="437.806" type="qcurve" smooth="yes"/>
      <point x="983.299" y="350.422"/>
      <point x="835.01" y="314.232" type="qcurve" smooth="yes"/>
      <point x="466.052" y="225.965"/>
      <point x="350.422" y="144.759" type="qcurve"/>
      <point x="419.27" y="81.206"/>
      <point x="624.051" y="81.206" type="qcurve" smooth="yes"/>
      <point x="791.759" y="81.206"/>
      <point x="943.579" y="157.116" type="qcurve"/>
      <point x="969.176" y="167.708"/>
      <point x="986.83" y="167.708" type="qcurve" smooth="yes"/>
      <point x="1019.49" y="167.708"/>
      <point x="1068.04" y="117.396"/>
      <point x="1068.04" y="82.9714" type="qcurve" smooth="yes"/>
      <point x="1068.04" y="43.251"/>
      <point x="1026.55" y="15.8881" type="qcurve" smooth="yes"/>
      <point x="878.261" y="-81.206"/>
      <point x="624.051" y="-81.206" type="qcurve" smooth="yes"/>
      <point x="466.052" y="-81.206"/>
      <point x="346.891" y="-36.1896" type="qcurve" smooth="yes"/>
      <point x="180.948" y="25.5975"/>
      <point x="180.948" y="155.351" type="qcurve" smooth="yes"/>
      <point x="180.948" y="229.495"/>
      <point x="279.808" y="293.048" type="qcurve" smooth="yes"/>
      <point x="352.187" y="338.064"/>
      <point x="486.353" y="381.315" type="qcurve" smooth="yes"/>
      <point x="576.386" y="410.443"/>
      <point x="667.302" y="437.806" type="qcurve"/>
      <point x="724.675" y="457.225"/>
      <point x="789.993" y="472.231" type="qcurve"/>
      <point x="750.273" y="510.186"/>
      <point x="672.598" y="586.096" type="qcurve" smooth="yes"/>
      <point x="634.643" y="624.051"/>
      <point x="634.643" y="657.592" type="qcurve" smooth="yes"/>
      <point x="634.643" y="726.441"/>
      <point x="726.441" y="726.441" type="qcurve" smooth="yes"/>
      <point x="903.858" y="726.441" type="line"/>
      <point x="903.858" y="824.418" type="line"/>
      <point x="343.36" y="824.418" type="line"/>
      <point x="343.36" y="813.825"/>
      <point x="343.36" y="789.993" type="qcurve"/>
      <point x="345.126" y="769.692"/>
      <point x="345.126" y="757.334" type="qcurve" smooth="yes"/>
      <point x="345.126" y="641.704"/>
      <point x="262.154" y="641.704" type="qcurve" smooth="yes"/>
      <point x="180.948" y="641.704"/>
      <point x="180.948" y="722.91" type="qcurve" smooth="yes"/>
      <point x="180.948" y="905.624" type="line" smooth="yes"/>
      <point x="180.948" y="1081.28"/>
      <point x="448.398" y="1348.73"/>
      <point x="625.816" y="1348.73" type="qcurve" smooth="yes"/>
      <point x="744.977" y="1348.73"/>
      <point x="955.936" y="1214.56"/>
      <point x="1014.19" y="1105.99" type="qcurve"/>
      <point x="1021.25" y="1207.5"/>
      <point x="1171.31" y="1348.73"/>
      <point x="1274.58" y="1348.73" type="qcurve" smooth="yes"/>
      <point x="1355.79" y="1348.73"/>
      <point x="1355.79" y="1267.52" type="qcurve" smooth="yes"/>
      <point x="1355.79" y="1185.43"/>
      <point x="1274.58" y="1185.43" type="qcurve" smooth="yes"/>
      <point x="1234.86" y="1185.43"/>
      <point x="1176.6" y="1128.06"/>
      <point x="1176.6" y="1088.34" type="qcurve" smooth="yes"/>
      <point x="1176.6" y="1048.62"/>
      <point x="1234.86" y="990.36"/>
      <point x="1274.58" y="990.36" type="qcurve" smooth="yes"/>
      <point x="1310.77" y="990.36"/>
      <point x="1377.85" y="1050.38"/>
      <point x="1406.1" y="1050.38" type="qcurve" smooth="yes"/>
      <point x="1438.76" y="1050.38"/>
      <point x="1489.95" y="1001.83"/>
      <point x="1489.95" y="969.176" type="qcurve"/>
    </contour>
    <contour>
      <point x="891.501" y="986.83" type="line"/>
      <point x="862.372" y="1069.8"/>
      <point x="712.318" y="1185.43"/>
      <point x="625.816" y="1185.43" type="qcurve" smooth="yes"/>
      <point x="536.666" y="1185.43"/>
      <point x="384.846" y="1069.8"/>
      <point x="358.366" y="986.83" type="qcurve"/>
    </contour>
  </outline>
</glyph>
<glyph name="uniE02C" format="2">
  <advance width="1516"/>
  <unicode hex="E02C"/>
  <outline>
    <contour>
      <point x="1518.2" y="82.9714" type="line"/>
      <point x="1518.2" y="43.251"/>
      <point x="1476.71" y="15.8881" type="qcurve" smooth="yes"/>
      <point x="1330.19" y="-81.206"/>
      <point x="1074.21" y="-81.206" type="qcurve" smooth="yes"/>
      <point x="940.048" y="-81.206"/>
      <point x="829.714" y="-46.7817" type="qcurve" smooth="yes"/>
      <point x="677.894" y="-1.76535"/>
      <point x="641.704" y="96.2115" type="qcurve"/>
      <point x="616.106" y="15.8881"/>
      <point x="479.292" y="-81.206"/>
      <point x="396.321" y="-81.206" type="qcurve" smooth="yes"/>
      <point x="274.512" y="-81.206"/>
      <point x="202.132" y="3.5307" type="qcurve"/>
      <point x="180.948" y="30.8936"/>
      <point x="180.948" y="58.2565" type="qcurve" smooth="yes"/>
      <point x="180.948" y="91.7981"/>
      <point x="231.261" y="141.228"/>
      <point x="263.92" y="141.228" type="qcurve" smooth="yes"/>
      <point x="293.048" y="141.228"/>
      <point x="360.131" y="81.206"/>
      <point x="396.321" y="81.206" type="qcurve" smooth="yes"/>
      <point x="436.041" y="81.206"/>
      <point x="493.415" y="139.462"/>
      <point x="493.415" y="179.183" type="qcurve" smooth="yes"/>
      <point x="493.415" y="218.903"/>
      <point x="436.041" y="276.277"/>
      <point x="396.321" y="276.277" type="qcurve" smooth="yes"/>
      <point x="314.232" y="276.277"/>
      <point x="314.232" y="358.366" type="qcurve" smooth="yes"/>
      <point x="314.232" y="439.572"/>
      <point x="396.321" y="439.572" type="qcurve" smooth="yes"/>
      <point x="491.649" y="439.572"/>
      <point x="636.408" y="315.997"/>
      <point x="652.296" y="222.434" type="qcurve"/>
      <point x="701.726" y="294.813"/>
      <point x="865.903" y="355.718" type="qcurve"/>
      <point x="992.126" y="398.086"/>
      <point x="1119.23" y="437.806" type="qcurve"/>
      <point x="1174.84" y="457.225"/>
      <point x="1240.16" y="472.231" type="qcurve"/>
      <point x="1200.44" y="510.186"/>
      <point x="1122.76" y="586.096" type="qcurve"/>
      <point x="1086.57" y="624.051"/>
      <point x="1086.57" y="657.592" type="qcurve" smooth="yes"/>
      <point x="1086.57" y="726.441"/>
      <point x="1178.37" y="726.441" type="qcurve" smooth="yes"/>
      <point x="1354.02" y="726.441" type="line"/>
      <point x="1354.02" y="824.418" type="line"/>
      <point x="793.524" y="824.418" type="line"/>
      <point x="795.289" y="813.825"/>
      <point x="795.289" y="789.993" type="qcurve" smooth="yes"/>
      <point x="795.289" y="769.692"/>
      <point x="795.289" y="757.334" type="qcurve" smooth="yes"/>
      <point x="795.289" y="641.704"/>
      <point x="712.318" y="641.704" type="qcurve" smooth="yes"/>
      <point x="631.112" y="641.704"/>
      <point x="631.112" y="722.91" type="qcurve" smooth="yes"/>
      <point x="631.112" y="905.624" type="line" smooth="yes"/>
      <point x="631.112" y="1081.28"/>
      <point x="898.562" y="1348.73"/>
      <point x="1075.98" y="1348.73" type="qcurve" smooth="yes"/>
      <point x="1250.75" y="1348.73"/>
      <point x="1516.43" y="1081.28"/>
      <point x="1516.43" y="905.624" type="qcurve" smooth="yes"/>
      <point x="1516.43" y="645.235" type="line" smooth="yes"/>
      <point x="1516.43" y="589.626"/>
      <point x="1469.65" y="572.855" type="qcurve" smooth="yes"/>
      <point x="1444.05" y="564.029"/>
      <point x="1373.44" y="564.029" type="qcurve"/>
      <point x="1435.23" y="493.415"/>
      <point x="1435.23" y="437.806" type="qcurve" smooth="yes"/>
      <point x="1435.23" y="350.422"/>
      <point x="1286.94" y="314.232" type="qcurve" smooth="yes"/>
      <point x="916.216" y="225.965"/>
      <point x="800.585" y="144.759" type="qcurve"/>
      <point x="871.199" y="81.206"/>
      <point x="1074.21" y="81.206" type="qcurve" smooth="yes"/>
      <point x="1241.92" y="81.206"/>
      <point x="1395.51" y="157.116" type="qcurve"/>
      <point x="1421.11" y="167.708"/>
      <point x="1438.76" y="167.708" type="qcurve" smooth="yes"/>
      <point x="1471.42" y="167.708"/>
      <point x="1518.2" y="117.396"/>
      <point x="1518.2" y="82.9714" type="qcurve"/>
    </contour>
    <contour>
      <point x="1341.66" y="986.83" type="line"/>
      <point x="1312.54" y="1069.8"/>
      <point x="1162.48" y="1185.43"/>
      <point x="1075.98" y="1185.43" type="qcurve" smooth="yes"/>
      <point x="988.595" y="1185.43"/>
      <point x="836.775" y="1069.8"/>
      <point x="807.647" y="986.83" type="qcurve"/>
    </contour>
  </outline>
</glyph>
<glyph name="uniE02F" format="2">
  <advance width="1396"/>
  <unicode hex="E02F"/>
  <outline>
    <contour>
      <point x="1395.51" y="314.232" type="line"/>
      <point x="1395.51" y="139.462"/>
      <point x="1279.88" y="-3.5307" type="qcurve"/>
      <point x="1265.75" y="-22.0668"/>
      <point x="1234.86" y="-55.6085" type="qcurve"/>
      <point x="1205.73" y="-82.9714"/>
      <point x="1174.84" y="-82.9714" type="qcurve" smooth="yes"/>
      <point x="1142.18" y="-82.9714"/>
      <point x="1091.87" y="-32.6589"/>
      <point x="1091.87" y="0" type="qcurve" smooth="yes"/>
      <point x="1091.87" y="27.3629"/>
      <point x="1121" y="63.5525" type="qcurve"/>
      <point x="1143.95" y="90.0327"/>
      <point x="1167.78" y="117.396" type="qcurve"/>
      <point x="1129.82" y="122.692" type="line"/>
      <point x="1039.79" y="34.4243"/>
      <point x="752.038" y="-81.206"/>
      <point x="624.051" y="-81.206" type="qcurve" smooth="yes"/>
      <point x="466.052" y="-81.206"/>
      <point x="346.891" y="-36.1896" type="qcurve" smooth="yes"/>
      <point x="180.948" y="25.5975"/>
      <point x="180.948" y="155.351" type="qcurve" smooth="yes"/>
      <point x="180.948" y="260.389"/>
      <point x="377.784" y="341.595" type="qcurve"/>
      <point x="522.543" y="390.142"/>
      <point x="667.302" y="437.806" type="qcurve" smooth="yes"/>
      <point x="719.379" y="455.46"/>
      <point x="789.993" y="472.231" type="qcurve"/>
      <point x="782.932" y="479.292"/>
      <point x="672.598" y="586.096" type="qcurve" smooth="yes"/>
      <point x="634.643" y="622.285"/>
      <point x="634.643" y="657.592" type="qcurve" smooth="yes"/>
      <point x="634.643" y="726.441"/>
      <point x="726.441" y="726.441" type="qcurve" smooth="yes"/>
      <point x="903.858" y="726.441" type="line"/>
      <point x="903.858" y="824.418" type="line"/>
      <point x="343.36" y="824.418" type="line"/>
      <point x="343.36" y="719.379"/>
      <point x="341.595" y="707.022" type="qcurve"/>
      <point x="327.472" y="641.704"/>
      <point x="262.154" y="641.704" type="qcurve" smooth="yes"/>
      <point x="180.948" y="641.704"/>
      <point x="180.948" y="722.91" type="qcurve" smooth="yes"/>
      <point x="180.948" y="905.624" type="line" smooth="yes"/>
      <point x="180.948" y="1081.28"/>
      <point x="448.398" y="1348.73"/>
      <point x="625.816" y="1348.73" type="qcurve" smooth="yes"/>
      <point x="800.585" y="1348.73"/>
      <point x="1066.27" y="1081.28"/>
      <point x="1066.27" y="905.624" type="qcurve" smooth="yes"/>
      <point x="1066.27" y="645.235" type="line" smooth="yes"/>
      <point x="1066.27" y="610.81"/>
      <point x="1021.25" y="564.029"/>
      <point x="924.16" y="564.029" type="qcurve"/>
      <point x="983.299" y="493.415"/>
      <point x="983.299" y="437.806" type="qcurve" smooth="yes"/>
      <point x="983.299" y="348.656"/>
      <point x="835.01" y="314.232" type="qcurve" smooth="yes"/>
      <point x="469.583" y="229.495"/>
      <point x="350.422" y="144.759" type="qcurve"/>
      <point x="384.846" y="113.865"/>
      <point x="481.057" y="96.2115" type="qcurve" smooth="yes"/>
      <point x="555.202" y="81.206"/>
      <point x="624.051" y="81.206" type="qcurve" smooth="yes"/>
      <point x="712.318" y="81.206"/>
      <point x="925.925" y="160.647"/>
      <point x="993.891" y="218.903" type="qcurve"/>
      <point x="967.411" y="262.154"/>
      <point x="967.411" y="314.232" type="qcurve" smooth="yes"/>
      <point x="967.411" y="399.851"/>
      <point x="1095.4" y="513.716"/>
      <point x="1181.9" y="513.716" type="qcurve" smooth="yes"/>
      <point x="1267.52" y="513.716"/>
      <point x="1395.51" y="399.851"/>
      <point x="1395.51" y="314.232" type="qcurve"/>
    </contour>
    <contour>
      <point x="891.501" y="986.83" type="line"/>
      <point x="862.372" y="1069.8"/>
      <point x="710.553" y="1185.43"/>
      <point x="625.816" y="1185.43" type="qcurve" smooth="yes"/>
      <point x="536.666" y="1185.43"/>
      <point x="384.846" y="1069.8"/>
      <point x="358.366" y="986.83" type="qcurve"/>
    </contour>
    <contour>
      <point x="1233.1" y="314.232" type="line"/>
      <point x="1233.1" y="350.422"/>
      <point x="1181.9" y="350.422" type="qcurve" smooth="yes"/>
      <point x="1129.82" y="350.422"/>
      <point x="1129.82" y="314.232" type="qcurve" smooth="yes"/>
      <point x="1129.82" y="279.808"/>
      <point x="1181.9" y="279.808" type="qcurve" smooth="yes"/>
      <point x="1233.1" y="279.808"/>
      <point x="1233.1" y="314.232" type="qcurve"/>
    </contour>
  </outline>
</glyph>
<glyph name="uniE032" format="2">
  <advance width="1531"/>
  <unicode hex="E032"/>
  <outline>
    <contour>
      <point x="1531.44" y="645.235" type="line"/>
      <point x="1531.44" y="560.498"/>
      <point x="1429.93" y="417.505"/>
      <point x="1348.73" y="384.846" type="qcurve"/>
      <point x="1330.19" y="379.55"/>
      <point x="1316.07" y="379.55" type="qcurve" smooth="yes"/>
      <point x="1281.64" y="379.55"/>
      <point x="1236.63" y="429.862"/>
      <point x="1236.63" y="464.287" type="qcurve" smooth="yes"/>
      <point x="1236.63" y="504.007"/>
      <point x="1300.18" y="543.727"/>
      <point x="1330.19" y="564.029" type="qcurve"/>
      <point x="948.875" y="564.029" type="line"/>
      <point x="1068.04" y="441.337"/>
      <point x="1068.04" y="296.578" type="qcurve" smooth="yes"/>
      <point x="1068.04" y="126.222"/>
      <point x="905.624" y="17.6535" type="qcurve" smooth="yes"/>
      <point x="760.865" y="-79.4407"/>
      <point x="584.33" y="-79.4407" type="qcurve" smooth="yes"/>
      <point x="488.119" y="-79.4407"/>
      <point x="390.142" y="-52.0778" type="qcurve" smooth="yes"/>
      <point x="278.042" y="-23.8322"/>
      <point x="213.607" y="30.8936" type="qcurve" smooth="yes"/>
      <point x="180.948" y="58.2565"/>
      <point x="180.948" y="91.7981" type="qcurve" smooth="yes"/>
      <point x="180.948" y="126.222"/>
      <point x="229.495" y="177.417"/>
      <point x="262.154" y="177.417" type="qcurve" smooth="yes"/>
      <point x="285.986" y="177.417"/>
      <point x="312.467" y="158.881" type="qcurve"/>
      <point x="428.097" y="82.9714"/>
      <point x="584.33" y="82.9714" type="qcurve" smooth="yes"/>
      <point x="688.486" y="82.9714"/>
      <point x="788.228" y="137.697" type="qcurve" smooth="yes"/>
      <point x="905.624" y="200.367"/>
      <point x="905.624" y="296.578" type="qcurve" smooth="yes"/>
      <point x="905.624" y="399.851"/>
      <point x="795.289" y="484.588" type="qcurve" smooth="yes"/>
      <point x="692.016" y="564.029"/>
      <point x="584.33" y="564.029" type="qcurve" smooth="yes"/>
      <point x="498.711" y="564.029"/>
      <point x="498.711" y="645.235" type="qcurve" smooth="yes"/>
      <point x="498.711" y="726.441"/>
      <point x="584.33" y="726.441" type="qcurve" smooth="yes"/>
      <point x="690.251" y="726.441"/>
      <point x="791.759" y="797.055" type="qcurve"/>
      <point x="905.624" y="872.965"/>
      <point x="905.624" y="974.472" type="qcurve" smooth="yes"/>
      <point x="905.624" y="1069.8"/>
      <point x="788.228" y="1133.35" type="qcurve" smooth="yes"/>
      <point x="688.486" y="1188.08"/>
      <point x="584.33" y="1188.08" type="qcurve" smooth="yes"/>
      <point x="428.097" y="1188.08"/>
      <point x="312.467" y="1112.17" type="qcurve"/>
      <point x="285.986" y="1091.87"/>
      <point x="262.154" y="1091.87" type="qcurve" smooth="yes"/>
      <point x="229.495" y="1091.87"/>
      <point x="180.948" y="1143.95"/>
      <point x="180.948" y="1176.6" type="qcurve" smooth="yes"/>
      <point x="180.948" y="1212.79"/>
      <point x="213.607" y="1240.16" type="qcurve" smooth="yes"/>
      <point x="278.042" y="1292.23"/>
      <point x="390.142" y="1323.13" type="qcurve" smooth="yes"/>
      <point x="488.119" y="1350.49"/>
      <point x="584.33" y="1350.49" type="qcurve" smooth="yes"/>
      <point x="760.865" y="1350.49"/>
      <point x="905.624" y="1252.51" type="qcurve" smooth="yes"/>
      <point x="1068.04" y="1142.18"/>
      <point x="1068.04" y="974.472" type="qcurve" smooth="yes"/>
      <point x="1068.04" y="836.775"/>
      <point x="959.467" y="726.441" type="qcurve"/>
      <point x="1330.19" y="726.441" type="line"/>
      <point x="1300.18" y="744.977"/>
      <point x="1236.63" y="786.463"/>
      <point x="1236.63" y="826.183" type="qcurve" smooth="yes"/>
      <point x="1236.63" y="860.607"/>
      <point x="1281.64" y="910.92"/>
      <point x="1316.07" y="910.92" type="qcurve" smooth="yes"/>
      <point x="1330.19" y="910.92"/>
      <point x="1348.73" y="905.624" type="qcurve"/>
      <point x="1429.93" y="872.965"/>
      <point x="1531.44" y="729.971"/>
      <point x="1531.44" y="645.235" type="qcurve"/>
    </contour>
  </outline>
</glyph>
<glyph name="uniE034" format="2">
  <advance width="1509"/>
  <unicode hex="E034"/>
  <outline>
    <contour>
      <point x="1511.14" y="256.858" type="line"/>
      <point x="1511.14" y="229.495"/>
      <point x="1488.19" y="202.132" type="qcurve"/>
      <point x="1419.34" y="115.63"/>
      <point x="1295.77" y="115.63" type="qcurve" smooth="yes"/>
      <point x="1138.65" y="115.63"/>
      <point x="1064.5" y="255.093" type="qcurve"/>
      <point x="1046.85" y="105.038"/>
      <point x="887.97" y="7.06139" type="qcurve" smooth="yes"/>
      <point x="748.508" y="-79.4407"/>
      <point x="584.33" y="-79.4407" type="qcurve" smooth="yes"/>
      <point x="489.884" y="-79.4407"/>
      <point x="390.142" y="-52.0778" type="qcurve" smooth="yes"/>
      <point x="274.512" y="-22.0668"/>
      <point x="213.607" y="30.8936" type="qcurve" smooth="yes"/>
      <point x="180.948" y="58.2565"/>
      <point x="180.948" y="91.7981" type="qcurve" smooth="yes"/>
      <point x="180.948" y="126.222"/>
      <point x="229.495" y="177.417"/>
      <point x="262.154" y="177.417" type="qcurve" smooth="yes"/>
      <point x="285.986" y="177.417"/>
      <point x="312.467" y="158.881" type="qcurve"/>
      <point x="428.097" y="82.9714"/>
      <point x="584.33" y="82.9714" type="qcurve" smooth="yes"/>
      <point x="688.486" y="82.9714"/>
      <point x="788.228" y="137.697" type="qcurve" smooth="yes"/>
      <point x="905.624" y="200.367"/>
      <point x="905.624" y="296.578" type="qcurve" smooth="yes"/>
      <point x="905.624" y="399.851"/>
      <point x="795.289" y="484.588" type="qcurve" smooth="yes"/>
      <point x="692.016" y="564.029"/>
      <point x="584.33" y="564.029" type="qcurve" smooth="yes"/>
      <point x="502.242" y="564.029"/>
      <point x="502.242" y="645.235" type="qcurve" smooth="yes"/>
      <point x="502.242" y="726.441"/>
      <point x="584.33" y="726.441" type="qcurve" smooth="yes"/>
      <point x="690.251" y="726.441"/>
      <point x="791.759" y="797.055" type="qcurve"/>
      <point x="905.624" y="872.965"/>
      <point x="905.624" y="974.472" type="qcurve" smooth="yes"/>
      <point x="905.624" y="1069.8"/>
      <point x="788.228" y="1133.35" type="qcurve" smooth="yes"/>
      <point x="688.486" y="1188.08"/>
      <point x="584.33" y="1188.08" type="qcurve" smooth="yes"/>
      <point x="428.097" y="1188.08"/>
      <point x="312.467" y="1112.17" type="qcurve"/>
      <point x="285.986" y="1091.87"/>
      <point x="262.154" y="1091.87" type="qcurve" smooth="yes"/>
      <point x="229.495" y="1091.87"/>
      <point x="180.948" y="1143.95"/>
      <point x="180.948" y="1176.6" type="qcurve" smooth="yes"/>
      <point x="180.948" y="1211.03"/>
      <point x="213.607" y="1240.16" type="qcurve" smooth="yes"/>
      <point x="274.512" y="1292.23"/>
      <point x="390.142" y="1323.13" type="qcurve" smooth="yes"/>
      <point x="489.884" y="1350.49"/>
      <point x="584.33" y="1350.49" type="qcurve" smooth="yes"/>
      <point x="760.865" y="1350.49"/>
      <point x="905.624" y="1252.51" type="qcurve" smooth="yes"/>
      <point x="1068.04" y="1142.18"/>
      <point x="1068.04" y="974.472" type="qcurve" smooth="yes"/>
      <point x="1068.04" y="769.692"/>
      <point x="853.546" y="641.704" type="qcurve"/>
      <point x="986.83" y="556.967"/>
      <point x="1041.56" y="428.097" type="qcurve"/>
      <point x="1059.21" y="519.012"/>
      <point x="1202.2" y="636.408"/>
      <point x="1295.77" y="636.408" type="qcurve" smooth="yes"/>
      <point x="1377.85" y="636.408"/>
      <point x="1377.85" y="555.202" type="qcurve" smooth="yes"/>
      <point x="1377.85" y="473.996"/>
      <point x="1295.77" y="473.996" type="qcurve" smooth="yes"/>
      <point x="1256.05" y="473.996"/>
      <point x="1198.67" y="415.739"/>
      <point x="1198.67" y="376.019" type="qcurve" smooth="yes"/>
      <point x="1198.67" y="336.299"/>
      <point x="1256.05" y="278.042"/>
      <point x="1295.77" y="278.042" type="qcurve" smooth="yes"/>
      <point x="1331.96" y="278.042"/>
      <point x="1399.04" y="339.829"/>
      <point x="1426.4" y="339.829" type="qcurve" smooth="yes"/>
      <point x="1460.83" y="339.829"/>
      <point x="1511.14" y="289.517"/>
      <point x="1511.14" y="256.858" type="qcurve"/>
    </contour>
  </outline>
</glyph>
<glyph name="uniE036" format="2">
  <advance width="1307"/>
  <unicode hex="E036"/>
  <outline>
    <contour>
      <point x="1307.24" y="296.578" type="line"/>
      <point x="1307.24" y="126.222"/>
      <point x="1143.95" y="17.6535" type="qcurve" smooth="yes"/>
      <point x="1000.07" y="-79.4407"/>
      <point x="824.418" y="-79.4407" type="qcurve" smooth="yes"/>
      <point x="729.971" y="-79.4407"/>
      <point x="627.581" y="-52.0778" type="qcurve" smooth="yes"/>
      <point x="507.538" y="-22.0668"/>
      <point x="451.929" y="30.8936" type="qcurve" smooth="yes"/>
      <point x="419.27" y="61.7872"/>
      <point x="419.27" y="91.7981" type="qcurve" smooth="yes"/>
      <point x="419.27" y="126.222"/>
      <point x="467.817" y="177.417"/>
      <point x="502.242" y="177.417" type="qcurve" smooth="yes"/>
      <point x="522.543" y="177.417"/>
      <point x="551.671" y="158.881" type="qcurve" smooth="yes"/>
      <point x="674.363" y="82.9714"/>
      <point x="824.418" y="82.9714" type="qcurve" smooth="yes"/>
      <point x="927.69" y="82.9714"/>
      <point x="1026.55" y="137.697" type="qcurve" smooth="yes"/>
      <point x="1143.95" y="200.367"/>
      <point x="1143.95" y="296.578" type="qcurve" smooth="yes"/>
      <point x="1143.95" y="399.851"/>
      <point x="1033.61" y="484.588" type="qcurve" smooth="yes"/>
      <point x="931.221" y="564.029"/>
      <point x="824.418" y="564.029" type="qcurve" smooth="yes"/>
      <point x="743.212" y="564.029"/>
      <point x="743.212" y="645.235" type="qcurve" smooth="yes"/>
      <point x="743.212" y="681.424"/>
      <point x="788.228" y="726.441"/>
      <point x="824.418" y="726.441" type="qcurve" smooth="yes"/>
      <point x="929.456" y="726.441"/>
      <point x="1031.85" y="797.055" type="qcurve" smooth="yes"/>
      <point x="1143.95" y="872.965"/>
      <point x="1143.95" y="974.472" type="qcurve" smooth="yes"/>
      <point x="1143.95" y="1091.87"/>
      <point x="1007.13" y="1145.71" type="qcurve" smooth="yes"/>
      <point x="909.154" y="1183.67"/>
      <point x="767.926" y="1183.67" type="qcurve" smooth="yes"/>
      <point x="698.195" y="1183.67"/>
      <point x="629.347" y="1174.84" type="qcurve" smooth="yes"/>
      <point x="536.666" y="1162.48"/>
      <point x="460.756" y="1133.35" type="qcurve" smooth="yes"/>
      <point x="343.36" y="1088.34"/>
      <point x="343.36" y="1028.32" type="qcurve" smooth="yes"/>
      <point x="343.36" y="988.595"/>
      <point x="401.617" y="931.221"/>
      <point x="441.337" y="931.221" type="qcurve" smooth="yes"/>
      <point x="475.761" y="931.221"/>
      <point x="522.543" y="886.205"/>
      <point x="522.543" y="850.015" type="qcurve" smooth="yes"/>
      <point x="522.543" y="813.825"/>
      <point x="475.761" y="767.926"/>
      <point x="441.337" y="767.926" type="qcurve" smooth="yes"/>
      <point x="334.533" y="767.926"/>
      <point x="180.948" y="921.512"/>
      <point x="180.948" y="1028.32" type="qcurve" smooth="yes"/>
      <point x="180.948" y="1147.48"/>
      <point x="305.405" y="1231.33" type="qcurve" smooth="yes"/>
      <point x="401.617" y="1295.77"/>
      <point x="538.431" y="1326.66" type="qcurve" smooth="yes"/>
      <point x="643.469" y="1350.49"/>
      <point x="755.569" y="1350.49" type="qcurve" smooth="yes"/>
      <point x="969.176" y="1350.49"/>
      <point x="1119.23" y="1269.29" type="qcurve" smooth="yes"/>
      <point x="1307.24" y="1169.54"/>
      <point x="1307.24" y="974.472" type="qcurve" smooth="yes"/>
      <point x="1307.24" y="769.692"/>
      <point x="1091.87" y="641.704" type="qcurve"/>
      <point x="1307.24" y="504.007"/>
      <point x="1307.24" y="296.578" type="qcurve"/>
    </contour>
  </outline>
</glyph>
<glyph name="uniE038" format="2">
  <advance width="1363"/>
  <unicode hex="E038"/>
  <outline>
    <contour>
      <point x="1362.85" y="296.578" type="line"/>
      <point x="1362.85" y="126.222"/>
      <point x="1202.2" y="17.6535" type="qcurve" smooth="yes"/>
      <point x="1057.44" y="-79.4407"/>
      <point x="880.026" y="-79.4407" type="qcurve" smooth="yes"/>
      <point x="710.553" y="-79.4407"/>
      <point x="574.621" y="-10.5921" type="qcurve"/>
      <point x="498.711" y="-81.206"/>
      <point x="396.321" y="-81.206" type="qcurve" smooth="yes"/>
      <point x="272.746" y="-81.206"/>
      <point x="202.132" y="3.5307" type="qcurve"/>
      <point x="180.948" y="32.6589"/>
      <point x="180.948" y="58.2565" type="qcurve" smooth="yes"/>
      <point x="180.948" y="91.7981"/>
      <point x="231.261" y="141.228"/>
      <point x="263.92" y="141.228" type="qcurve" smooth="yes"/>
      <point x="293.048" y="141.228"/>
      <point x="360.131" y="81.206"/>
      <point x="396.321" y="81.206" type="qcurve" smooth="yes"/>
      <point x="436.041" y="81.206"/>
      <point x="493.415" y="139.462"/>
      <point x="493.415" y="179.183" type="qcurve" smooth="yes"/>
      <point x="493.415" y="218.903"/>
      <point x="436.041" y="276.277"/>
      <point x="396.321" y="276.277" type="qcurve" smooth="yes"/>
      <point x="314.232" y="276.277"/>
      <point x="314.232" y="358.366" type="qcurve" smooth="yes"/>
      <point x="314.232" y="439.572"/>
      <point x="396.321" y="439.572" type="qcurve" smooth="yes"/>
      <point x="504.007" y="439.572"/>
      <point x="655.827" y="285.986"/>
      <point x="655.827" y="179.183" type="qcurve" smooth="yes"/>
      <point x="655.827" y="155.351"/>
      <point x="652.296" y="132.401" type="qcurve"/>
      <point x="752.038" y="82.9714"/>
      <point x="880.026" y="82.9714" type="qcurve" smooth="yes"/>
      <point x="985.064" y="82.9714"/>
      <point x="1084.81" y="137.697" type="qcurve" smooth="yes"/>
      <point x="1200.44" y="200.367"/>
      <point x="1200.44" y="296.578" type="qcurve" smooth="yes"/>
      <point x="1200.44" y="399.851"/>
      <point x="1090.1" y="484.588" type="qcurve" smooth="yes"/>
      <point x="986.83" y="564.029"/>
      <point x="880.026" y="564.029" type="qcurve" smooth="yes"/>
      <point x="798.82" y="564.029"/>
      <point x="798.82" y="645.235" type="qcurve" smooth="yes"/>
      <point x="798.82" y="726.441"/>
      <point x="880.026" y="726.441" type="qcurve" smooth="yes"/>
      <point x="985.064" y="726.441"/>
      <point x="1088.34" y="797.055" type="qcurve" smooth="yes"/>
      <point x="1200.44" y="872.965"/>
      <point x="1200.44" y="974.472" type="qcurve" smooth="yes"/>
      <point x="1200.44" y="1069.8"/>
      <point x="1084.81" y="1133.35" type="qcurve" smooth="yes"/>
      <point x="985.064" y="1188.08"/>
      <point x="880.026" y="1188.08" type="qcurve" smooth="yes"/>
      <point x="724.675" y="1188.08"/>
      <point x="609.045" y="1112.17" type="qcurve"/>
      <point x="581.682" y="1091.87"/>
      <point x="558.733" y="1091.87" type="qcurve" smooth="yes"/>
      <point x="526.074" y="1091.87"/>
      <point x="477.527" y="1143.95"/>
      <point x="477.527" y="1176.6" type="qcurve" smooth="yes"/>
      <point x="477.527" y="1211.03"/>
      <point x="510.186" y="1240.16" type="qcurve" smooth="yes"/>
      <point x="571.09" y="1292.23"/>
      <point x="684.955" y="1323.13" type="qcurve" smooth="yes"/>
      <point x="784.697" y="1350.49"/>
      <point x="880.026" y="1350.49" type="qcurve" smooth="yes"/>
      <point x="1057.44" y="1350.49"/>
      <point x="1202.2" y="1252.51" type="qcurve" smooth="yes"/>
      <point x="1362.85" y="1142.18"/>
      <point x="1362.85" y="974.472" type="qcurve" smooth="yes"/>
      <point x="1362.85" y="769.692"/>
      <point x="1150.12" y="641.704" type="qcurve"/>
      <point x="1362.85" y="504.007"/>
      <point x="1362.85" y="296.578" type="qcurve"/>
    </contour>
  </outline>
</glyph>
<glyph name="uniE03A" format="2">
  <advance width="1656"/>
  <unicode hex="E03A"/>
  <outline>
    <contour>
      <point x="1655.9" y="1041.56" type="line"/>
      <point x="1655.9" y="921.512"/>
      <point x="1505.84" y="726.441"/>
      <point x="1391.98" y="684.955" type="qcurve"/>
      <point x="1376.09" y="679.659"/>
      <point x="1361.08" y="679.659" type="qcurve" smooth="yes"/>
      <point x="1326.66" y="679.659"/>
      <point x="1281.64" y="729.971"/>
      <point x="1281.64" y="764.396" type="qcurve" smooth="yes"/>
      <point x="1281.64" y="812.06"/>
      <point x="1333.72" y="836.775" type="qcurve" smooth="yes"/>
      <point x="1493.48" y="912.685"/>
      <point x="1493.48" y="1041.56" type="qcurve" smooth="yes"/>
      <point x="1493.48" y="1131.59"/>
      <point x="1409.63" y="1164.25" type="qcurve" smooth="yes"/>
      <point x="1357.55" y="1185.43"/>
      <point x="1248.98" y="1185.43" type="qcurve" smooth="yes"/>
      <point x="1224.27" y="1185.43"/>
      <point x="1195.14" y="1171.31" type="qcurve" smooth="yes"/>
      <point x="1160.72" y="1153.65"/>
      <point x="1160.72" y="1129.82" type="qcurve" smooth="yes"/>
      <point x="1160.72" y="1084.81"/>
      <point x="1247.22" y="1084.81" type="qcurve" smooth="yes"/>
      <point x="1328.42" y="1084.81"/>
      <point x="1328.42" y="1003.6" type="qcurve" smooth="yes"/>
      <point x="1328.42" y="921.512"/>
      <point x="1247.22" y="921.512" type="qcurve" smooth="yes"/>
      <point x="1135.12" y="921.512"/>
      <point x="1068.04" y="974.472" type="qcurve"/>
      <point x="1068.04" y="769.692"/>
      <point x="853.546" y="641.704" type="qcurve"/>
      <point x="1068.04" y="504.007"/>
      <point x="1068.04" y="296.578" type="qcurve" smooth="yes"/>
      <point x="1068.04" y="126.222"/>
      <point x="905.624" y="17.6535" type="qcurve" smooth="yes"/>
      <point x="760.865" y="-79.4407"/>
      <point x="584.33" y="-79.4407" type="qcurve" smooth="yes"/>
      <point x="489.884" y="-79.4407"/>
      <point x="390.142" y="-52.0778" type="qcurve" smooth="yes"/>
      <point x="276.277" y="-22.0668"/>
      <point x="213.607" y="30.8936" type="qcurve" smooth="yes"/>
      <point x="180.948" y="58.2565"/>
      <point x="180.948" y="91.7981" type="qcurve" smooth="yes"/>
      <point x="180.948" y="126.222"/>
      <point x="229.495" y="177.417"/>
      <point x="262.154" y="177.417" type="qcurve" smooth="yes"/>
      <point x="285.986" y="177.417"/>
      <point x="312.467" y="158.881" type="qcurve"/>
      <point x="428.097" y="82.9714"/>
      <point x="584.33" y="82.9714" type="qcurve" smooth="yes"/>
      <point x="688.486" y="82.9714"/>
      <point x="788.228" y="137.697" type="qcurve" smooth="yes"/>
      <point x="905.624" y="200.367"/>
      <point x="905.624" y="296.578" type="qcurve" smooth="yes"/>
      <point x="905.624" y="399.851"/>
      <point x="795.289" y="484.588" type="qcurve" smooth="yes"/>
      <point x="692.016" y="564.029"/>
      <point x="584.33" y="564.029" type="qcurve" smooth="yes"/>
      <point x="502.242" y="564.029"/>
      <point x="502.242" y="645.235" type="qcurve" smooth="yes"/>
      <point x="502.242" y="726.441"/>
      <point x="584.33" y="726.441" type="qcurve" smooth="yes"/>
      <point x="690.251" y="726.441"/>
      <point x="791.759" y="797.055" type="qcurve"/>
      <point x="905.624" y="872.965"/>
      <point x="905.624" y="974.472" type="qcurve" smooth="yes"/>
      <point x="905.624" y="1069.8"/>
      <point x="788.228" y="1133.35" type="qcurve" smooth="yes"/>
      <point x="688.486" y="1188.08"/>
      <point x="584.33" y="1188.08" type="qcurve" smooth="yes"/>
      <point x="428.097" y="1188.08"/>
      <point x="312.467" y="1112.17" type="qcurve"/>
      <point x="285.986" y="1091.87"/>
      <point x="262.154" y="1091.87" type="qcurve" smooth="yes"/>
      <point x="229.495" y="1091.87"/>
      <point x="180.948" y="1143.95"/>
      <point x="180.948" y="1176.6" type="qcurve" smooth="yes"/>
      <point x="180.948" y="1211.03"/>
      <point x="213.607" y="1240.16" type="qcurve"/>
      <point x="276.277" y="1292.23"/>
      <point x="390.142" y="1323.13" type="qcurve" smooth="yes"/>
      <point x="489.884" y="1350.49"/>
      <point x="584.33" y="1350.49" type="qcurve" smooth="yes"/>
      <point x="699.96" y="1350.49"/>
      <point x="813.825" y="1301.94" type="qcurve" smooth="yes"/>
      <point x="934.752" y="1248.98"/>
      <point x="1001.83" y="1166.01" type="qcurve"/>
      <point x="1014.19" y="1245.45"/>
      <point x="1091.87" y="1297.53" type="qcurve" smooth="yes"/>
      <point x="1164.25" y="1348.73"/>
      <point x="1248.98" y="1348.73" type="qcurve" smooth="yes"/>
      <point x="1655.9" y="1348.73"/>
      <point x="1655.9" y="1041.56" type="qcurve"/>
    </contour>
  </outline>
</glyph>
<glyph name="uniE03D" format="2">
  <advance width="1068"/>
  <unicode hex="E03D"/>
  <outline>
    <contour>
      <point x="1068.04" y="294.813" type="line"/>
      <point x="1068.04" y="126.222"/>
      <point x="905.624" y="15.8881" type="qcurve" smooth="yes"/>
      <point x="760.865" y="-81.206"/>
      <point x="584.33" y="-81.206" type="qcurve" smooth="yes"/>
      <point x="489.884" y="-81.206"/>
      <point x="388.377" y="-53.8431" type="qcurve" smooth="yes"/>
      <point x="272.746" y="-23.8322"/>
      <point x="213.607" y="29.1282" type="qcurve" smooth="yes"/>
      <point x="180.948" y="58.2565"/>
      <point x="180.948" y="90.0327" type="qcurve" smooth="yes"/>
      <point x="180.948" y="124.457"/>
      <point x="229.495" y="175.652"/>
      <point x="262.154" y="175.652" type="qcurve" smooth="yes"/>
      <point x="284.221" y="175.652"/>
      <point x="312.467" y="157.116" type="qcurve"/>
      <point x="436.041" y="81.206"/>
      <point x="584.33" y="81.206" type="qcurve" smooth="yes"/>
      <point x="688.486" y="81.206"/>
      <point x="788.228" y="135.932" type="qcurve" smooth="yes"/>
      <point x="905.624" y="198.602"/>
      <point x="905.624" y="294.813" type="qcurve" smooth="yes"/>
      <point x="905.624" y="361.896"/>
      <point x="843.836" y="419.27" type="qcurve" smooth="yes"/>
      <point x="791.759" y="466.052"/>
      <point x="719.379" y="491.649" type="qcurve" smooth="yes"/>
      <point x="654.061" y="513.716"/>
      <point x="584.33" y="513.716" type="qcurve" smooth="yes"/>
      <point x="562.263" y="513.716"/>
      <point x="543.727" y="522.543" type="qcurve"/>
      <point x="519.012" y="439.572"/>
      <point x="379.55" y="334.533"/>
      <point x="294.813" y="334.533" type="qcurve" smooth="yes"/>
      <point x="213.607" y="334.533"/>
      <point x="213.607" y="415.739" type="qcurve" smooth="yes"/>
      <point x="213.607" y="496.945"/>
      <point x="294.813" y="496.945" type="qcurve" smooth="yes"/>
      <point x="334.533" y="496.945"/>
      <point x="390.142" y="555.202"/>
      <point x="390.142" y="594.922" type="qcurve" smooth="yes"/>
      <point x="390.142" y="634.643"/>
      <point x="334.533" y="692.016"/>
      <point x="294.813" y="692.016" type="qcurve" smooth="yes"/>
      <point x="213.607" y="692.016"/>
      <point x="213.607" y="774.105" type="qcurve" smooth="yes"/>
      <point x="213.607" y="855.311"/>
      <point x="294.813" y="855.311" type="qcurve" smooth="yes"/>
      <point x="379.55" y="855.311"/>
      <point x="519.012" y="750.273"/>
      <point x="543.727" y="667.302" type="qcurve"/>
      <point x="562.263" y="676.128"/>
      <point x="584.33" y="676.128" type="qcurve" smooth="yes"/>
      <point x="750.273" y="676.128"/>
      <point x="831.479" y="724.675" type="qcurve"/>
      <point x="748.508" y="774.105"/>
      <point x="584.33" y="774.105" type="qcurve" smooth="yes"/>
      <point x="548.141" y="774.105"/>
      <point x="500.476" y="819.121"/>
      <point x="500.476" y="855.311" type="qcurve" smooth="yes"/>
      <point x="500.476" y="891.501"/>
      <point x="548.141" y="936.517"/>
      <point x="584.33" y="936.517" type="qcurve" smooth="yes"/>
      <point x="766.161" y="936.517"/>
      <point x="878.261" y="1036.26" type="qcurve" smooth="yes"/>
      <point x="905.624" y="1060.97"/>
      <point x="905.624" y="1071.57" type="qcurve" smooth="yes"/>
      <point x="905.624" y="1117.47"/>
      <point x="766.161" y="1155.42" type="qcurve" smooth="yes"/>
      <point x="650.531" y="1188.08"/>
      <point x="584.33" y="1188.08" type="qcurve" smooth="yes"/>
      <point x="436.041" y="1188.08"/>
      <point x="312.467" y="1112.17" type="qcurve"/>
      <point x="284.221" y="1091.87"/>
      <point x="262.154" y="1091.87" type="qcurve" smooth="yes"/>
      <point x="229.495" y="1091.87"/>
      <point x="180.948" y="1143.95"/>
      <point x="180.948" y="1176.6" type="qcurve" smooth="yes"/>
      <point x="180.948" y="1211.03"/>
      <point x="213.607" y="1240.16" type="qcurve" smooth="yes"/>
      <point x="272.746" y="1292.23"/>
      <point x="388.377" y="1323.13" type="qcurve" smooth="yes"/>
      <point x="489.884" y="1350.49"/>
      <point x="584.33" y="1350.49" type="qcurve" smooth="yes"/>
      <point x="739.681" y="1350.49"/>
      <point x="883.557" y="1286.94" type="qcurve" smooth="yes"/>
      <point x="1068.04" y="1205.73"/>
      <point x="1068.04" y="1071.57" type="qcurve" smooth="yes"/>
      <point x="1068.04" y="950.64"/>
      <point x="916.216" y="864.138" type="qcurve"/>
      <point x="1008.9" y="807.647"/>
      <point x="1008.9" y="724.675" type="qcurve" smooth="yes"/>
      <point x="1008.9" y="634.643"/>
      <point x="903.858" y="578.151" type="qcurve"/>
      <point x="1068.04" y="467.817"/>
      <point x="1068.04" y="294.813" type="qcurve"/>
    </contour>
  </outline>
</glyph>
<glyph name="uniE03F" format="2">
  <advance width="1410"/>
  <unicode hex="E03F"/>
  <outline>
    <contour>
      <point x="1409.63" y="294.813" type="line"/>
      <point x="1409.63" y="124.457"/>
      <point x="1248.98" y="15.8881" type="qcurve" smooth="yes"/>
      <point x="1104.23" y="-81.206"/>
      <point x="927.69" y="-81.206" type="qcurve" smooth="yes"/>
      <point x="793.524" y="-81.206"/>
      <point x="624.051" y="-1.76535" type="qcurve" smooth="yes"/>
      <point x="519.012" y="46.7817"/>
      <point x="346.891" y="157.116" type="qcurve"/>
      <point x="360.131" y="112.1"/>
      <point x="421.035" y="77.6753" type="qcurve" smooth="yes"/>
      <point x="475.761" y="46.7817"/>
      <point x="475.761" y="1.76535" type="qcurve" smooth="yes"/>
      <point x="475.761" y="-30.8936"/>
      <point x="429.862" y="-82.9714"/>
      <point x="396.321" y="-82.9714" type="qcurve" smooth="yes"/>
      <point x="381.315" y="-82.9714"/>
      <point x="363.662" y="-75.91" type="qcurve" smooth="yes"/>
      <point x="281.573" y="-43.251"/>
      <point x="180.948" y="99.7422"/>
      <point x="180.948" y="184.479" type="qcurve" smooth="yes"/>
      <point x="180.948" y="269.216"/>
      <point x="281.573" y="412.209"/>
      <point x="363.662" y="444.868" type="qcurve"/>
      <point x="381.315" y="450.164"/>
      <point x="396.321" y="450.164" type="qcurve" smooth="yes"/>
      <point x="429.862" y="450.164"/>
      <point x="475.761" y="399.851"/>
      <point x="475.761" y="365.427" type="qcurve" smooth="yes"/>
      <point x="475.761" y="317.763"/>
      <point x="431.628" y="296.578" type="qcurve"/>
      <point x="769.692" y="81.206"/>
      <point x="927.69" y="81.206" type="qcurve" smooth="yes"/>
      <point x="1031.85" y="81.206"/>
      <point x="1131.59" y="135.932" type="qcurve" smooth="yes"/>
      <point x="1247.22" y="198.602"/>
      <point x="1247.22" y="294.813" type="qcurve" smooth="yes"/>
      <point x="1247.22" y="361.896"/>
      <point x="1185.43" y="419.27" type="qcurve" smooth="yes"/>
      <point x="1135.12" y="466.052"/>
      <point x="1062.74" y="491.649" type="qcurve" smooth="yes"/>
      <point x="998.304" y="513.716"/>
      <point x="927.69" y="513.716" type="qcurve" smooth="yes"/>
      <point x="891.501" y="513.716"/>
      <point x="842.071" y="558.733"/>
      <point x="842.071" y="594.922" type="qcurve" smooth="yes"/>
      <point x="842.071" y="631.112"/>
      <point x="891.501" y="676.128"/>
      <point x="927.69" y="676.128" type="qcurve" smooth="yes"/>
      <point x="1091.87" y="676.128"/>
      <point x="1174.84" y="724.675" type="qcurve"/>
      <point x="1091.87" y="774.105"/>
      <point x="927.69" y="774.105" type="qcurve" smooth="yes"/>
      <point x="891.501" y="774.105"/>
      <point x="842.071" y="819.121"/>
      <point x="842.071" y="855.311" type="qcurve" smooth="yes"/>
      <point x="842.071" y="891.501"/>
      <point x="891.501" y="936.517"/>
      <point x="927.69" y="936.517" type="qcurve" smooth="yes"/>
      <point x="1109.52" y="936.517"/>
      <point x="1219.86" y="1036.26" type="qcurve" smooth="yes"/>
      <point x="1247.22" y="1060.97"/>
      <point x="1247.22" y="1071.57" type="qcurve" smooth="yes"/>
      <point x="1247.22" y="1117.47"/>
      <point x="1107.76" y="1155.42" type="qcurve" smooth="yes"/>
      <point x="992.126" y="1188.08"/>
      <point x="927.69" y="1188.08" type="qcurve" smooth="yes"/>
      <point x="777.636" y="1188.08"/>
      <point x="655.827" y="1112.17" type="qcurve"/>
      <point x="625.816" y="1091.87"/>
      <point x="605.514" y="1091.87" type="qcurve" smooth="yes"/>
      <point x="572.855" y="1091.87"/>
      <point x="524.308" y="1143.95"/>
      <point x="524.308" y="1176.6" type="qcurve" smooth="yes"/>
      <point x="524.308" y="1211.03"/>
      <point x="556.967" y="1240.16" type="qcurve" smooth="yes"/>
      <point x="614.341" y="1292.23"/>
      <point x="731.737" y="1323.13" type="qcurve" smooth="yes"/>
      <point x="833.244" y="1350.49"/>
      <point x="927.69" y="1350.49" type="qcurve" smooth="yes"/>
      <point x="1083.04" y="1350.49"/>
      <point x="1227.8" y="1286.94" type="qcurve" smooth="yes"/>
      <point x="1409.63" y="1205.73"/>
      <point x="1409.63" y="1071.57" type="qcurve" smooth="yes"/>
      <point x="1409.63" y="950.64"/>
      <point x="1259.58" y="864.138" type="qcurve"/>
      <point x="1350.49" y="807.647"/>
      <point x="1350.49" y="724.675" type="qcurve" smooth="yes"/>
      <point x="1350.49" y="634.643"/>
      <point x="1247.22" y="578.151" type="qcurve"/>
      <point x="1409.63" y="467.817"/>
      <point x="1409.63" y="294.813" type="qcurve"/>
    </contour>
  </outline>
</glyph>
<glyph name="uniE042" format="2">
  <advance width="1238"/>
  <unicode hex="E042"/>
  <outline>
    <contour>
      <point x="1238.29" y="294.658" type="line"/>
      <point x="1238.29" y="126.54"/>
      <point x="1077.4" y="16.2694" type="qcurve" smooth="yes"/>
      <point x="932.783" y="-81.3472"/>
      <point x="755.625" y="-81.3472" type="qcurve" smooth="yes"/>
      <point x="661.624" y="-81.3472"/>
      <point x="560.392" y="-54.2315" type="qcurve" smooth="yes"/>
      <point x="442.891" y="-23.5003"/>
      <point x="385.044" y="28.9235" type="qcurve" smooth="yes"/>
      <point x="352.505" y="57.8469"/>
      <point x="352.505" y="90.3858" type="qcurve" smooth="yes"/>
      <point x="352.505" y="124.732"/>
      <point x="401.313" y="175.348"/>
      <point x="433.852" y="175.348" type="qcurve" smooth="yes"/>
      <point x="455.545" y="175.348"/>
      <point x="484.468" y="157.271" type="qcurve" smooth="yes"/>
      <point x="607.393" y="81.3472"/>
      <point x="755.625" y="81.3472" type="qcurve" smooth="yes"/>
      <point x="860.473" y="81.3472"/>
      <point x="959.899" y="135.579" type="qcurve" smooth="yes"/>
      <point x="1075.59" y="198.849"/>
      <point x="1075.59" y="294.658" type="qcurve" smooth="yes"/>
      <point x="1075.59" y="361.543"/>
      <point x="1014.13" y="419.39" type="qcurve" smooth="yes"/>
      <point x="963.509" y="466.391"/>
      <point x="891.201" y="491.699" type="qcurve" smooth="yes"/>
      <point x="826.126" y="513.391"/>
      <point x="755.625" y="513.391" type="qcurve" smooth="yes"/>
      <point x="719.471" y="513.391"/>
      <point x="670.663" y="558.584"/>
      <point x="670.663" y="594.739" type="qcurve" smooth="yes"/>
      <point x="670.663" y="630.893"/>
      <point x="719.471" y="676.086"/>
      <point x="755.625" y="676.086" type="qcurve" smooth="yes"/>
      <point x="920.126" y="676.086"/>
      <point x="1003.28" y="724.894" type="qcurve"/>
      <point x="920.126" y="773.703"/>
      <point x="755.625" y="773.703" type="qcurve" smooth="yes"/>
      <point x="719.471" y="773.703"/>
      <point x="670.663" y="818.896"/>
      <point x="670.663" y="855.05" type="qcurve" smooth="yes"/>
      <point x="670.663" y="891.201"/>
      <point x="719.471" y="936.394"/>
      <point x="755.625" y="936.394" type="qcurve" smooth="yes"/>
      <point x="938.203" y="936.394"/>
      <point x="1048.48" y="1035.82" type="qcurve" smooth="yes"/>
      <point x="1075.59" y="1061.13"/>
      <point x="1075.59" y="1071.97" type="qcurve" smooth="yes"/>
      <point x="1075.59" y="1117.17"/>
      <point x="943.631" y="1153.32" type="qcurve" smooth="yes"/>
      <point x="833.357" y="1184.05"/>
      <point x="768.279" y="1184.05" type="qcurve" smooth="yes"/>
      <point x="699.586" y="1184.05"/>
      <point x="629.085" y="1175.02" type="qcurve" smooth="yes"/>
      <point x="536.892" y="1162.36"/>
      <point x="459.16" y="1131.63" type="qcurve" smooth="yes"/>
      <point x="343.466" y="1088.25"/>
      <point x="343.466" y="1028.59" type="qcurve" smooth="yes"/>
      <point x="343.466" y="988.824"/>
      <point x="401.313" y="930.974"/>
      <point x="441.083" y="930.974" type="qcurve" smooth="yes"/>
      <point x="475.429" y="930.974"/>
      <point x="522.43" y="885.781"/>
      <point x="522.43" y="849.627" type="qcurve" smooth="yes"/>
      <point x="522.43" y="815.28"/>
      <point x="475.429" y="768.279"/>
      <point x="441.083" y="768.279" type="qcurve" smooth="yes"/>
      <point x="334.428" y="768.279"/>
      <point x="180.772" y="921.935"/>
      <point x="180.772" y="1028.59" type="qcurve" smooth="yes"/>
      <point x="180.772" y="1147.9"/>
      <point x="305.504" y="1231.06" type="qcurve" smooth="yes"/>
      <point x="399.505" y="1296.14"/>
      <point x="538.699" y="1326.86" type="qcurve" smooth="yes"/>
      <point x="645.355" y="1350.37"/>
      <point x="755.625" y="1350.37" type="qcurve" smooth="yes"/>
      <point x="911.087" y="1350.37"/>
      <point x="1055.7" y="1287.1" type="qcurve" smooth="yes"/>
      <point x="1238.29" y="1205.75"/>
      <point x="1238.29" y="1071.97" type="qcurve" smooth="yes"/>
      <point x="1238.29" y="950.861"/>
      <point x="1088.25" y="864.088" type="qcurve"/>
      <point x="1178.63" y="808.049"/>
      <point x="1178.63" y="724.894" type="qcurve" smooth="yes"/>
      <point x="1178.63" y="634.508"/>
      <point x="1075.59" y="578.469" type="qcurve"/>
      <point x="1238.29" y="468.199"/>
      <point x="1238.29" y="294.658" type="qcurve"/>
    </contour>
  </outline>
</glyph>
<glyph name="uniE043" format="2">
  <advance width="1786"/>
  <unicode hex="E043"/>
  <outline>
    <contour>
      <point x="1786.02" y="723.087" type="line"/>
      <point x="1786.02" y="623.662"/>
      <point x="1711.91" y="574.854" type="qcurve" smooth="yes"/>
      <point x="1650.44" y="535.084"/>
      <point x="1561.87" y="535.084" type="qcurve" smooth="yes"/>
      <point x="1473.29" y="535.084"/>
      <point x="1381.09" y="605.585" type="qcurve"/>
      <point x="1332.29" y="538.699"/>
      <point x="1303.37" y="480.853" type="qcurve"/>
      <point x="1281.67" y="433.852"/>
      <point x="1232.87" y="433.852" type="qcurve" smooth="yes"/>
      <point x="1200.32" y="433.852"/>
      <point x="1147.9" y="480.853"/>
      <point x="1147.9" y="513.391" type="qcurve" smooth="yes"/>
      <point x="1147.9" y="547.738"/>
      <point x="1207.55" y="641.739" type="qcurve"/>
      <point x="979.786" y="641.739" type="line"/>
      <point x="952.67" y="605.585"/>
      <point x="903.858" y="578.469" type="qcurve"/>
      <point x="1068.36" y="468.199"/>
      <point x="1068.36" y="294.658" type="qcurve" smooth="yes"/>
      <point x="1068.36" y="126.54"/>
      <point x="905.668" y="16.2694" type="qcurve" smooth="yes"/>
      <point x="761.049" y="-81.3472"/>
      <point x="583.892" y="-81.3472" type="qcurve" smooth="yes"/>
      <point x="489.891" y="-81.3472"/>
      <point x="390.467" y="-54.2315" type="qcurve" smooth="yes"/>
      <point x="276.581" y="-23.5003"/>
      <point x="213.311" y="28.9235" type="qcurve" smooth="yes"/>
      <point x="180.772" y="56.0392"/>
      <point x="180.772" y="90.3858" type="qcurve" smooth="yes"/>
      <point x="180.772" y="124.732"/>
      <point x="229.58" y="175.348"/>
      <point x="262.119" y="175.348" type="qcurve" smooth="yes"/>
      <point x="285.619" y="175.348"/>
      <point x="312.735" y="157.271" type="qcurve" smooth="yes"/>
      <point x="428.429" y="81.3472"/>
      <point x="583.892" y="81.3472" type="qcurve" smooth="yes"/>
      <point x="688.74" y="81.3472"/>
      <point x="788.164" y="135.579" type="qcurve" smooth="yes"/>
      <point x="905.668" y="198.849"/>
      <point x="905.668" y="294.658" type="qcurve" smooth="yes"/>
      <point x="905.668" y="361.543"/>
      <point x="842.396" y="419.39" type="qcurve" smooth="yes"/>
      <point x="791.78" y="466.391"/>
      <point x="719.471" y="491.699" type="qcurve" smooth="yes"/>
      <point x="654.393" y="513.391"/>
      <point x="583.892" y="513.391" type="qcurve" smooth="yes"/>
      <point x="498.93" y="513.391"/>
      <point x="498.93" y="594.739" type="qcurve" smooth="yes"/>
      <point x="498.93" y="676.086"/>
      <point x="583.892" y="676.086" type="qcurve" smooth="yes"/>
      <point x="750.202" y="676.086"/>
      <point x="831.55" y="724.894" type="qcurve"/>
      <point x="750.202" y="773.703"/>
      <point x="583.892" y="773.703" type="qcurve" smooth="yes"/>
      <point x="500.737" y="773.703"/>
      <point x="500.737" y="855.05" type="qcurve" smooth="yes"/>
      <point x="500.737" y="936.394"/>
      <point x="583.892" y="936.394" type="qcurve" smooth="yes"/>
      <point x="764.664" y="936.394"/>
      <point x="878.55" y="1035.82" type="qcurve"/>
      <point x="905.668" y="1061.13"/>
      <point x="905.668" y="1071.97" type="qcurve" smooth="yes"/>
      <point x="905.668" y="1117.17"/>
      <point x="766.472" y="1155.13" type="qcurve" smooth="yes"/>
      <point x="650.778" y="1187.67"/>
      <point x="583.892" y="1187.67" type="qcurve" smooth="yes"/>
      <point x="428.429" y="1187.67"/>
      <point x="312.735" y="1111.75" type="qcurve"/>
      <point x="285.619" y="1091.86"/>
      <point x="262.119" y="1091.86" type="qcurve" smooth="yes"/>
      <point x="229.58" y="1091.86"/>
      <point x="180.772" y="1144.28"/>
      <point x="180.772" y="1176.83" type="qcurve" smooth="yes"/>
      <point x="180.772" y="1211.17"/>
      <point x="213.311" y="1240.1" type="qcurve" smooth="yes"/>
      <point x="274.773" y="1292.52"/>
      <point x="390.467" y="1323.25" type="qcurve" smooth="yes"/>
      <point x="489.891" y="1350.37"/>
      <point x="583.892" y="1350.37" type="qcurve" smooth="yes"/>
      <point x="739.356" y="1350.37"/>
      <point x="883.972" y="1287.1" type="qcurve" smooth="yes"/>
      <point x="1068.36" y="1205.75"/>
      <point x="1068.36" y="1071.97" type="qcurve" smooth="yes"/>
      <point x="1068.36" y="950.861"/>
      <point x="916.516" y="864.088" type="qcurve"/>
      <point x="959.899" y="838.78"/>
      <point x="983.396" y="804.434" type="qcurve"/>
      <point x="1207.55" y="804.434" type="line"/>
      <point x="1147.9" y="898.439"/>
      <point x="1147.9" y="932.783" type="qcurve" smooth="yes"/>
      <point x="1147.9" y="965.319"/>
      <point x="1200.32" y="1012.32"/>
      <point x="1232.87" y="1012.32" type="qcurve" smooth="yes"/>
      <point x="1281.67" y="1012.32"/>
      <point x="1303.37" y="965.319" type="qcurve"/>
      <point x="1332.29" y="907.477"/>
      <point x="1381.09" y="840.588" type="qcurve"/>
      <point x="1473.29" y="911.087"/>
      <point x="1561.87" y="911.087" type="qcurve" smooth="yes"/>
      <point x="1650.44" y="911.087"/>
      <point x="1711.91" y="871.319" type="qcurve" smooth="yes"/>
      <point x="1786.02" y="822.511"/>
      <point x="1786.02" y="723.087" type="qcurve"/>
    </contour>
    <contour>
      <point x="1623.33" y="723.087" type="line"/>
      <point x="1623.33" y="730.317"/>
      <point x="1619.72" y="737.548" type="qcurve"/>
      <point x="1603.45" y="748.395"/>
      <point x="1561.87" y="748.395" type="qcurve" smooth="yes"/>
      <point x="1531.14" y="748.395"/>
      <point x="1493.18" y="723.087" type="qcurve"/>
      <point x="1531.14" y="697.779"/>
      <point x="1561.87" y="697.779" type="qcurve" smooth="yes"/>
      <point x="1601.64" y="697.779"/>
      <point x="1621.53" y="710.433" type="qcurve"/>
      <point x="1623.33" y="715.856"/>
      <point x="1623.33" y="723.087" type="qcurve"/>
    </contour>
  </outline>
</glyph>
<glyph name="uniE046" format="2">
  <advance width="1692"/>
  <unicode hex="E046"/>
  <outline>
    <contour>
      <point x="1692.02" y="1041.25" type="line"/>
      <point x="1692.02" y="921.935"/>
      <point x="1541.98" y="726.702"/>
      <point x="1428.1" y="685.124" type="qcurve"/>
      <point x="1410.02" y="679.701"/>
      <point x="1395.56" y="679.701" type="qcurve" smooth="yes"/>
      <point x="1361.21" y="679.701"/>
      <point x="1316.01" y="730.317"/>
      <point x="1316.01" y="764.664" type="qcurve" smooth="yes"/>
      <point x="1316.01" y="813.472"/>
      <point x="1368.44" y="836.973" type="qcurve" smooth="yes"/>
      <point x="1529.33" y="911.087"/>
      <point x="1529.33" y="1041.25" type="qcurve" smooth="yes"/>
      <point x="1529.33" y="1131.63"/>
      <point x="1446.17" y="1164.17" type="qcurve" smooth="yes"/>
      <point x="1393.75" y="1185.86"/>
      <point x="1283.48" y="1185.86" type="qcurve" smooth="yes"/>
      <point x="1258.17" y="1185.86"/>
      <point x="1229.25" y="1169.6" type="qcurve"/>
      <point x="1194.9" y="1153.32"/>
      <point x="1194.9" y="1129.82" type="qcurve" smooth="yes"/>
      <point x="1194.9" y="1084.63"/>
      <point x="1281.67" y="1084.63" type="qcurve" smooth="yes"/>
      <point x="1363.02" y="1084.63"/>
      <point x="1363.02" y="1003.28" type="qcurve" smooth="yes"/>
      <point x="1363.02" y="921.935"/>
      <point x="1281.67" y="921.935" type="qcurve" smooth="yes"/>
      <point x="1120.78" y="921.935"/>
      <point x="1061.13" y="1021.36" type="qcurve"/>
      <point x="1034.02" y="930.974"/>
      <point x="916.516" y="864.088" type="qcurve"/>
      <point x="1008.7" y="808.049"/>
      <point x="1008.7" y="724.894" type="qcurve" smooth="yes"/>
      <point x="1008.7" y="634.508"/>
      <point x="903.858" y="578.469" type="qcurve"/>
      <point x="1068.36" y="468.199"/>
      <point x="1068.36" y="294.658" type="qcurve" smooth="yes"/>
      <point x="1068.36" y="124.732"/>
      <point x="905.668" y="16.2694" type="qcurve" smooth="yes"/>
      <point x="761.049" y="-81.3472"/>
      <point x="583.892" y="-81.3472" type="qcurve" smooth="yes"/>
      <point x="489.891" y="-81.3472"/>
      <point x="388.659" y="-54.2315" type="qcurve" smooth="yes"/>
      <point x="272.965" y="-23.5003"/>
      <point x="213.311" y="28.9235" type="qcurve" smooth="yes"/>
      <point x="180.772" y="57.8469"/>
      <point x="180.772" y="90.3858" type="qcurve" smooth="yes"/>
      <point x="180.772" y="124.732"/>
      <point x="229.58" y="175.348"/>
      <point x="262.119" y="175.348" type="qcurve" smooth="yes"/>
      <point x="283.811" y="175.348"/>
      <point x="312.735" y="157.271" type="qcurve" smooth="yes"/>
      <point x="435.66" y="81.3472"/>
      <point x="583.892" y="81.3472" type="qcurve" smooth="yes"/>
      <point x="688.74" y="81.3472"/>
      <point x="788.164" y="135.579" type="qcurve" smooth="yes"/>
      <point x="905.668" y="198.849"/>
      <point x="905.668" y="294.658" type="qcurve" smooth="yes"/>
      <point x="905.668" y="394.082"/>
      <point x="789.972" y="457.352" type="qcurve"/>
      <point x="692.355" y="513.391"/>
      <point x="583.892" y="513.391" type="qcurve" smooth="yes"/>
      <point x="547.738" y="513.391"/>
      <point x="498.93" y="558.584"/>
      <point x="498.93" y="594.739" type="qcurve" smooth="yes"/>
      <point x="498.93" y="630.893"/>
      <point x="547.738" y="676.086"/>
      <point x="583.892" y="676.086" type="qcurve" smooth="yes"/>
      <point x="750.202" y="676.086"/>
      <point x="831.55" y="724.894" type="qcurve"/>
      <point x="748.395" y="773.703"/>
      <point x="583.892" y="773.703" type="qcurve" smooth="yes"/>
      <point x="547.738" y="773.703"/>
      <point x="500.737" y="818.896"/>
      <point x="500.737" y="855.05" type="qcurve" smooth="yes"/>
      <point x="500.737" y="891.201"/>
      <point x="547.738" y="936.394"/>
      <point x="583.892" y="936.394" type="qcurve" smooth="yes"/>
      <point x="766.472" y="936.394"/>
      <point x="878.55" y="1035.82" type="qcurve" smooth="yes"/>
      <point x="905.668" y="1061.13"/>
      <point x="905.668" y="1071.97" type="qcurve" smooth="yes"/>
      <point x="905.668" y="1117.17"/>
      <point x="766.472" y="1155.13" type="qcurve" smooth="yes"/>
      <point x="650.778" y="1187.67"/>
      <point x="583.892" y="1187.67" type="qcurve" smooth="yes"/>
      <point x="435.66" y="1187.67"/>
      <point x="312.735" y="1111.75" type="qcurve"/>
      <point x="283.811" y="1091.86"/>
      <point x="262.119" y="1091.86" type="qcurve" smooth="yes"/>
      <point x="229.58" y="1091.86"/>
      <point x="180.772" y="1144.28"/>
      <point x="180.772" y="1176.83" type="qcurve" smooth="yes"/>
      <point x="180.772" y="1211.17"/>
      <point x="213.311" y="1240.1" type="qcurve" smooth="yes"/>
      <point x="272.965" y="1292.52"/>
      <point x="388.659" y="1323.25" type="qcurve" smooth="yes"/>
      <point x="489.891" y="1350.37"/>
      <point x="583.892" y="1350.37" type="qcurve" smooth="yes"/>
      <point x="706.817" y="1350.37"/>
      <point x="833.357" y="1306.98" type="qcurve" smooth="yes"/>
      <point x="981.586" y="1256.36"/>
      <point x="1037.63" y="1171.4" type="qcurve"/>
      <point x="1052.09" y="1249.13"/>
      <point x="1129.82" y="1299.75" type="qcurve"/>
      <point x="1200.32" y="1348.56"/>
      <point x="1283.48" y="1348.56" type="qcurve" smooth="yes"/>
      <point x="1692.02" y="1348.56"/>
      <point x="1692.02" y="1041.25" type="qcurve"/>
    </contour>
  </outline>
</glyph>
<glyph name="uniE047" format="2">
  <advance width="1475"/>
  <unicode hex="E047"/>
  <outline>
    <contour>
      <point x="1475.1" y="314.543" type="line"/>
      <point x="1475.1" y="101.232"/>
      <point x="1314.21" y="-56.0392" type="qcurve" smooth="yes"/>
      <point x="1285.29" y="-83.155"/>
      <point x="1254.55" y="-83.155" type="qcurve" smooth="yes"/>
      <point x="1222.02" y="-83.155"/>
      <point x="1171.4" y="-32.5389"/>
      <point x="1171.4" y="0" type="qcurve" smooth="yes"/>
      <point x="1171.4" y="27.1157"/>
      <point x="1200.32" y="63.2701" type="qcurve"/>
      <point x="1223.83" y="90.3858"/>
      <point x="1247.32" y="117.502" type="qcurve"/>
      <point x="1113.56" y="124.732"/>
      <point x="1062.93" y="238.619" type="qcurve"/>
      <point x="1035.82" y="92.1935"/>
      <point x="882.166" y="0" type="qcurve" smooth="yes"/>
      <point x="742.971" y="-81.3472"/>
      <point x="583.892" y="-81.3472" type="qcurve" smooth="yes"/>
      <point x="489.891" y="-81.3472"/>
      <point x="388.659" y="-54.2315" type="qcurve" smooth="yes"/>
      <point x="272.965" y="-23.5003"/>
      <point x="213.311" y="28.9235" type="qcurve" smooth="yes"/>
      <point x="180.772" y="57.8469"/>
      <point x="180.772" y="90.3858" type="qcurve" smooth="yes"/>
      <point x="180.772" y="124.732"/>
      <point x="229.58" y="175.348"/>
      <point x="262.119" y="175.348" type="qcurve" smooth="yes"/>
      <point x="283.811" y="175.348"/>
      <point x="312.735" y="157.271" type="qcurve" smooth="yes"/>
      <point x="435.66" y="81.3472"/>
      <point x="583.892" y="81.3472" type="qcurve" smooth="yes"/>
      <point x="688.74" y="81.3472"/>
      <point x="788.164" y="135.579" type="qcurve" smooth="yes"/>
      <point x="905.668" y="198.849"/>
      <point x="905.668" y="294.658" type="qcurve" smooth="yes"/>
      <point x="905.668" y="361.543"/>
      <point x="844.204" y="419.39" type="qcurve" smooth="yes"/>
      <point x="791.78" y="466.391"/>
      <point x="719.471" y="491.699" type="qcurve" smooth="yes"/>
      <point x="654.393" y="513.391"/>
      <point x="583.892" y="513.391" type="qcurve" smooth="yes"/>
      <point x="547.738" y="513.391"/>
      <point x="498.93" y="558.584"/>
      <point x="498.93" y="594.739" type="qcurve" smooth="yes"/>
      <point x="498.93" y="630.893"/>
      <point x="547.738" y="676.086"/>
      <point x="583.892" y="676.086" type="qcurve" smooth="yes"/>
      <point x="750.202" y="676.086"/>
      <point x="831.55" y="724.894" type="qcurve"/>
      <point x="748.395" y="773.703"/>
      <point x="583.892" y="773.703" type="qcurve" smooth="yes"/>
      <point x="547.738" y="773.703"/>
      <point x="500.737" y="818.896"/>
      <point x="500.737" y="855.05" type="qcurve" smooth="yes"/>
      <point x="500.737" y="891.201"/>
      <point x="547.738" y="936.394"/>
      <point x="583.892" y="936.394" type="qcurve" smooth="yes"/>
      <point x="766.472" y="936.394"/>
      <point x="878.55" y="1035.82" type="qcurve" smooth="yes"/>
      <point x="905.668" y="1061.13"/>
      <point x="905.668" y="1071.97" type="qcurve" smooth="yes"/>
      <point x="905.668" y="1117.17"/>
      <point x="766.472" y="1155.13" type="qcurve" smooth="yes"/>
      <point x="650.778" y="1187.67"/>
      <point x="583.892" y="1187.67" type="qcurve" smooth="yes"/>
      <point x="435.66" y="1187.67"/>
      <point x="312.735" y="1111.75" type="qcurve"/>
      <point x="283.811" y="1091.86"/>
      <point x="262.119" y="1091.86" type="qcurve" smooth="yes"/>
      <point x="229.58" y="1091.86"/>
      <point x="180.772" y="1144.28"/>
      <point x="180.772" y="1176.83" type="qcurve" smooth="yes"/>
      <point x="180.772" y="1211.17"/>
      <point x="213.311" y="1240.1" type="qcurve" smooth="yes"/>
      <point x="272.965" y="1292.52"/>
      <point x="388.659" y="1323.25" type="qcurve" smooth="yes"/>
      <point x="489.891" y="1350.37"/>
      <point x="583.892" y="1350.37" type="qcurve" smooth="yes"/>
      <point x="739.356" y="1350.37"/>
      <point x="883.972" y="1287.1" type="qcurve" smooth="yes"/>
      <point x="1068.36" y="1205.75"/>
      <point x="1068.36" y="1071.97" type="qcurve" smooth="yes"/>
      <point x="1068.36" y="950.861"/>
      <point x="916.516" y="864.088" type="qcurve"/>
      <point x="1008.7" y="808.049"/>
      <point x="1008.7" y="724.894" type="qcurve" smooth="yes"/>
      <point x="1008.7" y="634.508"/>
      <point x="903.858" y="578.469" type="qcurve"/>
      <point x="1024.98" y="497.122"/>
      <point x="1057.51" y="376.005" type="qcurve"/>
      <point x="1079.21" y="437.467"/>
      <point x="1193.09" y="513.391"/>
      <point x="1261.78" y="513.391" type="qcurve" smooth="yes"/>
      <point x="1346.75" y="513.391"/>
      <point x="1475.1" y="399.505"/>
      <point x="1475.1" y="314.543" type="qcurve"/>
    </contour>
    <contour>
      <point x="1312.4" y="314.543" type="line"/>
      <point x="1312.4" y="350.697"/>
      <point x="1261.78" y="350.697" type="qcurve" smooth="yes"/>
      <point x="1209.36" y="350.697"/>
      <point x="1209.36" y="314.543" type="qcurve" smooth="yes"/>
      <point x="1209.36" y="280.196"/>
      <point x="1261.78" y="280.196" type="qcurve" smooth="yes"/>
      <point x="1312.4" y="280.196"/>
      <point x="1312.4" y="314.543" type="qcurve"/>
    </contour>
  </outline>
</glyph>
<glyph name="uniE04D" format="2">
  <advance width="1533"/>
  <unicode hex="E04D"/>
  <outline>
    <contour>
      <point x="1532.94" y="970.747" type="line"/>
      <point x="1532.94" y="896.629"/>
      <point x="1464.25" y="858.665" type="qcurve" smooth="yes"/>
      <point x="1408.21" y="827.934"/>
      <point x="1328.67" y="827.934" type="qcurve" smooth="yes"/>
      <point x="1222.02" y="827.934"/>
      <point x="1068.36" y="981.586"/>
      <point x="1068.36" y="1088.25" type="qcurve" smooth="yes"/>
      <point x="1068.36" y="1138.86"/>
      <point x="1088.25" y="1185.86" type="qcurve"/>
      <point x="802.626" y="1185.86" type="line"/>
      <point x="802.626" y="43.3852" type="line" smooth="yes"/>
      <point x="802.626" y="-10.8463"/>
      <point x="721.279" y="-81.3472"/>
      <point x="667.047" y="-81.3472" type="qcurve" smooth="yes"/>
      <point x="262.119" y="-81.3472" type="line" smooth="yes"/>
      <point x="180.772" y="-81.3472"/>
      <point x="180.772" y="0" type="qcurve" smooth="yes"/>
      <point x="180.772" y="81.3472"/>
      <point x="262.119" y="81.3472" type="qcurve" smooth="yes"/>
      <point x="639.932" y="81.3472" type="line"/>
      <point x="639.932" y="464.583" type="line"/>
      <point x="475.429" y="477.237"/>
      <point x="361.543" y="524.238" type="qcurve" smooth="yes"/>
      <point x="197.041" y="592.931"/>
      <point x="197.041" y="723.087" type="qcurve" smooth="yes"/>
      <point x="197.041" y="853.242"/>
      <point x="361.543" y="921.935" type="qcurve" smooth="yes"/>
      <point x="475.429" y="968.938"/>
      <point x="639.932" y="981.586" type="qcurve"/>
      <point x="639.932" y="1223.83" type="line" smooth="yes"/>
      <point x="639.932" y="1276.25"/>
      <point x="721.279" y="1348.56"/>
      <point x="773.703" y="1348.56" type="qcurve" smooth="yes"/>
      <point x="1328.67" y="1348.56" type="line" smooth="yes"/>
      <point x="1413.64" y="1348.56"/>
      <point x="1413.64" y="1267.21" type="qcurve" smooth="yes"/>
      <point x="1413.64" y="1185.86"/>
      <point x="1328.67" y="1185.86" type="qcurve" smooth="yes"/>
      <point x="1288.9" y="1185.86"/>
      <point x="1231.06" y="1128.01"/>
      <point x="1231.06" y="1088.25" type="qcurve" smooth="yes"/>
      <point x="1231.06" y="1048.48"/>
      <point x="1288.9" y="990.625"/>
      <point x="1328.67" y="990.625" type="qcurve" smooth="yes"/>
      <point x="1366.64" y="990.625"/>
      <point x="1438.94" y="1059.32"/>
      <point x="1466.06" y="1059.32" type="qcurve" smooth="yes"/>
      <point x="1496.79" y="1059.32"/>
      <point x="1532.94" y="1003.28"/>
      <point x="1532.94" y="970.747" type="qcurve"/>
    </contour>
    <contour>
      <point x="639.932" y="627.278" type="line"/>
      <point x="639.932" y="820.703" type="line"/>
      <point x="399.505" y="802.626"/>
      <point x="361.543" y="719.471" type="qcurve"/>
      <point x="404.928" y="643.547"/>
      <point x="639.932" y="627.278" type="qcurve"/>
    </contour>
  </outline>
</glyph>
<glyph name="uniE04F" format="2">
  <advance width="1582"/>
  <unicode hex="E04F"/>
  <outline>
    <contour>
      <point x="1581.75" y="723.087" type="line"/>
      <point x="1581.75" y="629.085"/>
      <point x="1513.06" y="580.277" type="qcurve"/>
      <point x="1453.4" y="535.084"/>
      <point x="1357.6" y="535.084" type="qcurve" smooth="yes"/>
      <point x="1267.21" y="535.084"/>
      <point x="1175.02" y="605.585" type="qcurve"/>
      <point x="1142.48" y="560.392"/>
      <point x="1099.09" y="480.853" type="qcurve" smooth="yes"/>
      <point x="1073.78" y="433.852"/>
      <point x="1028.59" y="433.852" type="qcurve" smooth="yes"/>
      <point x="994.244" y="433.852"/>
      <point x="943.631" y="480.853"/>
      <point x="943.631" y="513.391" type="qcurve" smooth="yes"/>
      <point x="943.631" y="547.738"/>
      <point x="1003.28" y="641.739" type="qcurve"/>
      <point x="802.626" y="641.739" type="line"/>
      <point x="802.626" y="43.3852" type="line" smooth="yes"/>
      <point x="802.626" y="-10.8463"/>
      <point x="721.279" y="-81.3472"/>
      <point x="667.047" y="-81.3472" type="qcurve" smooth="yes"/>
      <point x="262.119" y="-81.3472" type="line" smooth="yes"/>
      <point x="180.772" y="-81.3472"/>
      <point x="180.772" y="0" type="qcurve" smooth="yes"/>
      <point x="180.772" y="81.3472"/>
      <point x="262.119" y="81.3472" type="qcurve" smooth="yes"/>
      <point x="639.932" y="81.3472" type="line"/>
      <point x="639.932" y="464.583" type="line"/>
      <point x="475.429" y="477.237"/>
      <point x="361.543" y="524.238" type="qcurve" smooth="yes"/>
      <point x="197.041" y="592.931"/>
      <point x="197.041" y="723.087" type="qcurve" smooth="yes"/>
      <point x="197.041" y="853.242"/>
      <point x="361.543" y="921.935" type="qcurve" smooth="yes"/>
      <point x="475.429" y="968.938"/>
      <point x="639.932" y="981.586" type="qcurve"/>
      <point x="639.932" y="1223.83" type="line" smooth="yes"/>
      <point x="639.932" y="1276.25"/>
      <point x="721.279" y="1348.56"/>
      <point x="773.703" y="1348.56" type="qcurve" smooth="yes"/>
      <point x="1165.98" y="1348.56" type="line" smooth="yes"/>
      <point x="1247.32" y="1348.56"/>
      <point x="1247.32" y="1267.21" type="qcurve" smooth="yes"/>
      <point x="1247.32" y="1185.86"/>
      <point x="1165.98" y="1185.86" type="qcurve" smooth="yes"/>
      <point x="802.626" y="1185.86" type="line"/>
      <point x="802.626" y="804.434" type="line"/>
      <point x="1003.28" y="804.434" type="line"/>
      <point x="943.631" y="898.439"/>
      <point x="943.631" y="932.783" type="qcurve" smooth="yes"/>
      <point x="943.631" y="965.319"/>
      <point x="994.244" y="1012.32"/>
      <point x="1028.59" y="1012.32" type="qcurve" smooth="yes"/>
      <point x="1073.78" y="1012.32"/>
      <point x="1099.09" y="965.319" type="qcurve" smooth="yes"/>
      <point x="1142.48" y="885.781"/>
      <point x="1175.02" y="840.588" type="qcurve"/>
      <point x="1267.21" y="911.087"/>
      <point x="1357.6" y="911.087" type="qcurve" smooth="yes"/>
      <point x="1453.4" y="911.087"/>
      <point x="1513.06" y="865.896" type="qcurve"/>
      <point x="1581.75" y="817.088"/>
      <point x="1581.75" y="723.087" type="qcurve"/>
    </contour>
    <contour>
      <point x="1419.06" y="723.087" type="line"/>
      <point x="1419.06" y="732.125"/>
      <point x="1413.64" y="737.548" type="qcurve"/>
      <point x="1397.36" y="748.395"/>
      <point x="1357.6" y="748.395" type="qcurve" smooth="yes"/>
      <point x="1326.86" y="748.395"/>
      <point x="1288.9" y="723.087" type="qcurve"/>
      <point x="1325.05" y="697.779"/>
      <point x="1357.6" y="697.779" type="qcurve" smooth="yes"/>
      <point x="1397.36" y="697.779"/>
      <point x="1417.25" y="710.433" type="qcurve"/>
      <point x="1419.06" y="714.048"/>
      <point x="1419.06" y="723.087" type="qcurve"/>
    </contour>
    <contour>
      <point x="639.932" y="627.278" type="line"/>
      <point x="639.932" y="820.703" type="line"/>
      <point x="399.505" y="802.626"/>
      <point x="361.543" y="719.471" type="qcurve"/>
      <point x="404.928" y="643.547"/>
      <point x="639.932" y="627.278" type="qcurve"/>
    </contour>
  </outline>
</glyph>
<glyph name="uniE050" format="2">
  <advance width="1560"/>
  <unicode hex="E050"/>
  <outline>
    <contour>
      <point x="1560.06" y="1267.21" type="line"/>
      <point x="1560.06" y="1185.86"/>
      <point x="1478.71" y="1185.86" type="qcurve" smooth="yes"/>
      <point x="1115.36" y="1185.86" type="line"/>
      <point x="1115.36" y="224.157" type="line" smooth="yes"/>
      <point x="1115.36" y="169.925"/>
      <point x="1034.02" y="99.4244"/>
      <point x="979.786" y="99.4244" type="qcurve" smooth="yes"/>
      <point x="643.547" y="99.4244" type="line"/>
      <point x="616.431" y="19.8849"/>
      <point x="480.853" y="-79.5395"/>
      <point x="395.89" y="-79.5395" type="qcurve" smooth="yes"/>
      <point x="274.773" y="-79.5395"/>
      <point x="202.464" y="5.42315" type="qcurve"/>
      <point x="180.772" y="32.5389"/>
      <point x="180.772" y="59.6546" type="qcurve" smooth="yes"/>
      <point x="180.772" y="94.0013"/>
      <point x="231.388" y="142.81"/>
      <point x="263.927" y="142.81" type="qcurve" smooth="yes"/>
      <point x="292.85" y="142.81"/>
      <point x="359.736" y="83.155"/>
      <point x="395.89" y="83.155" type="qcurve" smooth="yes"/>
      <point x="435.66" y="83.155"/>
      <point x="493.507" y="141.002"/>
      <point x="493.507" y="180.772" type="qcurve" smooth="yes"/>
      <point x="493.507" y="220.541"/>
      <point x="435.66" y="278.388"/>
      <point x="395.89" y="278.388" type="qcurve" smooth="yes"/>
      <point x="314.543" y="278.388"/>
      <point x="314.543" y="359.736" type="qcurve" smooth="yes"/>
      <point x="314.543" y="441.083"/>
      <point x="395.89" y="441.083" type="qcurve" smooth="yes"/>
      <point x="480.853" y="441.083"/>
      <point x="616.431" y="341.658"/>
      <point x="643.547" y="262.119" type="qcurve"/>
      <point x="952.67" y="262.119" type="line"/>
      <point x="952.67" y="464.583" type="line"/>
      <point x="788.164" y="477.237"/>
      <point x="674.278" y="524.238" type="qcurve" smooth="yes"/>
      <point x="509.776" y="592.931"/>
      <point x="509.776" y="723.087" type="qcurve" smooth="yes"/>
      <point x="509.776" y="853.242"/>
      <point x="674.278" y="921.935" type="qcurve" smooth="yes"/>
      <point x="788.164" y="968.938"/>
      <point x="952.67" y="981.586" type="qcurve"/>
      <point x="952.67" y="1223.83" type="line" smooth="yes"/>
      <point x="952.67" y="1276.25"/>
      <point x="1032.21" y="1348.56"/>
      <point x="1086.44" y="1348.56" type="qcurve" smooth="yes"/>
      <point x="1478.71" y="1348.56" type="line" smooth="yes"/>
      <point x="1560.06" y="1348.56"/>
      <point x="1560.06" y="1267.21" type="qcurve"/>
    </contour>
    <contour>
      <point x="952.67" y="627.278" type="line"/>
      <point x="952.67" y="820.703" type="line"/>
      <point x="712.24" y="802.626"/>
      <point x="674.278" y="719.471" type="qcurve"/>
      <point x="717.663" y="643.547"/>
      <point x="952.67" y="627.278" type="qcurve"/>
    </contour>
  </outline>
</glyph>
<glyph name="uniE051" format="2">
  <advance width="1366"/>
  <unicode hex="E051"/>
  <outline>
    <contour>
      <point x="1366.64" y="128.348" type="line"/>
      <point x="1366.64" y="37.962"/>
      <point x="1223.83" y="-81.3472"/>
      <point x="1129.82" y="-81.3472" type="qcurve" smooth="yes"/>
      <point x="1057.51" y="-81.3472"/>
      <point x="1005.09" y="-56.0392" type="qcurve" smooth="yes"/>
      <point x="936.394" y="-21.6926"/>
      <point x="936.394" y="43.3852" type="qcurve" smooth="yes"/>
      <point x="936.394" y="117.502"/>
      <point x="1005.09" y="117.502" type="qcurve" smooth="yes"/>
      <point x="1024.98" y="117.502"/>
      <point x="1102.71" y="81.3472"/>
      <point x="1129.82" y="81.3472" type="qcurve" smooth="yes"/>
      <point x="1153.32" y="81.3472"/>
      <point x="1203.94" y="106.655"/>
      <point x="1203.94" y="128.348" type="qcurve" smooth="yes"/>
      <point x="1203.94" y="142.81"/>
      <point x="1146.09" y="177.156"/>
      <point x="1129.82" y="177.156" type="qcurve" smooth="yes"/>
      <point x="1068.36" y="177.156"/>
      <point x="941.822" y="251.273"/>
      <point x="912.897" y="305.504" type="qcurve"/>
      <point x="802.626" y="305.504" type="line"/>
      <point x="802.626" y="43.3852" type="line" smooth="yes"/>
      <point x="802.626" y="-10.8463"/>
      <point x="721.279" y="-81.3472"/>
      <point x="667.047" y="-81.3472" type="qcurve" smooth="yes"/>
      <point x="262.119" y="-81.3472" type="line" smooth="yes"/>
      <point x="180.772" y="-81.3472"/>
      <point x="180.772" y="0" type="qcurve" smooth="yes"/>
      <point x="180.772" y="81.3472"/>
      <point x="262.119" y="81.3472" type="qcurve" smooth="yes"/>
      <point x="639.932" y="81.3472" type="line"/>
      <point x="639.932" y="464.583" type="line"/>
      <point x="475.429" y="477.237"/>
      <point x="361.543" y="524.238" type="qcurve" smooth="yes"/>
      <point x="197.041" y="592.931"/>
      <point x="197.041" y="723.087" type="qcurve" smooth="yes"/>
      <point x="197.041" y="853.242"/>
      <point x="361.543" y="921.935" type="qcurve" smooth="yes"/>
      <point x="475.429" y="968.938"/>
      <point x="639.932" y="981.586" type="qcurve"/>
      <point x="639.932" y="1223.83" type="line" smooth="yes"/>
      <point x="639.932" y="1276.25"/>
      <point x="721.279" y="1348.56"/>
      <point x="773.703" y="1348.56" type="qcurve" smooth="yes"/>
      <point x="1165.98" y="1348.56" type="line" smooth="yes"/>
      <point x="1247.32" y="1348.56"/>
      <point x="1247.32" y="1267.21" type="qcurve" smooth="yes"/>
      <point x="1247.32" y="1185.86"/>
      <point x="1165.98" y="1185.86" type="qcurve" smooth="yes"/>
      <point x="802.626" y="1185.86" type="line"/>
      <point x="802.626" y="468.199" type="line"/>
      <point x="909.278" y="468.199" type="line"/>
      <point x="936.394" y="526.045"/>
      <point x="1001.47" y="562.2" type="qcurve" smooth="yes"/>
      <point x="1061.13" y="596.546"/>
      <point x="1129.82" y="596.546" type="qcurve" smooth="yes"/>
      <point x="1305.17" y="596.546"/>
      <point x="1305.17" y="493.507" type="qcurve" smooth="yes"/>
      <point x="1305.17" y="460.968"/>
      <point x="1259.98" y="412.159"/>
      <point x="1227.44" y="412.159" type="qcurve" smooth="yes"/>
      <point x="1212.98" y="412.159"/>
      <point x="1155.13" y="433.852"/>
      <point x="1129.82" y="433.852" type="qcurve" smooth="yes"/>
      <point x="1106.33" y="433.852"/>
      <point x="1055.7" y="408.544"/>
      <point x="1055.7" y="386.851" type="qcurve" smooth="yes"/>
      <point x="1055.7" y="374.197"/>
      <point x="1113.56" y="339.851"/>
      <point x="1129.82" y="339.851" type="qcurve" smooth="yes"/>
      <point x="1214.79" y="339.851"/>
      <point x="1366.64" y="213.311"/>
      <point x="1366.64" y="128.348" type="qcurve"/>
    </contour>
    <contour>
      <point x="639.932" y="627.278" type="line"/>
      <point x="639.932" y="820.703" type="line"/>
      <point x="399.505" y="802.626"/>
      <point x="361.543" y="719.471" type="qcurve"/>
      <point x="404.928" y="643.547"/>
      <point x="639.932" y="627.278" type="qcurve"/>
    </contour>
  </outline>
</glyph>
